{"glyphs":{"0":{"ha":806,"x_min":43,"x_max":785,"o":"m 785 667 q 727 308 785 465 q 568 68 669 151 q 332 -14 466 -14 q 116 72 189 -14 q 43 315 43 157 q 100 677 43 515 q 260 923 158 839 q 496 1007 361 1007 q 652 965 587 1007 q 751 846 717 922 q 785 667 785 770 m 465 793 q 391 718 428 793 q 330 526 353 642 q 307 310 307 410 q 317 227 307 253 q 358 200 328 200 q 434 264 397 200 q 495 444 470 328 q 521 672 521 560 q 508 761 521 730 q 465 793 496 793 z "},"1":{"ha":806,"x_min":102,"x_max":733,"o":"m 525 0 l 261 0 l 379 542 q 431 715 398 631 q 342 646 378 669 l 204 561 l 102 732 l 522 991 l 733 991 l 525 0 z "},"2":{"ha":806,"x_min":-39,"x_max":757,"o":"m 643 0 l -39 0 l -3 174 l 325 469 q 493 714 493 619 q 475 764 493 747 q 431 781 458 781 q 240 681 349 781 l 114 856 q 481 1006 273 1006 q 681 938 605 1006 q 757 755 757 871 q 698 562 757 652 q 496 349 639 472 l 357 229 l 357 221 l 689 221 l 643 0 z "},"3":{"ha":806,"x_min":9,"x_max":764,"o":"m 764 771 q 703 605 764 671 q 532 517 642 539 l 532 511 q 669 436 619 494 q 718 292 718 377 q 597 66 718 145 q 271 -14 477 -14 q 123 0 192 -14 q 9 40 54 14 l 9 265 q 265 197 123 197 q 405 229 359 197 q 452 319 452 260 q 433 374 452 356 q 375 401 415 393 q 262 410 335 410 l 205 410 l 241 607 l 294 607 q 450 638 394 607 q 505 725 505 670 q 481 775 505 756 q 414 794 456 794 q 231 737 334 794 l 123 905 q 289 983 209 960 q 464 1006 368 1006 q 682 943 600 1006 q 764 771 764 880 z "},"4":{"ha":806,"x_min":-7,"x_max":789,"o":"m 722 192 l 621 192 l 581 0 l 325 0 l 366 192 l -7 192 l 28 366 l 545 991 l 789 991 l 663 392 l 764 392 l 722 192 m 407 392 l 440 524 q 481 667 460 596 l 475 667 q 397 550 440 601 l 265 392 l 407 392 z "},"5":{"ha":806,"x_min":14,"x_max":799,"o":"m 444 650 q 643 570 567 650 q 720 355 720 490 q 610 82 720 178 q 294 -14 501 -14 q 129 1 207 -14 q 14 43 50 16 l 14 262 q 136 215 67 232 q 261 197 205 197 q 449 328 449 197 q 415 411 449 379 q 322 443 380 443 q 247 436 286 443 q 184 421 208 429 l 102 484 l 248 991 l 799 991 l 753 772 l 433 772 l 393 647 q 444 650 417 650 z "},"6":{"ha":806,"x_min":53,"x_max":817,"o":"m 659 1006 q 817 985 728 1006 l 774 779 q 650 796 709 796 q 489 773 551 796 q 386 700 427 750 q 314 547 346 649 l 319 547 q 528 663 391 663 q 693 593 636 663 q 750 390 750 523 q 704 179 750 271 q 570 36 657 86 q 368 -14 483 -14 q 134 71 216 -14 q 53 319 53 155 q 71 492 53 391 q 273 882 128 758 q 659 1006 418 1006 m 380 195 q 454 247 425 195 q 484 370 484 298 q 421 457 484 457 q 345 408 375 457 q 314 285 314 358 q 332 217 314 240 q 380 195 350 195 z "},"7":{"ha":806,"x_min":24,"x_max":867,"o":"m 24 0 l 510 770 l 121 770 l 168 991 l 867 991 l 832 835 l 328 0 l 24 0 z "},"8":{"ha":806,"x_min":33,"x_max":785,"o":"m 492 1007 q 706 944 627 1007 q 785 781 785 882 q 732 626 785 694 q 595 530 680 557 q 690 423 657 482 q 722 285 722 364 q 627 66 722 145 q 364 -14 531 -14 q 122 54 212 -14 q 33 229 33 121 q 258 513 33 433 q 153 722 153 595 q 194 869 153 804 q 312 970 235 934 q 492 1007 389 1007 m 396 412 q 281 261 281 351 q 306 201 281 224 q 371 178 330 178 q 447 206 418 178 q 476 281 476 235 q 396 412 476 359 m 479 815 q 423 788 447 815 q 399 722 399 762 q 415 670 399 696 q 457 631 431 644 q 520 679 496 646 q 543 749 543 712 q 524 799 543 782 q 479 815 505 815 z "},"9":{"ha":806,"x_min":72,"x_max":771,"o":"m 771 646 q 701 293 771 447 q 508 63 631 140 q 215 -14 384 -14 q 72 7 137 -14 l 72 220 q 210 195 134 195 q 407 254 336 195 q 505 444 478 313 l 500 444 q 410 353 460 380 q 296 326 361 326 q 134 401 193 326 q 74 602 74 475 q 118 812 74 721 q 247 955 163 903 q 449 1006 332 1006 q 688 912 605 1006 q 771 646 771 819 m 456 798 q 373 749 406 798 q 340 632 340 701 q 403 534 340 534 q 488 582 453 534 q 522 699 522 630 q 504 770 522 743 q 456 798 485 798 z "}," ":{"ha":361,"x_min":0,"x_max":0,"o":""},"!":{"ha":422,"x_min":8,"x_max":479,"o":"m 307 350 l 85 350 l 191 991 l 479 991 l 307 350 m 8 86 q 52 201 8 159 q 174 244 96 244 q 264 217 233 244 q 296 139 296 189 q 253 24 296 64 q 135 -17 210 -17 q 42 9 75 -17 q 8 86 8 35 z "},"\"":{"ha":631,"x_min":123,"x_max":704,"o":"m 404 991 l 297 633 l 123 633 l 172 991 l 404 991 m 704 991 l 597 633 l 422 633 l 472 991 l 704 991 z "},"#":{"ha":897,"x_min":9,"x_max":921,"o":"m 724 564 l 685 428 l 850 428 l 836 267 l 637 267 l 562 0 l 379 0 l 456 267 l 342 267 l 265 0 l 82 0 l 158 267 l 9 267 l 24 428 l 204 428 l 243 564 l 83 564 l 97 728 l 290 728 l 366 991 l 549 991 l 473 728 l 587 728 l 663 991 l 846 991 l 771 728 l 921 728 l 907 564 l 724 564 m 387 428 l 501 428 l 541 564 l 427 564 l 387 428 z "},"$":{"ha":806,"x_min":41,"x_max":798,"o":"m 724 326 q 633 130 724 205 q 389 45 543 54 l 363 -82 l 249 -82 l 277 47 q 41 110 127 58 l 41 321 q 196 262 127 281 q 334 244 265 244 q 452 315 452 244 q 430 365 452 342 q 335 421 408 387 q 190 530 241 463 q 139 684 139 596 q 230 879 139 803 q 472 965 320 955 l 492 1055 l 606 1055 l 585 962 q 798 901 694 952 l 703 718 q 503 766 595 766 q 432 747 458 766 q 407 701 407 728 q 433 641 407 665 q 541 576 460 616 q 680 471 635 530 q 724 326 724 412 z "},"%":{"ha":1274,"x_min":54,"x_max":1234,"o":"m 1105 991 l 372 0 l 171 0 l 909 991 l 1105 991 m 338 842 q 278 767 304 842 q 252 604 252 692 q 288 547 252 547 q 348 622 323 547 q 374 785 374 697 q 366 828 374 814 q 338 842 357 842 m 571 787 q 533 582 571 675 q 426 436 494 488 q 269 383 357 383 q 108 440 161 383 q 54 602 54 496 q 91 811 54 719 q 196 955 127 904 q 357 1006 264 1006 q 514 948 456 1006 q 571 787 571 890 m 1000 444 q 940 370 966 444 q 914 207 914 295 q 950 150 914 150 q 1011 225 985 150 q 1036 387 1036 300 q 1028 431 1036 417 q 1000 444 1020 444 m 1234 390 q 1196 185 1234 279 q 1088 39 1158 92 q 932 -14 1019 -14 q 770 43 824 -14 q 717 204 717 99 q 753 414 717 321 q 858 557 790 507 q 1019 608 926 608 q 1176 551 1119 608 q 1234 390 1234 493 z "},"&":{"ha":1018,"x_min":5,"x_max":1010,"o":"m 5 261 q 65 440 5 369 q 249 553 124 512 q 208 633 224 584 q 192 722 192 682 q 277 931 192 856 q 518 1007 363 1007 q 723 947 646 1007 q 800 787 800 888 q 746 629 800 699 q 568 496 692 559 l 656 370 q 707 447 680 394 q 750 557 734 500 l 1010 557 q 923 350 979 448 q 794 178 867 252 l 924 0 l 624 0 l 595 41 q 358 -14 490 -14 q 99 59 193 -14 q 5 261 5 131 m 505 828 q 451 805 472 828 q 431 741 431 781 q 465 643 431 689 q 537 697 514 664 q 561 770 561 730 q 546 811 561 793 q 505 828 531 828 m 387 195 q 481 212 439 195 l 350 401 q 271 288 271 366 q 303 220 271 245 q 387 195 335 195 z "},"'":{"ha":330,"x_min":123,"x_max":404,"o":"m 404 991 l 297 633 l 123 633 l 172 991 l 404 991 z "},"(":{"ha":519,"x_min":46,"x_max":612,"o":"m 46 221 q 131 641 46 445 q 393 1019 215 837 l 612 1019 q 352 629 436 829 q 268 210 268 429 q 290 -12 268 108 q 347 -220 312 -131 l 149 -220 q 75 -17 103 -138 q 46 221 46 104 m 488 1007 z "},")":{"ha":519,"x_min":-90,"x_max":471,"o":"m 471 579 q 387 153 471 348 q 131 -220 304 -41 l -90 -220 q 166 168 83 -32 q 249 590 249 368 q 227 809 249 692 q 168 1019 205 926 l 368 1019 q 444 817 416 935 q 471 579 471 699 m 285 1007 z "},"*":{"ha":753,"x_min":103,"x_max":787,"o":"m 616 1023 l 538 799 l 787 819 l 772 615 l 562 643 l 663 432 l 469 374 l 415 579 l 302 414 l 134 539 l 306 694 l 103 751 l 171 940 l 387 828 l 408 1065 l 616 1023 z "},"+":{"ha":786,"x_min":69,"x_max":730,"o":"m 309 397 l 69 397 l 69 582 l 309 582 l 309 821 l 492 821 l 492 582 l 730 582 l 730 397 l 492 397 l 492 161 l 309 161 l 309 397 z "},",":{"ha":425,"x_min":-71,"x_max":298,"o":"m 293 161 l 298 146 q 125 -179 220 -32 l -71 -179 q 29 83 -35 -97 l 57 161 l 293 161 z "},"-":{"ha":457,"x_min":16,"x_max":433,"o":"m 16 267 l 58 478 l 433 478 l 390 267 l 16 267 z "},".":{"ha":425,"x_min":0,"x_max":288,"o":"m 0 86 q 44 202 0 160 q 165 244 88 244 q 255 217 222 244 q 288 139 288 190 q 247 21 288 59 q 118 -17 206 -17 q 33 8 65 -17 q 0 86 0 33 z "},"/":{"ha":648,"x_min":-61,"x_max":741,"o":"m 741 1006 l 172 -14 l -61 -14 l 507 1006 l 741 1006 z "},":":{"ha":425,"x_min":0,"x_max":419,"o":"m 0 86 q 44 202 0 160 q 165 244 88 244 q 255 217 222 244 q 288 139 288 190 q 247 21 288 59 q 118 -17 206 -17 q 33 8 65 -17 q 0 86 0 33 m 132 621 q 176 736 132 695 q 296 778 220 778 q 385 752 351 778 q 419 673 419 727 q 379 555 419 593 q 250 517 339 517 q 164 542 197 517 q 132 621 132 568 z "},";":{"ha":425,"x_min":-79,"x_max":419,"o":"m 285 161 l 290 146 q 117 -179 212 -32 l -79 -179 q 21 83 -35 -79 l 49 161 l 285 161 m 132 621 q 176 736 132 695 q 296 778 220 778 q 385 752 351 778 q 419 673 419 727 q 379 555 419 593 q 250 517 339 517 q 164 542 197 517 q 132 621 132 568 z "},"<":{"ha":786,"x_min":60,"x_max":720,"o":"m 720 119 l 60 425 l 60 542 l 720 886 l 720 684 l 329 492 l 720 321 l 720 119 z "},"=":{"ha":786,"x_min":69,"x_max":730,"o":"m 69 525 l 69 705 l 730 705 l 730 525 l 69 525 m 69 271 l 69 454 l 730 454 l 730 271 l 69 271 z "},">":{"ha":786,"x_min":74,"x_max":733,"o":"m 74 321 l 464 492 l 74 684 l 74 886 l 733 542 l 733 425 l 74 119 l 74 321 z "},"?":{"ha":677,"x_min":110,"x_max":720,"o":"m 174 350 l 182 393 q 210 487 192 448 q 258 557 229 526 q 354 632 288 589 q 439 696 414 671 q 464 749 464 722 q 403 796 464 796 q 191 722 317 796 l 110 914 q 422 1006 267 1006 q 639 945 559 1006 q 720 777 720 884 q 701 671 720 716 q 647 589 682 625 q 532 504 612 553 q 435 436 464 463 q 397 379 406 409 l 387 350 l 174 350 m 119 86 q 163 201 119 159 q 285 244 208 244 q 375 217 344 244 q 407 139 407 189 q 364 24 407 64 q 245 -17 321 -17 q 153 9 186 -17 q 119 86 119 36 z "},"@":{"ha":1246,"x_min":56,"x_max":1203,"o":"m 1203 561 q 1156 348 1203 446 q 1026 195 1109 250 q 846 140 944 140 q 697 228 730 140 l 690 228 q 615 162 658 184 q 509 140 572 140 q 379 197 429 140 q 329 347 329 254 q 379 547 329 453 q 512 690 429 641 q 700 739 595 739 q 928 692 805 739 l 860 411 q 844 318 844 347 q 871 290 844 290 q 949 323 914 290 q 1005 417 985 356 q 1025 557 1025 478 q 934 775 1025 701 q 675 850 844 850 q 447 788 548 850 q 289 613 345 726 q 233 355 233 500 q 271 183 233 257 q 375 69 308 109 q 526 29 441 29 q 685 46 596 29 q 851 93 774 62 l 851 -60 q 700 -107 790 -89 q 529 -126 609 -126 q 280 -70 387 -126 q 114 93 172 -13 q 56 339 56 199 q 135 686 56 534 q 362 921 214 837 q 692 1006 511 1006 q 1068 888 932 1006 q 1203 561 1203 770 m 686 589 q 599 556 637 589 q 540 470 562 524 q 518 361 518 416 q 571 290 518 290 q 638 325 612 290 q 689 453 665 360 l 721 582 q 686 589 705 589 z "},"A":{"ha":939,"x_min":-82,"x_max":847,"o":"m 582 186 l 278 186 l 193 0 l -82 0 l 422 991 l 764 991 l 847 0 l 589 0 l 582 186 m 375 397 l 574 397 l 562 685 l 561 743 q 564 832 561 794 q 522 720 547 774 l 375 397 z "},"B":{"ha":880,"x_min":22,"x_max":861,"o":"m 232 991 l 562 991 q 785 936 709 991 q 861 775 861 880 q 660 519 861 580 l 660 514 q 755 445 720 494 q 790 325 790 396 q 687 85 790 170 q 393 0 583 0 l 22 0 l 232 991 m 416 611 l 465 611 q 555 637 525 611 q 586 720 586 663 q 500 789 586 789 l 457 789 l 416 611 m 376 415 l 332 207 l 387 207 q 485 240 446 207 q 524 322 524 273 q 501 392 524 369 q 422 415 479 415 l 376 415 z "},"C":{"ha":875,"x_min":71,"x_max":924,"o":"m 597 786 q 465 733 524 786 q 373 587 406 680 q 339 386 339 494 q 377 250 339 295 q 486 205 415 205 q 600 219 543 205 q 736 267 658 233 l 736 47 q 437 -14 598 -14 q 166 87 261 -14 q 71 372 71 188 q 139 703 71 553 q 327 930 208 854 q 597 1007 445 1007 q 924 918 777 1007 l 823 711 q 707 767 760 749 q 597 786 654 786 z "},"D":{"ha":950,"x_min":22,"x_max":907,"o":"m 907 616 q 840 287 907 427 q 645 74 772 148 q 342 0 517 0 l 22 0 l 232 991 l 514 991 q 804 893 701 991 q 907 616 907 795 m 382 220 q 515 267 456 220 q 606 402 574 315 q 639 603 639 490 q 602 731 639 688 q 500 775 566 775 l 452 775 l 335 220 l 382 220 z "},"E":{"ha":781,"x_min":22,"x_max":821,"o":"m 611 0 l 22 0 l 232 991 l 821 991 l 777 777 l 453 777 l 421 621 l 722 621 l 673 406 l 372 406 l 334 218 l 657 218 l 611 0 z "},"F":{"ha":790,"x_min":22,"x_max":817,"o":"m 288 0 l 22 0 l 232 991 l 817 991 l 771 777 l 452 777 l 412 587 l 708 587 l 661 371 l 364 371 l 288 0 z "},"G":{"ha":970,"x_min":71,"x_max":956,"o":"m 496 581 l 909 581 l 796 41 q 443 -14 627 -14 q 168 90 266 -14 q 71 382 71 193 q 145 709 71 563 q 350 931 220 854 q 652 1007 479 1007 q 956 935 832 1007 l 856 725 q 648 786 752 786 q 490 737 559 786 q 380 591 421 688 q 339 386 339 495 q 481 207 339 207 q 571 216 524 207 l 606 374 l 450 374 l 496 581 z "},"H":{"ha":991,"x_min":22,"x_max":999,"o":"m 789 0 l 524 0 l 608 404 l 374 404 l 288 0 l 22 0 l 232 991 l 497 991 l 421 624 l 657 624 l 733 991 l 999 991 l 789 0 z "},"J":{"ha":518,"x_min":-222,"x_max":524,"o":"m -78 -313 q -222 -293 -150 -313 l -222 -77 q -104 -93 -155 -93 q 5 -53 -32 -93 q 62 79 43 -13 l 258 991 l 524 991 l 321 46 q 244 -166 292 -90 q 120 -277 197 -242 q -78 -313 44 -313 z "},"K":{"ha":929,"x_min":22,"x_max":1032,"o":"m 842 0 l 545 0 l 427 392 l 361 354 l 288 0 l 22 0 l 232 991 l 497 991 l 406 568 l 431 608 q 519 741 491 705 l 721 991 l 1032 991 l 659 534 l 842 0 z "},"L":{"ha":732,"x_min":22,"x_max":657,"o":"m 22 0 l 232 991 l 497 991 l 334 216 l 657 216 l 611 0 l 22 0 z "},"M":{"ha":1263,"x_min":22,"x_max":1270,"o":"m 399 0 l 399 711 l 393 711 q 335 364 348 429 l 258 0 l 22 0 l 232 991 l 583 991 l 583 288 l 589 288 l 913 991 l 1270 991 l 1057 0 l 819 0 l 899 372 q 972 668 932 527 l 982 711 l 977 711 l 650 0 l 399 0 z "},"N":{"ha":1097,"x_min":22,"x_max":1104,"o":"m 895 0 l 586 0 l 390 697 l 385 697 q 346 414 365 500 l 258 0 l 22 0 l 232 991 l 541 991 l 734 325 l 741 325 q 779 576 760 485 l 868 991 l 1104 991 l 895 0 z "},"O":{"ha":1023,"x_min":71,"x_max":981,"o":"m 608 1007 q 883 906 785 1007 q 981 625 981 806 q 913 295 981 445 q 727 66 846 146 q 452 -14 608 -14 q 170 87 269 -14 q 71 368 71 189 q 140 699 71 548 q 331 928 210 849 q 608 1007 451 1007 m 713 623 q 680 744 713 700 q 586 787 648 787 q 463 730 519 787 q 373 574 406 673 q 339 370 339 474 q 475 205 339 205 q 594 262 539 205 q 681 414 650 318 q 713 623 713 509 z "},"P":{"ha":865,"x_min":22,"x_max":848,"o":"m 848 694 q 732 426 848 524 q 414 329 616 329 l 355 329 l 288 0 l 22 0 l 232 991 l 485 991 q 754 915 661 991 q 848 694 848 838 m 403 546 l 446 546 q 545 586 507 546 q 583 686 583 625 q 559 751 583 726 q 492 775 534 775 l 452 775 l 403 546 z "},"Q":{"ha":1023,"x_min":71,"x_max":981,"o":"m 612 1007 q 884 906 787 1007 q 981 625 981 804 q 903 280 981 435 q 693 50 826 125 l 854 -236 l 557 -236 l 447 -14 l 439 -14 q 167 88 264 -14 q 71 368 71 189 q 140 698 71 548 q 331 927 210 848 q 612 1007 453 1007 m 590 785 q 462 728 520 785 q 372 575 404 672 q 339 366 339 478 q 371 249 339 288 q 463 210 404 210 q 589 264 532 210 q 680 417 646 319 q 713 628 713 514 q 681 745 713 705 q 590 785 649 785 z "},"R":{"ha":903,"x_min":22,"x_max":847,"o":"m 364 361 l 288 0 l 22 0 l 232 991 l 494 991 q 756 924 665 991 q 847 720 847 856 q 799 535 847 614 q 656 415 751 456 l 808 65 l 835 0 l 546 0 l 414 361 l 364 361 m 407 562 l 441 562 q 544 599 506 562 q 582 703 582 636 q 558 767 582 745 q 490 789 535 789 l 454 789 l 407 562 z "},"S":{"ha":761,"x_min":29,"x_max":775,"o":"m 663 304 q 563 70 663 154 q 285 -14 463 -14 q 144 3 210 -14 q 29 52 77 20 l 29 289 q 160 229 86 253 q 293 204 233 204 q 369 225 343 204 q 395 285 395 246 q 387 319 395 303 q 363 351 378 335 q 283 421 349 367 q 168 551 204 485 q 132 697 132 618 q 177 857 132 786 q 302 967 221 928 q 484 1006 383 1006 q 775 933 646 1006 l 684 732 q 486 791 568 791 q 419 772 443 791 q 396 717 396 753 q 419 655 396 684 q 505 578 441 626 q 624 454 585 519 q 663 304 663 389 z "},"T":{"ha":766,"x_min":106,"x_max":850,"o":"m 425 0 l 160 0 l 321 772 l 106 772 l 153 991 l 850 991 l 802 772 l 586 772 l 425 0 z "},"U":{"ha":974,"x_min":85,"x_max":983,"o":"m 983 991 l 848 359 q 696 78 808 169 q 390 -14 583 -14 q 230 24 299 -14 q 122 128 160 61 q 85 278 85 195 q 93 366 85 321 l 228 991 l 493 991 l 361 372 q 351 294 351 326 q 433 208 351 208 q 533 252 497 208 q 589 386 570 296 l 718 991 l 983 991 z "},"V":{"ha":857,"x_min":102,"x_max":960,"o":"m 679 991 l 960 991 l 468 0 l 172 0 l 102 991 l 361 991 l 379 448 l 379 414 q 368 240 379 316 l 374 240 q 404 347 383 283 q 441 446 425 410 l 679 991 z "},"W":{"ha":1299,"x_min":103,"x_max":1417,"o":"m 330 240 l 357 311 l 421 468 l 648 991 l 876 991 l 876 454 q 859 240 876 349 q 949 475 865 259 l 1154 991 l 1417 991 l 986 0 l 673 0 l 673 420 q 682 640 673 526 q 602 404 660 550 l 431 0 l 136 0 l 103 991 l 354 991 l 347 494 q 330 240 343 313 z "},"X":{"ha":921,"x_min":-85,"x_max":1025,"o":"m 838 0 l 545 0 l 446 338 l 216 0 l -85 0 l 297 526 l 146 991 l 428 991 l 511 673 l 721 991 l 1025 991 l 660 500 l 838 0 z "},"Y":{"ha":839,"x_min":111,"x_max":953,"o":"m 446 624 l 657 991 l 953 991 l 538 385 l 456 0 l 191 0 l 272 385 l 111 991 l 385 991 l 446 624 z "},"Z":{"ha":749,"x_min":-62,"x_max":827,"o":"m 639 0 l -62 0 l -31 164 l 437 775 l 113 775 l 158 991 l 827 991 l 791 825 l 317 216 l 685 216 l 639 0 z "},"[":{"ha":500,"x_min":-36,"x_max":590,"o":"m 323 -233 l -36 -233 l 231 1019 l 590 1019 l 553 847 l 407 847 l 214 -61 l 359 -61 l 323 -233 m 333 1007 m 123 -220 z "},"\\":{"ha":648,"x_min":150,"x_max":528,"o":"m 359 1006 l 528 -14 l 311 -14 l 150 1006 l 359 1006 z "},"]":{"ha":500,"x_min":-90,"x_max":533,"o":"m -54 -61 l 90 -61 l 283 847 l 138 847 l 175 1019 l 533 1019 l 267 -233 l -90 -233 l -54 -61 m 361 1007 m 44 -220 z "},"^":{"ha":743,"x_min":-4,"x_max":733,"o":"m -4 340 l 424 991 l 541 991 l 733 340 l 547 340 l 441 726 l 197 340 l -4 340 z "},"_":{"ha":625,"x_min":-125,"x_max":545,"o":"m 505 -257 l -125 -257 l -86 -90 l 545 -90 l 505 -257 z "},"`":{"ha":770,"x_min":329,"x_max":661,"o":"m 661 842 l 501 842 q 398 949 446 892 q 329 1050 351 1006 l 329 1064 l 597 1064 q 661 859 617 958 l 661 842 z "},"a":{"ha":843,"x_min":57,"x_max":828,"o":"m 383 197 q 448 237 417 197 q 497 343 479 277 q 515 473 515 410 q 502 544 515 517 q 460 571 488 571 q 367 485 408 571 q 325 294 325 399 q 383 197 325 197 m 665 0 l 456 0 l 463 83 l 457 83 q 375 8 419 31 q 275 -14 331 -14 q 113 62 168 -14 q 57 279 57 138 q 106 527 57 401 q 232 718 156 653 q 399 782 307 782 q 499 756 456 782 q 576 673 543 731 l 582 673 l 618 768 l 828 768 l 665 0 z "},"b":{"ha":843,"x_min":16,"x_max":786,"o":"m 446 -14 q 347 8 389 -14 q 262 85 305 30 l 257 85 l 224 0 l 16 0 l 239 1055 l 501 1055 l 468 899 q 407 694 442 780 l 412 694 q 465 750 445 734 q 510 773 485 765 q 568 782 535 782 q 730 706 673 782 q 786 489 786 631 q 738 243 786 368 q 614 53 690 119 q 446 -14 538 -14 m 460 571 q 395 532 426 571 q 347 428 365 494 q 329 294 329 362 q 342 224 329 250 q 382 197 355 197 q 447 237 415 197 q 498 343 479 277 q 518 473 518 409 q 460 571 518 571 z "},"c":{"ha":700,"x_min":57,"x_max":717,"o":"m 343 -14 q 133 68 208 -14 q 57 300 57 150 q 109 547 57 436 q 255 720 161 658 q 468 782 349 782 q 717 728 600 782 l 633 533 q 481 574 543 574 q 403 541 439 574 q 344 444 367 509 q 321 317 321 379 q 341 226 321 255 q 406 197 361 197 q 500 213 454 197 q 597 256 546 229 l 597 47 q 483 2 543 18 q 343 -14 423 -14 z "},"d":{"ha":839,"x_min":57,"x_max":889,"o":"m 397 782 q 483 761 448 782 q 558 679 517 741 l 564 679 l 565 704 q 582 851 570 798 l 624 1055 l 889 1055 l 665 0 l 456 0 l 463 83 l 457 83 q 376 8 418 30 q 275 -14 333 -14 q 113 62 168 -14 q 57 279 57 138 q 105 526 57 400 q 230 716 154 651 q 397 782 306 782 m 383 197 q 448 237 417 197 q 497 343 479 277 q 515 473 515 410 q 461 571 515 571 q 396 531 428 571 q 345 426 364 491 q 325 294 325 360 q 383 197 325 197 z "},"e":{"ha":804,"x_min":57,"x_max":774,"o":"m 361 -14 q 137 67 217 -14 q 57 290 57 147 q 114 548 57 433 q 269 723 170 663 q 497 782 368 782 q 700 724 626 782 q 774 568 774 665 q 668 359 774 432 q 361 286 562 286 l 321 286 l 321 275 q 432 175 321 175 q 537 191 486 175 q 654 241 589 207 l 654 56 q 513 2 578 17 q 361 -14 447 -14 m 468 604 q 391 557 427 604 q 347 450 355 510 l 367 450 q 483 478 441 450 q 525 553 525 507 q 511 589 525 574 q 468 604 498 604 z "},"f":{"ha":570,"x_min":-142,"x_max":711,"o":"m -1 -334 q -142 -315 -76 -334 l -142 -110 q -62 -122 -99 -122 q 14 -102 -12 -122 q 49 -37 39 -81 l 178 571 l 65 571 l 94 700 l 222 765 l 233 815 q 333 1004 262 945 q 519 1063 403 1063 q 625 1052 574 1063 q 711 1023 675 1041 l 644 844 q 557 865 601 865 q 516 853 533 865 q 494 817 500 840 l 484 768 l 627 768 l 582 571 l 440 571 l 301 -79 q 197 -272 272 -210 q -1 -334 122 -334 z "},"g":{"ha":777,"x_min":-90,"x_max":838,"o":"m 838 768 l 810 628 l 701 593 q 708 529 708 566 q 620 320 708 399 q 390 240 532 240 q 306 249 338 240 q 283 234 292 241 q 273 214 273 227 q 349 174 273 184 l 441 161 q 611 99 559 144 q 663 -29 663 54 q 548 -254 663 -175 q 224 -334 434 -334 q -5 -282 80 -334 q -90 -140 -90 -231 q -44 -26 -90 -74 q 100 54 2 22 q 59 95 75 70 q 43 149 43 120 q 77 234 43 197 q 180 302 112 271 q 92 493 92 372 q 184 704 92 626 q 433 782 276 782 q 506 778 468 782 q 567 768 545 774 l 838 768 m 134 -103 q 249 -161 134 -161 q 378 -142 334 -161 q 422 -86 422 -122 q 400 -49 422 -62 q 322 -31 378 -37 l 244 -22 q 162 -51 191 -30 q 134 -103 134 -71 m 339 469 q 385 406 339 406 q 443 452 420 406 q 465 559 465 498 q 424 624 465 624 q 379 601 398 624 q 350 542 360 578 q 339 469 339 505 z "},"h":{"ha":864,"x_min":16,"x_max":799,"o":"m 433 0 l 521 419 q 533 515 533 472 q 518 559 533 545 q 482 574 503 574 q 357 375 397 574 l 278 0 l 16 0 l 239 1055 l 501 1055 l 465 886 q 406 694 441 779 l 411 694 q 596 782 479 782 q 745 724 692 782 q 799 564 799 666 q 782 408 799 492 l 696 0 l 433 0 z "},"i":{"ha":452,"x_min":16,"x_max":492,"o":"m 278 0 l 16 0 l 178 768 l 441 768 l 278 0 m 210 937 q 250 1043 210 1007 q 363 1079 290 1079 q 458 1054 425 1079 q 492 983 492 1029 q 452 879 492 916 q 339 842 413 842 q 210 937 210 842 z "},"j":{"ha":452,"x_min":-179,"x_max":497,"o":"m -39 -334 q -179 -315 -113 -334 l -179 -110 q -103 -122 -141 -122 q 16 -22 -7 -122 l 183 768 l 446 768 l 269 -64 q 163 -264 242 -195 q -39 -334 83 -334 m 215 937 q 255 1043 215 1007 q 368 1079 296 1079 q 464 1054 430 1079 q 497 983 497 1029 q 460 881 497 920 q 345 842 422 842 q 215 937 215 842 z "},"k":{"ha":857,"x_min":16,"x_max":932,"o":"m 236 1055 l 498 1055 l 404 606 q 358 454 393 553 l 364 454 q 468 590 421 541 l 632 768 l 932 768 l 599 421 l 785 0 l 488 0 l 393 265 l 325 229 l 278 0 l 16 0 l 236 1055 z "},"l":{"ha":452,"x_min":16,"x_max":501,"o":"m 278 0 l 16 0 l 239 1055 l 501 1055 l 278 0 z "},"m":{"ha":1286,"x_min":16,"x_max":1221,"o":"m 437 0 l 526 428 q 536 510 536 489 q 488 574 536 574 q 411 523 441 574 q 358 374 380 473 l 278 0 l 16 0 l 178 768 l 387 768 l 376 642 l 382 642 q 475 750 423 719 q 604 782 526 782 q 727 746 684 782 q 787 642 770 709 l 793 642 q 894 748 837 713 q 1026 782 951 782 q 1171 725 1122 782 q 1221 555 1221 667 q 1206 416 1221 490 l 1121 0 l 859 0 l 946 428 q 956 518 956 466 q 943 559 956 545 q 908 574 930 574 q 827 522 858 574 q 775 368 796 471 l 700 0 l 437 0 z "},"n":{"ha":864,"x_min":16,"x_max":799,"o":"m 533 515 q 518 559 533 545 q 482 574 503 574 q 411 526 444 574 q 357 375 378 477 l 278 0 l 16 0 l 178 768 l 387 768 l 379 661 l 385 661 q 472 754 422 726 q 596 782 523 782 q 745 724 692 782 q 799 564 799 666 q 782 408 799 492 l 696 0 l 433 0 l 521 419 q 533 515 533 472 z "},"o":{"ha":843,"x_min":57,"x_max":786,"o":"m 353 -14 q 134 63 211 -14 q 57 282 57 140 q 111 539 57 425 q 262 718 165 654 q 490 782 360 782 q 709 705 632 782 q 786 486 786 629 q 732 229 786 344 q 581 50 678 114 q 353 -14 483 -14 m 460 585 q 365 490 404 585 q 325 273 325 395 q 382 183 325 183 q 477 277 437 183 q 518 494 518 372 q 503 562 518 539 q 460 585 487 585 z "},"p":{"ha":843,"x_min":-56,"x_max":786,"o":"m 441 -14 q 285 85 345 -14 l 279 85 q 241 -167 271 -28 l 207 -334 l -56 -334 l 178 768 l 387 768 l 379 682 l 385 682 q 559 782 450 782 q 726 706 665 782 q 786 498 786 631 q 739 239 786 361 q 613 52 691 117 q 441 -14 534 -14 m 460 571 q 395 532 426 571 q 347 428 365 494 q 329 294 329 362 q 345 224 329 250 q 389 197 360 197 q 451 236 421 197 q 499 340 481 275 q 518 473 518 405 q 460 571 518 571 z "},"q":{"ha":843,"x_min":57,"x_max":828,"o":"m 397 782 q 496 760 458 782 q 576 673 534 737 l 582 673 l 618 768 l 828 768 l 595 -334 l 329 -334 l 375 -135 q 436 75 392 -56 l 431 75 q 353 6 393 25 q 262 -14 313 -14 q 155 21 202 -14 q 83 121 109 55 q 57 277 57 187 q 105 525 57 399 q 230 716 154 651 q 397 782 305 782 m 383 197 q 448 237 417 197 q 497 343 479 277 q 515 473 515 410 q 461 571 515 571 q 396 531 428 571 q 345 426 364 491 q 325 294 325 360 q 383 197 325 197 z "},"r":{"ha":607,"x_min":16,"x_max":665,"o":"m 611 782 q 665 777 649 782 l 608 517 q 525 532 572 532 q 413 484 455 532 q 350 338 372 436 l 278 0 l 16 0 l 178 768 l 387 768 l 375 640 l 380 640 q 476 749 425 716 q 611 782 528 782 z "},"s":{"ha":697,"x_min":21,"x_max":669,"o":"m 604 267 q 516 59 604 132 q 262 -14 428 -14 q 21 29 112 -14 l 21 240 q 137 193 83 206 q 245 179 191 179 q 315 192 292 179 q 338 227 338 204 q 320 268 338 250 q 232 325 302 285 q 127 415 160 364 q 94 539 94 466 q 176 719 94 656 q 410 782 258 782 q 548 764 486 782 q 669 710 610 747 l 587 539 q 495 586 543 568 q 412 603 447 603 q 361 557 361 603 q 382 522 361 537 q 452 484 404 507 q 604 267 604 408 z "},"t":{"ha":635,"x_min":43,"x_max":648,"o":"m 385 197 q 509 229 429 197 l 509 32 q 278 -14 416 -14 q 126 30 178 -14 q 74 171 74 73 q 90 298 74 222 l 147 571 l 43 571 l 71 700 l 218 760 l 311 922 l 486 922 l 453 768 l 648 768 l 606 571 l 410 571 l 353 311 q 342 240 342 259 q 385 197 342 197 z "},"u":{"ha":864,"x_min":65,"x_max":848,"o":"m 330 254 q 346 210 330 224 q 382 196 361 196 q 455 249 422 196 q 507 395 488 302 l 586 768 l 848 768 l 686 0 l 476 0 l 485 107 l 479 107 q 392 15 443 44 q 268 -14 342 -14 q 119 44 172 -14 q 65 204 65 102 q 82 359 65 276 l 168 768 l 431 768 l 343 350 q 330 254 330 294 z "},"v":{"ha":755,"x_min":60,"x_max":836,"o":"m 158 0 l 60 768 l 321 768 l 339 359 q 334 279 339 310 l 339 279 q 351 322 340 289 q 376 383 363 355 q 555 768 389 411 l 836 768 l 421 0 l 158 0 z "},"w":{"ha":1143,"x_min":69,"x_max":1221,"o":"m 570 0 l 583 304 q 591 446 585 354 q 606 595 597 538 l 600 595 q 518 330 559 437 l 390 0 l 114 0 l 69 768 l 317 768 l 317 421 q 311 245 317 298 l 317 245 q 376 446 348 366 l 493 768 l 783 768 l 770 446 q 747 245 764 358 l 753 245 q 763 278 758 260 q 796 373 769 295 q 960 768 823 450 l 1221 768 l 856 0 l 570 0 z "},"x":{"ha":786,"x_min":-81,"x_max":875,"o":"m 370 222 l 227 0 l -81 0 l 240 392 l 100 768 l 386 768 l 437 555 l 564 768 l 875 768 l 559 378 l 714 0 l 424 0 l 370 222 z "},"y":{"ha":755,"x_min":-87,"x_max":833,"o":"m 56 768 l 319 768 l 349 387 l 350 345 l 350 286 l 355 286 q 389 398 380 376 q 551 768 398 421 l 833 768 l 379 -97 q 228 -278 314 -222 q 17 -334 142 -334 q -87 -322 -45 -334 l -87 -114 q -14 -122 -56 -122 q 83 -97 45 -122 q 150 -20 121 -73 l 165 8 l 56 768 z "},"z":{"ha":673,"x_min":-28,"x_max":701,"o":"m 545 0 l -28 0 l 1 150 l 342 566 l 106 566 l 151 768 l 701 768 l 665 604 l 329 203 l 589 203 l 545 0 z "},"{":{"ha":498,"x_min":-11,"x_max":599,"o":"m 293 31 q 370 -29 293 -29 l 370 -220 l 314 -220 q 130 -173 190 -220 q 69 -32 69 -127 q 79 54 69 11 l 104 172 q 109 201 109 189 q 80 273 109 252 q -11 294 52 294 l 25 489 q 144 515 106 489 q 196 606 182 541 l 233 772 q 285 901 252 857 q 373 969 318 946 q 511 991 429 991 l 599 991 l 557 802 q 475 782 502 800 q 437 714 449 763 l 401 539 q 343 436 388 474 q 212 389 299 399 l 212 383 q 300 324 273 363 q 328 225 328 285 q 321 175 328 214 l 297 64 q 293 31 293 43 z "},"|":{"ha":786,"x_min":300,"x_max":484,"o":"m 300 1050 l 484 1050 l 484 -315 l 300 -315 l 300 1050 z "},"}":{"ha":498,"x_min":-83,"x_max":507,"o":"m -33 -220 l -83 -220 l -83 -29 q -9 -20 -34 -27 q 27 3 15 -13 q 47 58 39 18 l 83 233 q 143 338 98 300 q 272 383 189 375 l 272 389 q 157 547 157 426 q 164 597 157 555 l 187 708 q 192 742 192 728 q 100 802 192 802 l 136 991 l 178 991 q 353 944 292 991 q 415 806 415 896 q 406 718 415 759 l 380 600 q 376 571 376 583 q 407 503 376 526 q 507 479 437 479 l 468 285 q 344 257 386 285 q 289 167 302 230 l 252 0 q 158 -168 227 -116 q -33 -220 90 -220 z "},"~":{"ha":786,"x_min":65,"x_max":726,"o":"m 228 437 q 150 417 193 437 q 65 355 108 397 l 65 549 q 243 623 138 623 q 318 615 284 623 q 421 579 351 607 q 498 551 467 560 q 566 542 530 542 q 644 564 600 542 q 726 624 688 585 l 726 431 q 549 357 654 357 q 472 365 507 357 q 371 400 437 374 q 291 429 320 421 q 228 437 261 437 z "}," ":{"ha":361,"x_min":0,"x_max":0,"o":""},"¡":{"ha":422,"x_min":-74,"x_max":397,"o":"m 98 412 l 321 412 l 215 -229 l -74 -229 l 98 412 m 397 679 q 353 564 397 606 q 232 521 309 521 q 141 548 173 521 q 110 627 110 576 q 153 741 110 701 q 271 782 197 782 q 364 755 331 782 q 397 679 397 728 m 73 -220 z "},"¢":{"ha":806,"x_min":104,"x_max":764,"o":"m 408 -14 l 253 -14 l 288 127 q 104 397 104 178 q 200 743 104 605 q 452 905 295 882 l 473 1006 l 629 1006 l 607 904 q 764 852 690 891 l 681 659 q 594 691 627 684 q 528 699 561 699 q 450 665 485 699 q 393 566 414 631 q 371 425 371 500 q 392 348 371 372 q 453 325 413 325 q 548 342 502 325 q 644 386 594 359 l 644 175 q 436 114 546 122 l 408 -14 z "},"£":{"ha":806,"x_min":-12,"x_max":829,"o":"m 576 1006 q 696 993 637 1006 q 829 947 756 980 l 732 745 q 654 777 687 766 q 587 787 622 787 q 549 771 564 787 q 525 708 534 754 l 509 631 l 679 631 l 640 441 l 469 441 l 456 378 q 409 287 445 328 q 318 224 372 247 l 728 224 l 679 0 l -12 0 l 31 212 q 112 245 82 227 q 159 293 142 264 q 187 376 176 321 l 201 441 l 74 441 l 113 631 l 240 631 l 256 718 q 313 883 273 819 q 415 976 353 947 q 576 1006 477 1006 z "},"¤":{"ha":806,"x_min":72,"x_max":745,"o":"m 129 490 q 160 615 129 553 l 72 700 l 197 825 l 283 741 q 407 770 349 770 q 532 737 472 770 l 616 825 l 745 704 l 657 616 q 686 490 686 561 q 657 364 686 427 l 741 281 l 616 157 l 532 240 q 407 212 467 212 q 281 239 334 212 l 197 158 l 74 282 l 160 366 q 129 490 129 427 m 306 490 q 335 417 306 447 q 407 387 364 387 q 482 417 451 387 q 513 490 513 448 q 483 562 513 532 q 407 593 452 593 q 335 563 363 593 q 306 490 306 533 z "},"¥":{"ha":806,"x_min":52,"x_max":899,"o":"m 433 661 l 632 991 l 899 991 l 567 494 l 692 494 l 661 355 l 510 355 l 492 268 l 643 268 l 614 129 l 463 129 l 435 0 l 178 0 l 205 129 l 52 129 l 81 268 l 235 268 l 252 355 l 98 355 l 129 494 l 250 494 l 123 991 l 385 991 l 433 661 z "},"¦":{"ha":786,"x_min":301,"x_max":485,"o":"m 301 1048 l 485 1048 l 485 478 l 301 478 l 301 1048 m 301 268 l 485 268 l 485 -301 l 301 -301 l 301 268 z "},"§":{"ha":703,"x_min":25,"x_max":726,"o":"m 107 526 q 138 632 107 583 q 228 717 170 681 q 188 778 202 743 q 174 847 174 812 q 252 1013 174 956 q 482 1069 331 1069 q 726 1000 607 1069 l 659 848 q 550 902 597 888 q 460 917 504 917 q 402 902 419 917 q 385 867 385 886 q 394 830 385 844 q 426 801 404 817 q 486 768 448 786 q 652 557 652 692 q 626 441 652 490 q 538 357 600 392 q 572 295 559 331 q 585 221 585 260 q 498 44 585 106 q 256 -17 412 -17 q 122 0 181 -17 q 25 47 63 18 l 25 216 q 142 158 83 181 q 268 135 202 135 q 342 154 315 135 q 370 205 370 174 q 349 253 370 231 q 278 302 328 275 q 149 406 190 351 q 107 526 107 460 m 355 637 q 315 601 330 625 q 300 554 300 577 q 325 497 300 525 q 410 436 350 469 q 460 522 460 471 q 435 587 460 559 q 355 637 410 614 z "},"¨":{"ha":770,"x_min":228,"x_max":808,"o":"m 228 939 q 364 1065 228 1065 q 479 981 479 1065 q 343 852 479 852 q 256 873 283 852 q 228 939 228 895 m 558 939 q 694 1065 558 1065 q 808 981 808 1065 q 775 884 808 915 q 673 852 741 852 q 586 873 614 852 q 558 939 558 895 z "},"©":{"ha":1145,"x_min":77,"x_max":1096,"o":"m 619 659 q 534 617 565 659 q 503 496 503 576 q 532 370 503 409 q 624 332 562 332 q 799 378 718 332 l 799 221 q 614 178 713 178 q 391 262 469 178 q 313 498 313 347 q 390 730 313 648 q 607 812 467 812 q 832 757 720 812 l 770 618 q 619 659 692 659 m 77 496 q 145 752 77 633 q 332 939 214 871 q 586 1006 450 1006 q 840 938 722 1006 q 1027 751 959 870 q 1096 496 1096 633 q 1030 245 1096 362 q 846 57 964 127 q 586 -14 727 -14 q 328 56 446 -14 q 143 243 210 125 q 77 496 77 361 m 187 496 q 240 296 187 389 q 386 151 294 204 q 586 97 479 97 q 785 150 692 97 q 931 295 877 202 q 985 496 985 387 q 931 695 985 603 q 786 841 878 788 q 586 895 693 895 q 386 841 479 895 q 240 694 292 787 q 187 496 187 602 z "},"ª":{"ha":561,"x_min":94,"x_max":637,"o":"m 328 1000 q 403 987 371 1000 q 472 933 435 973 l 478 933 l 503 991 l 637 991 l 522 503 l 390 503 l 396 561 l 390 561 q 239 494 330 494 q 165 516 198 494 q 114 578 133 537 q 94 679 94 618 q 125 836 94 760 q 208 956 155 912 q 328 1000 261 1000 m 326 618 q 380 644 357 618 q 414 712 402 670 q 427 799 427 753 q 413 856 427 835 q 378 876 400 876 q 329 849 351 876 q 293 776 306 821 q 279 686 279 730 q 292 636 279 654 q 326 618 305 618 z "},"«":{"ha":865,"x_min":41,"x_max":876,"o":"m 41 382 l 318 733 l 497 595 l 317 368 l 392 144 l 165 52 l 41 375 l 41 382 m 412 401 l 700 737 l 876 595 l 688 387 l 771 144 l 545 52 l 412 395 l 412 401 z "},"¬":{"ha":786,"x_min":56,"x_max":717,"o":"m 717 582 l 717 161 l 533 161 l 533 397 l 56 397 l 56 582 l 717 582 z "},"­":{"ha":457,"x_min":16,"x_max":433,"o":"m 16 267 l 58 478 l 433 478 l 390 267 l 16 267 z "},"®":{"ha":1145,"x_min":77,"x_max":1096,"o":"m 844 623 q 814 519 844 561 q 720 453 784 477 l 863 212 l 669 212 l 561 429 l 553 429 l 553 212 l 363 212 l 363 806 l 559 806 q 774 758 705 806 q 844 623 844 710 m 553 549 l 559 549 q 633 564 612 549 q 653 615 653 578 q 629 663 653 652 q 558 673 605 673 l 553 673 l 553 549 m 77 496 q 145 752 77 633 q 332 939 214 871 q 586 1006 450 1006 q 840 938 722 1006 q 1027 751 959 870 q 1096 496 1096 633 q 1030 245 1096 362 q 846 57 964 127 q 586 -14 727 -14 q 328 56 446 -14 q 143 243 210 125 q 77 496 77 361 m 187 496 q 240 296 187 389 q 386 151 294 204 q 586 97 479 97 q 785 150 692 97 q 931 295 877 202 q 985 496 985 387 q 931 695 985 603 q 786 841 878 788 q 586 895 693 895 q 386 841 479 895 q 240 694 292 787 q 187 496 187 602 z "},"¯":{"ha":625,"x_min":124,"x_max":793,"o":"m 754 1054 l 124 1054 l 163 1221 l 793 1221 l 754 1054 z "},"°":{"ha":586,"x_min":113,"x_max":612,"o":"m 113 755 q 146 879 113 821 q 237 971 179 937 q 363 1006 296 1006 q 488 972 429 1006 q 579 879 546 938 q 612 755 612 821 q 579 631 612 689 q 487 541 545 574 q 363 509 429 509 q 237 542 296 509 q 146 632 179 575 q 113 755 113 689 m 273 755 q 300 695 273 721 q 363 669 327 669 q 425 695 398 669 q 452 755 452 721 q 426 819 452 791 q 363 846 399 846 q 299 819 326 846 q 273 755 273 792 z "},"±":{"ha":786,"x_min":69,"x_max":730,"o":"m 309 471 l 69 471 l 69 654 l 309 654 l 309 893 l 492 893 l 492 654 l 730 654 l 730 471 l 492 471 l 492 233 l 309 233 l 309 471 m 69 0 l 69 183 l 730 183 l 730 0 l 69 0 z "},"²":{"ha":575,"x_min":16,"x_max":572,"o":"m 493 396 l 16 396 l 45 534 l 232 677 q 330 762 305 734 q 354 812 354 789 q 311 847 354 847 q 254 835 288 847 q 183 793 220 823 l 103 922 q 220 986 160 966 q 367 1006 280 1006 q 515 964 458 1006 q 572 859 572 923 q 551 771 572 811 q 482 689 530 730 q 311 570 434 647 l 528 570 l 493 396 z "},"³":{"ha":575,"x_min":45,"x_max":557,"o":"m 557 863 q 519 764 557 801 q 400 707 481 726 l 400 701 q 488 654 463 686 q 513 578 513 623 q 442 439 513 492 q 256 386 372 386 q 135 397 184 386 q 45 433 87 408 l 45 586 q 134 544 87 557 q 218 530 180 530 q 321 585 321 530 q 244 631 321 631 l 163 631 l 192 762 l 257 762 q 335 777 305 762 q 364 822 364 791 q 349 851 364 841 q 313 861 334 861 q 187 817 259 861 l 119 940 q 229 990 176 975 q 351 1004 281 1004 q 500 966 444 1004 q 557 863 557 927 z "},"´":{"ha":770,"x_min":307,"x_max":796,"o":"m 307 857 q 498 1064 391 926 l 796 1064 l 796 1054 q 666 947 766 1017 q 500 842 567 878 l 307 842 l 307 857 z "},"µ":{"ha":873,"x_min":-56,"x_max":859,"o":"m 370 -14 q 281 39 300 -14 l 275 39 q 243 -167 269 -52 l 207 -334 l -56 -334 l 178 768 l 440 768 l 353 350 q 340 254 340 297 q 356 210 340 224 q 392 196 371 196 q 448 214 427 196 q 484 273 469 231 q 517 395 500 314 l 596 768 l 859 768 l 696 0 l 500 0 l 504 83 l 498 83 q 370 -14 452 -14 z "},"¶":{"ha":893,"x_min":69,"x_max":804,"o":"m 804 -176 l 675 -176 l 675 900 l 568 900 l 568 -176 l 439 -176 l 439 379 q 354 367 402 367 q 138 452 208 367 q 69 707 69 536 q 142 968 69 880 q 375 1055 215 1055 l 804 1055 l 804 -176 z "},"·":{"ha":425,"x_min":78,"x_max":366,"o":"m 78 464 q 122 578 78 536 q 243 621 166 621 q 332 593 298 621 q 366 515 366 566 q 321 398 366 436 q 200 359 277 359 q 110 387 142 359 q 78 464 78 414 z "},"¸":{"ha":260,"x_min":-150,"x_max":195,"o":"m 195 -160 q 139 -288 195 -242 q -20 -334 83 -334 q -150 -314 -98 -334 l -150 -175 q -97 -187 -130 -181 q -47 -193 -64 -193 q -1 -160 -1 -193 q -100 -92 -1 -111 l -49 0 l 90 0 l 74 -28 q 195 -160 195 -53 z "},"¹":{"ha":575,"x_min":78,"x_max":538,"o":"m 367 991 l 538 991 l 411 396 l 196 396 l 252 643 q 289 783 266 712 l 239 743 l 158 690 l 78 815 l 367 991 z "},"º":{"ha":554,"x_min":94,"x_max":593,"o":"m 408 802 q 400 848 408 832 q 371 864 393 864 q 305 814 330 864 q 279 689 279 765 q 317 632 279 632 q 382 680 357 632 q 408 802 408 728 m 593 802 q 558 641 593 711 q 457 532 524 571 q 300 493 390 493 q 148 544 202 493 q 94 681 94 595 q 173 914 94 825 q 389 1003 252 1003 q 539 949 486 1003 q 593 802 593 896 z "},"»":{"ha":865,"x_min":-9,"x_max":823,"o":"m 823 380 l 547 29 l 368 168 l 549 395 l 473 618 l 700 711 l 823 387 l 823 380 m 453 361 l 165 24 l -9 168 l 178 375 l 96 618 l 321 711 l 453 368 l 453 361 z "},"¼":{"ha":1350,"x_min":54,"x_max":1198,"o":"m 1166 83 l 1090 83 l 1072 -1 l 876 -1 l 895 83 l 625 83 l 646 203 l 978 595 l 1198 595 l 1118 217 l 1194 217 l 1166 83 m 922 217 q 972 403 964 379 q 982 433 979 427 q 958 400 973 420 q 812 217 943 379 l 922 217 m 1068 991 l 334 0 l 132 0 l 871 991 l 1068 991 m 342 991 l 513 991 l 387 396 l 172 396 l 227 643 q 264 783 241 712 l 214 743 l 134 690 l 54 815 l 342 991 z "},"½":{"ha":1350,"x_min":71,"x_max":1236,"o":"m 1157 -1 l 680 -1 l 709 138 l 896 281 q 994 365 969 337 q 1018 416 1018 393 q 975 450 1018 450 q 918 438 951 450 q 847 396 884 426 l 767 526 q 884 589 824 570 q 1031 609 944 609 q 1179 568 1122 609 q 1236 462 1236 526 q 1215 374 1236 414 q 1146 292 1194 334 q 975 173 1098 250 l 1192 173 l 1157 -1 m 359 991 l 530 991 l 404 396 l 189 396 l 244 643 q 281 783 258 712 l 231 743 l 151 690 l 71 815 l 359 991 m 1084 991 l 350 0 l 149 0 l 887 991 l 1084 991 z "},"¾":{"ha":1350,"x_min":132,"x_max":1230,"o":"m 1198 83 l 1122 83 l 1104 -1 l 908 -1 l 926 83 l 656 83 l 677 203 l 1010 595 l 1230 595 l 1149 217 l 1226 217 l 1198 83 m 954 217 q 1004 403 996 379 q 1014 433 1011 427 q 990 400 1005 420 q 844 217 975 379 l 954 217 m 644 863 q 607 764 644 801 q 488 707 569 726 l 488 701 q 575 654 550 686 q 600 578 600 623 q 530 439 600 492 q 343 386 459 386 q 223 397 271 386 q 132 433 174 408 l 132 586 q 221 544 175 557 q 306 530 268 530 q 408 585 408 530 q 332 631 408 631 l 250 631 l 279 762 l 345 762 q 422 777 393 762 q 452 822 452 791 q 437 851 452 841 q 400 861 422 861 q 275 817 347 861 l 207 940 q 316 990 263 975 q 439 1004 369 1004 q 588 966 532 1004 q 644 863 644 927 m 1182 991 l 448 0 l 246 0 l 985 991 l 1182 991 z "},"¿":{"ha":677,"x_min":-57,"x_max":553,"o":"m 489 415 l 481 372 q 452 277 471 317 q 402 207 433 238 q 309 134 372 175 q 223 69 248 94 q 199 17 199 44 q 214 -19 199 -8 q 260 -31 229 -31 q 472 43 344 -31 l 553 -149 q 240 -240 399 -240 q 23 -179 104 -240 q -57 -11 -57 -118 q -38 95 -57 50 q 14 175 -20 140 q 131 261 48 211 q 228 330 199 302 q 265 386 256 357 l 275 415 l 489 415 m 543 679 q 499 564 543 606 q 378 521 455 521 q 287 548 319 521 q 256 627 256 576 q 299 741 256 701 q 416 782 342 782 q 510 755 477 782 q 543 679 543 728 m 193 -220 z "},"À":{"ha":939,"x_min":-82,"x_max":847,"o":"m 582 186 l 278 186 l 193 0 l -82 0 l 422 991 l 764 991 l 847 0 l 589 0 l 582 186 m 375 397 l 574 397 l 562 685 l 561 743 q 564 832 561 794 q 522 720 547 774 l 375 397 m 706 1071 l 546 1071 q 443 1179 490 1122 q 374 1279 395 1236 l 374 1293 l 642 1293 q 706 1088 662 1187 l 706 1071 z "},"Á":{"ha":939,"x_min":-82,"x_max":970,"o":"m 582 186 l 278 186 l 193 0 l -82 0 l 422 991 l 764 991 l 847 0 l 589 0 l 582 186 m 375 397 l 574 397 l 562 685 l 561 743 q 564 832 561 794 q 522 720 547 774 l 375 397 m 481 1086 q 672 1293 564 1156 l 970 1293 l 970 1283 q 840 1177 939 1246 q 673 1071 741 1107 l 481 1071 l 481 1086 z "},"Â":{"ha":939,"x_min":-82,"x_max":905,"o":"m 582 186 l 278 186 l 193 0 l -82 0 l 422 991 l 764 991 l 847 0 l 589 0 l 582 186 m 375 397 l 574 397 l 562 685 l 561 743 q 564 832 561 794 q 522 720 547 774 l 375 397 m 905 1071 l 725 1071 q 619 1189 694 1099 q 456 1071 524 1114 l 271 1071 l 271 1086 q 386 1197 324 1135 q 480 1293 448 1258 l 783 1293 q 836 1192 801 1253 q 905 1086 871 1131 l 905 1071 z "},"Ã":{"ha":939,"x_min":-82,"x_max":925,"o":"m 582 186 l 278 186 l 193 0 l -82 0 l 422 991 l 764 991 l 847 0 l 589 0 l 582 186 m 375 397 l 574 397 l 562 685 l 561 743 q 564 832 561 794 q 522 720 547 774 l 375 397 m 707 1069 q 663 1075 685 1069 q 622 1090 642 1080 q 591 1105 602 1099 q 505 1136 541 1136 q 464 1118 484 1136 q 439 1068 444 1099 l 311 1068 q 385 1242 333 1185 q 524 1300 437 1300 q 564 1296 547 1300 q 628 1267 581 1291 q 673 1244 649 1255 q 718 1234 696 1234 q 796 1301 771 1234 l 925 1301 q 849 1127 902 1185 q 707 1069 795 1069 z "},"Ä":{"ha":939,"x_min":-82,"x_max":921,"o":"m 582 186 l 278 186 l 193 0 l -82 0 l 422 991 l 764 991 l 847 0 l 589 0 l 582 186 m 375 397 l 574 397 l 562 685 l 561 743 q 564 832 561 794 q 522 720 547 774 l 375 397 m 340 1168 q 477 1295 340 1295 q 592 1210 592 1295 q 456 1082 592 1082 q 368 1103 396 1082 q 340 1168 340 1124 m 671 1168 q 807 1295 671 1295 q 921 1210 921 1295 q 887 1113 921 1144 q 786 1082 854 1082 q 699 1103 726 1082 q 671 1168 671 1124 z "},"Å":{"ha":939,"x_min":-82,"x_max":847,"o":"m 582 186 l 278 186 l 193 0 l -82 0 l 422 991 l 764 991 l 847 0 l 589 0 l 582 186 m 375 397 l 574 397 l 562 685 l 561 743 q 564 832 561 794 q 522 720 547 774 l 375 397 m 777 1053 q 726 928 777 976 q 595 880 675 880 q 463 927 513 880 q 412 1051 412 973 q 462 1176 412 1128 q 595 1223 512 1223 q 726 1176 675 1223 q 777 1053 777 1128 m 654 1051 q 636 1093 654 1077 q 595 1109 618 1109 q 552 1093 570 1109 q 534 1051 534 1077 q 550 1010 534 1026 q 595 994 566 994 q 638 1011 621 994 q 654 1051 654 1028 z "},"Æ":{"ha":1314,"x_min":-85,"x_max":1354,"o":"m 1145 0 l 555 0 l 595 186 l 311 186 l 196 0 l -85 0 l 532 991 l 1354 991 l 1310 777 l 986 777 l 954 621 l 1255 621 l 1207 406 l 905 406 l 867 218 l 1190 218 l 1145 0 m 643 408 l 720 777 l 673 777 l 449 408 l 643 408 z "},"Ç":{"ha":875,"x_min":71,"x_max":924,"o":"m 597 786 q 465 733 524 786 q 373 587 406 680 q 339 386 339 494 q 377 250 339 295 q 486 205 415 205 q 600 219 543 205 q 736 267 658 233 l 736 47 q 437 -14 598 -14 q 166 87 261 -14 q 71 372 71 188 q 139 703 71 553 q 327 930 208 854 q 597 1007 445 1007 q 924 918 777 1007 l 823 711 q 707 767 760 749 q 597 786 654 786 m 551 -160 q 495 -288 551 -242 q 337 -334 439 -334 q 207 -314 259 -334 l 207 -175 q 260 -187 227 -181 q 309 -193 293 -193 q 355 -160 355 -193 q 257 -92 355 -111 l 308 0 l 447 0 l 431 -28 q 551 -160 551 -53 z "},"È":{"ha":781,"x_min":22,"x_max":821,"o":"m 611 0 l 22 0 l 232 991 l 821 991 l 777 777 l 453 777 l 421 621 l 722 621 l 673 406 l 372 406 l 334 218 l 657 218 l 611 0 m 633 1071 l 473 1071 q 370 1179 417 1122 q 300 1279 322 1236 l 300 1293 l 569 1293 q 633 1088 589 1187 l 633 1071 z "},"É":{"ha":781,"x_min":22,"x_max":881,"o":"m 611 0 l 22 0 l 232 991 l 821 991 l 777 777 l 453 777 l 421 621 l 722 621 l 673 406 l 372 406 l 334 218 l 657 218 l 611 0 m 392 1086 q 583 1293 475 1156 l 881 1293 l 881 1283 q 751 1177 850 1246 q 585 1071 652 1107 l 392 1071 l 392 1086 z "},"Ê":{"ha":781,"x_min":22,"x_max":840,"o":"m 611 0 l 22 0 l 232 991 l 821 991 l 777 777 l 453 777 l 421 621 l 722 621 l 673 406 l 372 406 l 334 218 l 657 218 l 611 0 m 840 1071 l 660 1071 q 554 1189 629 1099 q 391 1071 459 1114 l 205 1071 l 205 1086 q 321 1197 259 1135 q 415 1293 382 1258 l 718 1293 q 771 1192 736 1253 q 840 1086 806 1131 l 840 1071 z "},"Ë":{"ha":781,"x_min":22,"x_max":840,"o":"m 611 0 l 22 0 l 232 991 l 821 991 l 777 777 l 453 777 l 421 621 l 722 621 l 673 406 l 372 406 l 334 218 l 657 218 l 611 0 m 260 1168 q 396 1295 260 1295 q 511 1210 511 1295 q 375 1082 511 1082 q 288 1103 315 1082 q 260 1168 260 1124 m 590 1168 q 726 1295 590 1295 q 840 1210 840 1295 q 807 1113 840 1144 q 705 1082 773 1082 q 618 1103 646 1082 q 590 1168 590 1124 z "},"Ð":{"ha":950,"x_min":7,"x_max":907,"o":"m 54 599 l 149 599 l 232 991 l 524 991 q 807 894 707 991 q 907 616 907 797 q 762 161 907 322 q 357 0 618 0 l 22 0 l 103 382 l 7 382 l 54 599 m 382 220 q 516 268 457 220 q 607 407 575 317 q 639 611 639 496 q 602 732 639 690 q 500 775 566 775 l 452 775 l 414 599 l 534 599 l 488 382 l 368 382 l 335 220 l 382 220 z "},"Ñ":{"ha":1097,"x_min":22,"x_max":1104,"o":"m 895 0 l 586 0 l 390 697 l 385 697 q 346 414 365 500 l 258 0 l 22 0 l 232 991 l 541 991 l 734 325 l 741 325 q 779 576 760 485 l 868 991 l 1104 991 l 895 0 m 771 1069 q 727 1075 749 1069 q 686 1090 705 1080 q 654 1105 666 1099 q 568 1136 605 1136 q 527 1118 547 1136 q 503 1068 507 1099 l 375 1068 q 449 1242 397 1185 q 587 1300 500 1300 q 628 1296 610 1300 q 692 1267 645 1291 q 736 1244 713 1255 q 782 1234 760 1234 q 860 1301 835 1234 l 989 1301 q 912 1127 966 1185 q 771 1069 859 1069 z "},"Ò":{"ha":1023,"x_min":71,"x_max":981,"o":"m 608 1007 q 883 906 785 1007 q 981 625 981 806 q 913 295 981 445 q 727 66 846 146 q 452 -14 608 -14 q 170 87 269 -14 q 71 368 71 189 q 140 699 71 548 q 331 928 210 849 q 608 1007 451 1007 m 713 623 q 680 744 713 700 q 586 787 648 787 q 463 730 519 787 q 373 574 406 673 q 339 370 339 474 q 475 205 339 205 q 594 262 539 205 q 681 414 650 318 q 713 623 713 509 m 747 1071 l 587 1071 q 484 1179 532 1122 q 415 1279 437 1236 l 415 1293 l 684 1293 q 747 1088 703 1187 l 747 1071 z "},"Ó":{"ha":1023,"x_min":71,"x_max":981,"o":"m 608 1007 q 883 906 785 1007 q 981 625 981 806 q 913 295 981 445 q 727 66 846 146 q 452 -14 608 -14 q 170 87 269 -14 q 71 368 71 189 q 140 699 71 548 q 331 928 210 849 q 608 1007 451 1007 m 713 623 q 680 744 713 700 q 586 787 648 787 q 463 730 519 787 q 373 574 406 673 q 339 370 339 474 q 475 205 339 205 q 594 262 539 205 q 681 414 650 318 q 713 623 713 509 m 486 1086 q 677 1293 570 1156 l 975 1293 l 975 1283 q 845 1177 945 1246 q 679 1071 746 1107 l 486 1071 l 486 1086 z "},"Ô":{"ha":1023,"x_min":71,"x_max":981,"o":"m 608 1007 q 883 906 785 1007 q 981 625 981 806 q 913 295 981 445 q 727 66 846 146 q 452 -14 608 -14 q 170 87 269 -14 q 71 368 71 189 q 140 699 71 548 q 331 928 210 849 q 608 1007 451 1007 m 713 623 q 680 744 713 700 q 586 787 648 787 q 463 730 519 787 q 373 574 406 673 q 339 370 339 474 q 475 205 339 205 q 594 262 539 205 q 681 414 650 318 q 713 623 713 509 m 928 1071 l 747 1071 q 642 1189 716 1099 q 479 1071 547 1114 l 293 1071 l 293 1086 q 408 1197 347 1135 q 503 1293 470 1258 l 806 1293 q 859 1192 823 1253 q 928 1086 894 1131 l 928 1071 z "},"Õ":{"ha":1023,"x_min":71,"x_max":981,"o":"m 608 1007 q 883 906 785 1007 q 981 625 981 806 q 913 295 981 445 q 727 66 846 146 q 452 -14 608 -14 q 170 87 269 -14 q 71 368 71 189 q 140 699 71 548 q 331 928 210 849 q 608 1007 451 1007 m 713 623 q 680 744 713 700 q 586 787 648 787 q 463 730 519 787 q 373 574 406 673 q 339 370 339 474 q 475 205 339 205 q 594 262 539 205 q 681 414 650 318 q 713 623 713 509 m 728 1069 q 684 1075 705 1069 q 642 1090 662 1080 q 611 1105 623 1099 q 525 1136 562 1136 q 484 1118 504 1136 q 459 1068 464 1099 l 332 1068 q 405 1242 353 1185 q 544 1300 457 1300 q 584 1296 567 1300 q 648 1267 602 1291 q 693 1244 669 1255 q 739 1234 717 1234 q 817 1301 791 1234 l 945 1301 q 869 1127 922 1185 q 728 1069 816 1069 z "},"Ö":{"ha":1023,"x_min":71,"x_max":981,"o":"m 608 1007 q 883 906 785 1007 q 981 625 981 806 q 913 295 981 445 q 727 66 846 146 q 452 -14 608 -14 q 170 87 269 -14 q 71 368 71 189 q 140 699 71 548 q 331 928 210 849 q 608 1007 451 1007 m 713 623 q 680 744 713 700 q 586 787 648 787 q 463 730 519 787 q 373 574 406 673 q 339 370 339 474 q 475 205 339 205 q 594 262 539 205 q 681 414 650 318 q 713 623 713 509 m 347 1168 q 484 1295 347 1295 q 599 1210 599 1295 q 463 1082 599 1082 q 375 1103 403 1082 q 347 1168 347 1124 m 677 1168 q 814 1295 677 1295 q 928 1210 928 1295 q 894 1113 928 1144 q 793 1082 861 1082 q 705 1103 733 1082 q 677 1168 677 1124 z "},"×":{"ha":786,"x_min":69,"x_max":720,"o":"m 262 490 l 69 685 l 196 814 l 392 621 l 590 814 l 720 689 l 521 490 l 715 293 l 590 165 l 392 361 l 196 167 l 71 294 l 262 490 z "},"Ø":{"ha":1023,"x_min":64,"x_max":981,"o":"m 596 1007 q 810 958 720 1007 l 872 1036 l 978 956 l 911 871 q 981 625 981 774 q 914 299 981 450 q 730 67 847 149 q 464 -14 613 -14 q 244 33 334 -14 l 172 -58 l 64 21 l 143 119 q 71 368 71 215 q 139 697 71 546 q 326 927 208 848 q 596 1007 444 1007 m 339 366 l 656 765 q 578 787 625 787 q 459 732 514 787 q 372 580 404 676 q 339 372 339 484 l 339 366 m 475 205 q 594 261 539 205 q 681 412 649 316 q 713 621 713 507 l 397 225 q 475 205 429 205 z "},"Ù":{"ha":974,"x_min":85,"x_max":983,"o":"m 983 991 l 848 359 q 696 78 808 169 q 390 -14 583 -14 q 230 24 299 -14 q 122 128 160 61 q 85 278 85 195 q 93 366 85 321 l 228 991 l 493 991 l 361 372 q 351 294 351 326 q 433 208 351 208 q 533 252 497 208 q 589 386 570 296 l 718 991 l 983 991 m 709 1071 l 549 1071 q 446 1179 493 1122 q 376 1279 398 1236 l 376 1293 l 645 1293 q 709 1088 665 1187 l 709 1071 z "},"Ú":{"ha":974,"x_min":85,"x_max":983,"o":"m 983 991 l 848 359 q 696 78 808 169 q 390 -14 583 -14 q 230 24 299 -14 q 122 128 160 61 q 85 278 85 195 q 93 366 85 321 l 228 991 l 493 991 l 361 372 q 351 294 351 326 q 433 208 351 208 q 533 252 497 208 q 589 386 570 296 l 718 991 l 983 991 m 492 1086 q 683 1293 575 1156 l 981 1293 l 981 1283 q 851 1177 950 1246 q 684 1071 751 1107 l 492 1071 l 492 1086 z "},"Û":{"ha":974,"x_min":85,"x_max":983,"o":"m 983 991 l 848 359 q 696 78 808 169 q 390 -14 583 -14 q 230 24 299 -14 q 122 128 160 61 q 85 278 85 195 q 93 366 85 321 l 228 991 l 493 991 l 361 372 q 351 294 351 326 q 433 208 351 208 q 533 252 497 208 q 589 386 570 296 l 718 991 l 983 991 m 933 1071 l 753 1071 q 647 1189 722 1099 q 484 1071 552 1114 l 298 1071 l 298 1086 q 414 1197 352 1135 q 508 1293 475 1258 l 811 1293 q 864 1192 829 1253 q 933 1086 899 1131 l 933 1071 z "},"Ü":{"ha":974,"x_min":85,"x_max":983,"o":"m 983 991 l 848 359 q 696 78 808 169 q 390 -14 583 -14 q 230 24 299 -14 q 122 128 160 61 q 85 278 85 195 q 93 366 85 321 l 228 991 l 493 991 l 361 372 q 351 294 351 326 q 433 208 351 208 q 533 252 497 208 q 589 386 570 296 l 718 991 l 983 991 m 361 1168 q 498 1295 361 1295 q 613 1210 613 1295 q 477 1082 613 1082 q 389 1103 417 1082 q 361 1168 361 1124 m 692 1168 q 828 1295 692 1295 q 942 1210 942 1295 q 908 1113 942 1144 q 807 1082 875 1082 q 720 1103 747 1082 q 692 1168 692 1124 z "},"Ý":{"ha":839,"x_min":111,"x_max":953,"o":"m 446 624 l 657 991 l 953 991 l 538 385 l 456 0 l 191 0 l 272 385 l 111 991 l 385 991 l 446 624 m 417 1086 q 608 1293 500 1156 l 906 1293 l 906 1283 q 776 1177 876 1246 q 610 1071 677 1107 l 417 1071 l 417 1086 z "},"Þ":{"ha":865,"x_min":22,"x_max":819,"o":"m 232 991 l 497 991 l 467 848 q 728 771 637 848 q 819 550 819 694 q 704 283 819 380 q 385 186 588 186 l 326 186 l 288 0 l 22 0 l 232 991 m 374 403 l 416 403 q 517 436 480 403 q 554 542 554 469 q 526 607 554 581 q 453 632 498 632 l 422 632 l 374 403 z "},"ß":{"ha":990,"x_min":-176,"x_max":949,"o":"m -36 -334 q -176 -315 -111 -334 l -176 -110 q -97 -122 -134 -122 q -21 -102 -47 -122 q 14 -37 4 -81 l 179 743 q 316 987 215 912 q 599 1063 416 1063 q 856 996 764 1063 q 949 810 949 928 q 914 675 949 730 q 804 586 880 621 q 725 517 725 548 q 739 483 725 497 q 798 444 753 468 q 893 364 863 410 q 924 253 924 319 q 884 114 924 174 q 769 20 844 54 q 585 -14 693 -14 q 399 17 475 -14 l 399 220 q 491 189 439 200 q 582 178 544 178 q 641 193 622 178 q 660 227 660 208 q 647 263 660 248 q 570 319 633 277 q 484 395 510 357 q 457 484 457 433 q 486 586 457 546 q 597 671 514 625 q 665 722 646 698 q 685 777 685 747 q 657 837 685 816 q 578 857 629 857 q 488 823 525 857 q 437 724 451 789 l 267 -79 q 162 -272 237 -210 q -36 -334 87 -334 z "},"à":{"ha":843,"x_min":57,"x_max":828,"o":"m 383 197 q 448 237 417 197 q 497 343 479 277 q 515 473 515 410 q 502 544 515 517 q 460 571 488 571 q 367 485 408 571 q 325 294 325 399 q 383 197 325 197 m 665 0 l 456 0 l 463 83 l 457 83 q 375 8 419 31 q 275 -14 331 -14 q 113 62 168 -14 q 57 279 57 138 q 106 527 57 401 q 232 718 156 653 q 399 782 307 782 q 499 756 456 782 q 576 673 543 731 l 582 673 l 618 768 l 828 768 l 665 0 m 604 842 l 444 842 q 340 949 388 892 q 271 1050 293 1006 l 271 1064 l 540 1064 q 604 859 559 958 l 604 842 z "},"á":{"ha":843,"x_min":57,"x_max":849,"o":"m 383 197 q 448 237 417 197 q 497 343 479 277 q 515 473 515 410 q 502 544 515 517 q 460 571 488 571 q 367 485 408 571 q 325 294 325 399 q 383 197 325 197 m 665 0 l 456 0 l 463 83 l 457 83 q 375 8 419 31 q 275 -14 331 -14 q 113 62 168 -14 q 57 279 57 138 q 106 527 57 401 q 232 718 156 653 q 399 782 307 782 q 499 756 456 782 q 576 673 543 731 l 582 673 l 618 768 l 828 768 l 665 0 m 360 857 q 551 1064 444 926 l 849 1064 l 849 1054 q 719 947 819 1017 q 553 842 620 878 l 360 842 l 360 857 z "},"â":{"ha":843,"x_min":57,"x_max":828,"o":"m 383 197 q 448 237 417 197 q 497 343 479 277 q 515 473 515 410 q 502 544 515 517 q 460 571 488 571 q 367 485 408 571 q 325 294 325 399 q 383 197 325 197 m 665 0 l 456 0 l 463 83 l 457 83 q 375 8 419 31 q 275 -14 331 -14 q 113 62 168 -14 q 57 279 57 138 q 106 527 57 401 q 232 718 156 653 q 399 782 307 782 q 499 756 456 782 q 576 673 543 731 l 582 673 l 618 768 l 828 768 l 665 0 m 812 840 l 632 840 q 526 958 601 867 q 363 840 431 883 l 178 840 l 178 855 q 293 965 231 904 q 387 1062 355 1027 l 690 1062 q 743 961 708 1022 q 812 855 779 899 l 812 840 z "},"ã":{"ha":843,"x_min":57,"x_max":828,"o":"m 383 197 q 448 237 417 197 q 497 343 479 277 q 515 473 515 410 q 502 544 515 517 q 460 571 488 571 q 367 485 408 571 q 325 294 325 399 q 383 197 325 197 m 665 0 l 456 0 l 463 83 l 457 83 q 375 8 419 31 q 275 -14 331 -14 q 113 62 168 -14 q 57 279 57 138 q 106 527 57 401 q 232 718 156 653 q 399 782 307 782 q 499 756 456 782 q 576 673 543 731 l 582 673 l 618 768 l 828 768 l 665 0 m 600 840 q 556 846 578 840 q 515 861 534 851 q 484 876 495 870 q 397 907 434 907 q 356 888 376 907 q 332 839 336 870 l 204 839 q 278 1013 226 956 q 416 1071 330 1071 q 457 1066 439 1071 q 521 1038 474 1062 q 566 1015 542 1026 q 611 1004 589 1004 q 689 1072 664 1004 l 818 1072 q 742 898 795 956 q 600 840 688 840 z "},"ä":{"ha":843,"x_min":57,"x_max":828,"o":"m 383 197 q 448 237 417 197 q 497 343 479 277 q 515 473 515 410 q 502 544 515 517 q 460 571 488 571 q 367 485 408 571 q 325 294 325 399 q 383 197 325 197 m 665 0 l 456 0 l 463 83 l 457 83 q 375 8 419 31 q 275 -14 331 -14 q 113 62 168 -14 q 57 279 57 138 q 106 527 57 401 q 232 718 156 653 q 399 782 307 782 q 499 756 456 782 q 576 673 543 731 l 582 673 l 618 768 l 828 768 l 665 0 m 224 939 q 361 1065 224 1065 q 476 981 476 1065 q 340 852 476 852 q 252 873 280 852 q 224 939 224 895 m 555 939 q 691 1065 555 1065 q 805 981 805 1065 q 771 884 805 915 q 670 852 738 852 q 583 873 610 852 q 555 939 555 895 z "},"å":{"ha":843,"x_min":57,"x_max":828,"o":"m 383 197 q 448 237 417 197 q 497 343 479 277 q 515 473 515 410 q 502 544 515 517 q 460 571 488 571 q 367 485 408 571 q 325 294 325 399 q 383 197 325 197 m 665 0 l 456 0 l 463 83 l 457 83 q 375 8 419 31 q 275 -14 331 -14 q 113 62 168 -14 q 57 279 57 138 q 106 527 57 401 q 232 718 156 653 q 399 782 307 782 q 499 756 456 782 q 576 673 543 731 l 582 673 l 618 768 l 828 768 l 665 0 m 695 1011 q 645 887 695 935 q 513 839 594 839 q 381 885 431 839 q 331 1010 331 932 q 381 1135 331 1087 q 513 1182 431 1182 q 644 1134 593 1182 q 695 1011 695 1086 m 573 1010 q 555 1052 573 1036 q 513 1068 537 1068 q 471 1052 489 1068 q 453 1010 453 1036 q 469 969 453 985 q 513 953 485 953 q 556 970 540 953 q 573 1010 573 987 z "},"æ":{"ha":1213,"x_min":57,"x_max":1182,"o":"m 808 -14 q 631 62 687 -14 l 610 0 l 456 0 l 463 83 l 457 83 q 375 8 419 31 q 275 -14 331 -14 q 113 62 168 -14 q 57 279 57 138 q 106 527 57 401 q 232 718 156 653 q 399 782 307 782 q 502 756 461 782 q 576 673 543 730 l 582 673 l 618 768 l 758 768 l 758 704 q 848 762 798 742 q 947 782 899 782 q 1118 723 1054 782 q 1182 568 1182 665 q 1076 359 1182 432 q 770 286 969 286 l 729 286 l 729 275 q 840 175 729 175 q 945 191 894 175 q 1063 241 997 207 l 1063 56 q 939 1 996 16 q 808 -14 882 -14 m 383 197 q 474 281 435 197 q 514 473 514 364 q 498 544 514 517 q 454 571 483 571 q 391 532 421 571 q 343 427 361 493 q 325 294 325 361 q 383 197 325 197 m 876 604 q 799 557 835 604 q 755 450 763 510 l 775 450 q 891 478 849 450 q 933 553 933 507 q 920 589 933 574 q 876 604 906 604 z "},"ç":{"ha":700,"x_min":57,"x_max":717,"o":"m 343 -14 q 133 68 208 -14 q 57 300 57 150 q 109 547 57 436 q 255 720 161 658 q 468 782 349 782 q 717 728 600 782 l 633 533 q 481 574 543 574 q 403 541 439 574 q 344 444 367 509 q 321 317 321 379 q 341 226 321 255 q 406 197 361 197 q 500 213 454 197 q 597 256 546 229 l 597 47 q 483 2 543 18 q 343 -14 423 -14 m 464 -160 q 408 -288 464 -242 q 250 -334 352 -334 q 119 -314 172 -334 l 119 -175 q 173 -187 140 -181 q 222 -193 205 -193 q 268 -160 268 -193 q 170 -92 268 -111 l 220 0 l 359 0 l 343 -28 q 464 -160 464 -53 z "},"è":{"ha":804,"x_min":57,"x_max":774,"o":"m 361 -14 q 137 67 217 -14 q 57 290 57 147 q 114 548 57 433 q 269 723 170 663 q 497 782 368 782 q 700 724 626 782 q 774 568 774 665 q 668 359 774 432 q 361 286 562 286 l 321 286 l 321 275 q 432 175 321 175 q 537 191 486 175 q 654 241 589 207 l 654 56 q 513 2 578 17 q 361 -14 447 -14 m 468 604 q 391 557 427 604 q 347 450 355 510 l 367 450 q 483 478 441 450 q 525 553 525 507 q 511 589 525 574 q 468 604 498 604 m 623 842 l 463 842 q 360 949 408 892 q 291 1050 313 1006 l 291 1064 l 559 1064 q 623 859 579 958 l 623 842 z "},"é":{"ha":804,"x_min":57,"x_max":844,"o":"m 361 -14 q 137 67 217 -14 q 57 290 57 147 q 114 548 57 433 q 269 723 170 663 q 497 782 368 782 q 700 724 626 782 q 774 568 774 665 q 668 359 774 432 q 361 286 562 286 l 321 286 l 321 275 q 432 175 321 175 q 537 191 486 175 q 654 241 589 207 l 654 56 q 513 2 578 17 q 361 -14 447 -14 m 468 604 q 391 557 427 604 q 347 450 355 510 l 367 450 q 483 478 441 450 q 525 553 525 507 q 511 589 525 574 q 468 604 498 604 m 355 857 q 546 1064 438 926 l 844 1064 l 844 1054 q 714 947 813 1017 q 547 842 614 878 l 355 842 l 355 857 z "},"ê":{"ha":804,"x_min":57,"x_max":823,"o":"m 361 -14 q 137 67 217 -14 q 57 290 57 147 q 114 548 57 433 q 269 723 170 663 q 497 782 368 782 q 700 724 626 782 q 774 568 774 665 q 668 359 774 432 q 361 286 562 286 l 321 286 l 321 275 q 432 175 321 175 q 537 191 486 175 q 654 241 589 207 l 654 56 q 513 2 578 17 q 361 -14 447 -14 m 468 604 q 391 557 427 604 q 347 450 355 510 l 367 450 q 483 478 441 450 q 525 553 525 507 q 511 589 525 574 q 468 604 498 604 m 823 842 l 642 842 q 536 960 611 869 q 374 842 441 885 l 188 842 l 188 857 q 303 967 241 906 q 397 1064 365 1029 l 701 1064 q 753 963 718 1024 q 823 857 789 901 l 823 842 z "},"ë":{"ha":804,"x_min":57,"x_max":808,"o":"m 361 -14 q 137 67 217 -14 q 57 290 57 147 q 114 548 57 433 q 269 723 170 663 q 497 782 368 782 q 700 724 626 782 q 774 568 774 665 q 668 359 774 432 q 361 286 562 286 l 321 286 l 321 275 q 432 175 321 175 q 537 191 486 175 q 654 241 589 207 l 654 56 q 513 2 578 17 q 361 -14 447 -14 m 468 604 q 391 557 427 604 q 347 450 355 510 l 367 450 q 483 478 441 450 q 525 553 525 507 q 511 589 525 574 q 468 604 498 604 m 228 939 q 364 1065 228 1065 q 479 981 479 1065 q 343 852 479 852 q 256 873 283 852 q 228 939 228 895 m 558 939 q 694 1065 558 1065 q 808 981 808 1065 q 775 884 808 915 q 673 852 741 852 q 586 873 614 852 q 558 939 558 895 z "},"ì":{"ha":452,"x_min":16,"x_max":446,"o":"m 278 0 l 16 0 l 178 768 l 441 768 l 278 0 m 446 842 l 286 842 q 182 949 230 892 q 113 1050 135 1006 l 113 1064 l 382 1064 q 446 859 401 958 l 446 842 z "},"í":{"ha":452,"x_min":16,"x_max":688,"o":"m 278 0 l 16 0 l 178 768 l 441 768 l 278 0 m 199 857 q 391 1064 283 926 l 688 1064 l 688 1054 q 558 947 658 1017 q 392 842 459 878 l 199 842 l 199 857 z "},"î":{"ha":452,"x_min":-5,"x_max":630,"o":"m 278 0 l 16 0 l 178 768 l 441 768 l 278 0 m 630 842 l 450 842 q 344 960 418 869 q 181 842 249 885 l -5 842 l -5 857 q 111 967 49 906 q 205 1064 172 1029 l 508 1064 q 561 963 526 1024 q 630 857 596 901 l 630 842 z "},"ï":{"ha":452,"x_min":16,"x_max":642,"o":"m 278 0 l 16 0 l 178 768 l 441 768 l 278 0 m 62 939 q 198 1065 62 1065 q 313 981 313 1065 q 177 852 313 852 q 90 873 117 852 q 62 939 62 895 m 392 939 q 528 1065 392 1065 q 642 981 642 1065 q 609 884 642 915 q 507 852 575 852 q 420 873 448 852 q 392 939 392 895 z "},"ð":{"ha":783,"x_min":57,"x_max":781,"o":"m 393 895 q 329 945 374 911 l 407 1067 q 564 974 499 1025 l 725 1048 l 781 936 l 656 875 q 733 706 704 815 q 762 486 762 597 q 657 114 762 242 q 353 -14 553 -14 q 137 67 216 -14 q 57 289 57 148 q 99 496 57 404 q 220 637 142 587 q 401 688 299 688 q 539 628 490 688 l 546 631 q 485 798 533 727 l 300 711 l 244 825 l 393 895 m 376 176 q 439 207 412 176 q 483 287 467 237 q 498 387 498 338 q 486 468 498 439 q 441 497 473 497 q 353 429 387 497 q 319 277 319 360 q 376 176 319 176 z "},"ñ":{"ha":864,"x_min":16,"x_max":830,"o":"m 533 515 q 518 559 533 545 q 482 574 503 574 q 411 526 444 574 q 357 375 378 477 l 278 0 l 16 0 l 178 768 l 387 768 l 379 661 l 385 661 q 472 754 422 726 q 596 782 523 782 q 745 724 692 782 q 799 564 799 666 q 782 408 799 492 l 696 0 l 433 0 l 521 419 q 533 515 533 472 m 612 840 q 568 846 590 840 q 527 861 547 851 q 496 876 507 870 q 410 907 446 907 q 369 888 389 907 q 344 839 349 870 l 216 839 q 290 1013 238 956 q 429 1071 342 1071 q 469 1066 452 1071 q 533 1038 486 1062 q 578 1015 554 1026 q 623 1004 602 1004 q 701 1072 676 1004 l 830 1072 q 754 898 807 956 q 612 840 701 840 z "},"ò":{"ha":843,"x_min":57,"x_max":786,"o":"m 353 -14 q 134 63 211 -14 q 57 282 57 140 q 111 539 57 425 q 262 718 165 654 q 490 782 360 782 q 709 705 632 782 q 786 486 786 629 q 732 229 786 344 q 581 50 678 114 q 353 -14 483 -14 m 460 585 q 365 490 404 585 q 325 273 325 395 q 382 183 325 183 q 477 277 437 183 q 518 494 518 372 q 503 562 518 539 q 460 585 487 585 m 606 842 l 446 842 q 343 949 391 892 q 274 1050 296 1006 l 274 1064 l 543 1064 q 606 859 562 958 l 606 842 z "},"ó":{"ha":843,"x_min":57,"x_max":850,"o":"m 353 -14 q 134 63 211 -14 q 57 282 57 140 q 111 539 57 425 q 262 718 165 654 q 490 782 360 782 q 709 705 632 782 q 786 486 786 629 q 732 229 786 344 q 581 50 678 114 q 353 -14 483 -14 m 460 585 q 365 490 404 585 q 325 273 325 395 q 382 183 325 183 q 477 277 437 183 q 518 494 518 372 q 503 562 518 539 q 460 585 487 585 m 361 857 q 553 1064 445 926 l 850 1064 l 850 1054 q 721 947 820 1017 q 554 842 621 878 l 361 842 l 361 857 z "},"ô":{"ha":843,"x_min":57,"x_max":802,"o":"m 353 -14 q 134 63 211 -14 q 57 282 57 140 q 111 539 57 425 q 262 718 165 654 q 490 782 360 782 q 709 705 632 782 q 786 486 786 629 q 732 229 786 344 q 581 50 678 114 q 353 -14 483 -14 m 460 585 q 365 490 404 585 q 325 273 325 395 q 382 183 325 183 q 477 277 437 183 q 518 494 518 372 q 503 562 518 539 q 460 585 487 585 m 802 842 l 622 842 q 516 960 591 869 q 353 842 421 885 l 168 842 l 168 857 q 283 967 221 906 q 377 1064 345 1029 l 680 1064 q 733 963 698 1024 q 802 857 768 901 l 802 842 z "},"õ":{"ha":843,"x_min":57,"x_max":802,"o":"m 353 -14 q 134 63 211 -14 q 57 282 57 140 q 111 539 57 425 q 262 718 165 654 q 490 782 360 782 q 709 705 632 782 q 786 486 786 629 q 732 229 786 344 q 581 50 678 114 q 353 -14 483 -14 m 460 585 q 365 490 404 585 q 325 273 325 395 q 382 183 325 183 q 477 277 437 183 q 518 494 518 372 q 503 562 518 539 q 460 585 487 585 m 584 840 q 540 846 562 840 q 498 861 518 851 q 467 876 479 870 q 381 907 418 907 q 340 888 360 907 q 315 839 320 870 l 188 839 q 261 1013 210 956 q 400 1071 313 1071 q 440 1066 423 1071 q 505 1038 458 1062 q 549 1015 526 1026 q 595 1004 573 1004 q 673 1072 648 1004 l 802 1072 q 725 898 779 956 q 584 840 672 840 z "},"ö":{"ha":843,"x_min":57,"x_max":795,"o":"m 353 -14 q 134 63 211 -14 q 57 282 57 140 q 111 539 57 425 q 262 718 165 654 q 490 782 360 782 q 709 705 632 782 q 786 486 786 629 q 732 229 786 344 q 581 50 678 114 q 353 -14 483 -14 m 460 585 q 365 490 404 585 q 325 273 325 395 q 382 183 325 183 q 477 277 437 183 q 518 494 518 372 q 503 562 518 539 q 460 585 487 585 m 215 939 q 351 1065 215 1065 q 467 981 467 1065 q 330 852 467 852 q 243 873 271 852 q 215 939 215 895 m 545 939 q 682 1065 545 1065 q 795 981 795 1065 q 762 884 795 915 q 661 852 728 852 q 573 873 601 852 q 545 939 545 895 z "},"÷":{"ha":786,"x_min":69,"x_max":730,"o":"m 69 397 l 69 582 l 730 582 l 730 397 l 69 397 m 293 253 q 321 339 293 309 q 400 370 349 370 q 478 339 450 370 q 505 253 505 309 q 477 167 505 198 q 400 136 449 136 q 321 168 350 136 q 293 253 293 199 m 293 726 q 321 813 293 783 q 400 843 349 843 q 478 813 450 843 q 505 726 505 783 q 477 641 505 671 q 400 610 449 610 q 321 641 350 610 q 293 726 293 672 z "},"ø":{"ha":872,"x_min":45,"x_max":831,"o":"m 372 -14 q 211 20 286 -14 l 131 -75 l 45 -1 l 121 87 q 57 282 57 167 q 112 538 57 422 q 269 718 168 654 q 504 782 370 782 q 673 743 596 782 l 745 825 l 831 751 l 760 668 q 815 486 815 591 q 760 230 815 345 q 605 51 705 115 q 372 -14 505 -14 m 476 595 q 391 557 431 595 q 329 454 352 520 q 304 306 306 387 l 532 575 q 476 595 508 595 m 400 176 q 517 245 473 176 q 567 440 561 314 l 351 186 q 400 176 371 176 z "},"ù":{"ha":864,"x_min":65,"x_max":848,"o":"m 330 254 q 346 210 330 224 q 382 196 361 196 q 455 249 422 196 q 507 395 488 302 l 586 768 l 848 768 l 686 0 l 476 0 l 485 107 l 479 107 q 392 15 443 44 q 268 -14 342 -14 q 119 44 172 -14 q 65 204 65 102 q 82 359 65 276 l 168 768 l 431 768 l 343 350 q 330 254 330 294 m 612 842 l 452 842 q 349 949 396 892 q 279 1050 301 1006 l 279 1064 l 548 1064 q 612 859 568 958 l 612 842 z "},"ú":{"ha":864,"x_min":65,"x_max":885,"o":"m 330 254 q 346 210 330 224 q 382 196 361 196 q 455 249 422 196 q 507 395 488 302 l 586 768 l 848 768 l 686 0 l 476 0 l 485 107 l 479 107 q 392 15 443 44 q 268 -14 342 -14 q 119 44 172 -14 q 65 204 65 102 q 82 359 65 276 l 168 768 l 431 768 l 343 350 q 330 254 330 294 m 396 857 q 587 1064 479 926 l 885 1064 l 885 1054 q 755 947 854 1017 q 589 842 656 878 l 396 842 l 396 857 z "},"û":{"ha":864,"x_min":65,"x_max":848,"o":"m 330 254 q 346 210 330 224 q 382 196 361 196 q 455 249 422 196 q 507 395 488 302 l 586 768 l 848 768 l 686 0 l 476 0 l 485 107 l 479 107 q 392 15 443 44 q 268 -14 342 -14 q 119 44 172 -14 q 65 204 65 102 q 82 359 65 276 l 168 768 l 431 768 l 343 350 q 330 254 330 294 m 828 842 l 648 842 q 542 960 616 869 q 379 842 447 885 l 193 842 l 193 857 q 309 967 247 906 q 403 1064 370 1029 l 706 1064 q 759 963 724 1024 q 828 857 794 901 l 828 842 z "},"ü":{"ha":864,"x_min":65,"x_max":848,"o":"m 330 254 q 346 210 330 224 q 382 196 361 196 q 455 249 422 196 q 507 395 488 302 l 586 768 l 848 768 l 686 0 l 476 0 l 485 107 l 479 107 q 392 15 443 44 q 268 -14 342 -14 q 119 44 172 -14 q 65 204 65 102 q 82 359 65 276 l 168 768 l 431 768 l 343 350 q 330 254 330 294 m 252 939 q 388 1065 252 1065 q 503 981 503 1065 q 367 852 503 852 q 279 873 307 852 q 252 939 252 895 m 582 939 q 718 1065 582 1065 q 832 981 832 1065 q 799 884 832 915 q 697 852 765 852 q 610 873 637 852 q 582 939 582 895 z "},"ý":{"ha":755,"x_min":-87,"x_max":833,"o":"m 56 768 l 319 768 l 349 387 l 350 345 l 350 286 l 355 286 q 389 398 380 376 q 551 768 398 421 l 833 768 l 379 -97 q 228 -278 314 -222 q 17 -334 142 -334 q -87 -322 -45 -334 l -87 -114 q -14 -122 -56 -122 q 83 -97 45 -122 q 150 -20 121 -73 l 165 8 l 56 768 m 334 857 q 525 1064 417 926 l 823 1064 l 823 1054 q 693 947 792 1017 q 526 842 593 878 l 334 842 l 334 857 z "},"þ":{"ha":843,"x_min":-56,"x_max":786,"o":"m 460 571 q 395 532 426 571 q 347 428 365 494 q 329 294 329 362 q 345 224 329 250 q 389 197 360 197 q 451 236 421 197 q 499 340 481 275 q 518 473 518 405 q 460 571 518 571 m 567 782 q 728 706 669 782 q 786 498 786 630 q 739 239 786 361 q 613 52 691 117 q 441 -14 534 -14 q 285 85 345 -14 l 279 85 q 241 -167 271 -28 l 207 -334 l -56 -334 l 239 1055 l 501 1055 l 468 899 q 407 694 442 780 l 412 694 q 478 758 442 734 q 567 782 513 782 z "},"ÿ":{"ha":755,"x_min":-87,"x_max":833,"o":"m 56 768 l 319 768 l 349 387 l 350 345 l 350 286 l 355 286 q 389 398 380 376 q 551 768 398 421 l 833 768 l 379 -97 q 228 -278 314 -222 q 17 -334 142 -334 q -87 -322 -45 -334 l -87 -114 q -14 -122 -56 -122 q 83 -97 45 -122 q 150 -20 121 -73 l 165 8 l 56 768 m 176 939 q 312 1065 176 1065 q 427 981 427 1065 q 291 852 427 852 q 203 873 231 852 q 176 939 176 895 m 506 939 q 642 1065 506 1065 q 756 981 756 1065 q 723 884 756 915 q 621 852 689 852 q 534 873 562 852 q 506 939 506 895 z "},"Ā":{"ha":939,"x_min":-82,"x_max":858,"o":"m 582 186 l 278 186 l 193 0 l -82 0 l 422 991 l 764 991 l 847 0 l 589 0 l 582 186 m 375 397 l 574 397 l 562 685 l 561 743 q 564 832 561 794 q 522 720 547 774 l 375 397 m 407 1231 l 858 1231 l 825 1071 l 372 1071 l 407 1231 z "},"ā":{"ha":843,"x_min":57,"x_max":828,"o":"m 383 197 q 448 237 417 197 q 497 343 479 277 q 515 473 515 410 q 502 544 515 517 q 460 571 488 571 q 367 485 408 571 q 325 294 325 399 q 383 197 325 197 m 665 0 l 456 0 l 463 83 l 457 83 q 375 8 419 31 q 275 -14 331 -14 q 113 62 168 -14 q 57 279 57 138 q 106 527 57 401 q 232 718 156 653 q 399 782 307 782 q 499 756 456 782 q 576 673 543 731 l 582 673 l 618 768 l 828 768 l 665 0 m 310 1002 l 761 1002 l 728 842 l 275 842 l 310 1002 z "},"Ă":{"ha":939,"x_min":-82,"x_max":901,"o":"m 582 186 l 278 186 l 193 0 l -82 0 l 422 991 l 764 991 l 847 0 l 589 0 l 582 186 m 375 397 l 574 397 l 562 685 l 561 743 q 564 832 561 794 q 522 720 547 774 l 375 397 m 901 1322 q 804 1133 880 1195 q 593 1071 728 1071 q 416 1127 480 1071 q 351 1284 351 1184 q 357 1322 351 1310 l 505 1322 q 535 1257 505 1278 q 615 1235 565 1235 q 705 1257 673 1235 q 751 1322 737 1279 l 901 1322 z "},"ă":{"ha":843,"x_min":57,"x_max":828,"o":"m 383 197 q 448 237 417 197 q 497 343 479 277 q 515 473 515 410 q 502 544 515 517 q 460 571 488 571 q 367 485 408 571 q 325 294 325 399 q 383 197 325 197 m 665 0 l 456 0 l 463 83 l 457 83 q 375 8 419 31 q 275 -14 331 -14 q 113 62 168 -14 q 57 279 57 138 q 106 527 57 401 q 232 718 156 653 q 399 782 307 782 q 499 756 456 782 q 576 673 543 731 l 582 673 l 618 768 l 828 768 l 665 0 m 799 1093 q 702 904 778 966 q 491 842 626 842 q 313 898 378 842 q 249 1055 249 955 q 255 1093 249 1081 l 402 1093 q 432 1027 402 1049 q 513 1006 463 1006 q 603 1028 570 1006 q 649 1093 635 1050 l 799 1093 z "},"Ą":{"ha":939,"x_min":-82,"x_max":847,"o":"m 582 186 l 278 186 l 193 0 l -82 0 l 422 991 l 764 991 l 847 0 l 589 0 l 582 186 m 375 397 l 574 397 l 562 685 l 561 743 q 564 832 561 794 q 522 720 547 774 l 375 397 m 844 0 q 757 -77 778 -54 q 725 -122 736 -100 q 714 -167 714 -144 q 723 -191 714 -180 q 750 -201 732 -201 q 829 -184 782 -201 l 829 -335 q 694 -355 766 -355 q 572 -315 618 -355 q 526 -210 526 -274 q 559 -101 526 -151 q 673 0 593 -52 l 844 0 z "},"ą":{"ha":843,"x_min":57,"x_max":828,"o":"m 383 197 q 448 237 417 197 q 497 343 479 277 q 515 473 515 410 q 502 544 515 517 q 460 571 488 571 q 367 485 408 571 q 325 294 325 399 q 383 197 325 197 m 665 0 l 456 0 l 463 83 l 457 83 q 375 8 419 31 q 275 -14 331 -14 q 113 62 168 -14 q 57 279 57 138 q 106 527 57 401 q 232 718 156 653 q 399 782 307 782 q 499 756 456 782 q 576 673 543 731 l 582 673 l 618 768 l 828 768 l 665 0 m 657 0 q 571 -77 591 -54 q 539 -122 550 -100 q 528 -167 528 -144 q 537 -191 528 -180 q 564 -201 546 -201 q 643 -184 595 -201 l 643 -335 q 508 -355 579 -355 q 385 -315 431 -355 q 339 -210 339 -274 q 373 -101 339 -151 q 486 0 407 -52 l 657 0 z "},"Ć":{"ha":875,"x_min":71,"x_max":939,"o":"m 597 786 q 465 733 524 786 q 373 587 406 680 q 339 386 339 494 q 377 250 339 295 q 486 205 415 205 q 600 219 543 205 q 736 267 658 233 l 736 47 q 437 -14 598 -14 q 166 87 261 -14 q 71 372 71 188 q 139 703 71 553 q 327 930 208 854 q 597 1007 445 1007 q 924 918 777 1007 l 823 711 q 707 767 760 749 q 597 786 654 786 m 450 1086 q 642 1293 534 1156 l 939 1293 l 939 1283 q 809 1177 909 1246 q 643 1071 710 1107 l 450 1071 l 450 1086 z "},"ć":{"ha":700,"x_min":57,"x_max":828,"o":"m 343 -14 q 133 68 208 -14 q 57 300 57 150 q 109 547 57 436 q 255 720 161 658 q 468 782 349 782 q 717 728 600 782 l 633 533 q 481 574 543 574 q 403 541 439 574 q 344 444 367 509 q 321 317 321 379 q 341 226 321 255 q 406 197 361 197 q 500 213 454 197 q 597 256 546 229 l 597 47 q 483 2 543 18 q 343 -14 423 -14 m 339 857 q 530 1064 422 926 l 828 1064 l 828 1054 q 698 947 798 1017 q 532 842 599 878 l 339 842 l 339 857 z "},"Ĉ":{"ha":875,"x_min":71,"x_max":926,"o":"m 597 786 q 465 733 524 786 q 373 587 406 680 q 339 386 339 494 q 377 250 339 295 q 486 205 415 205 q 600 219 543 205 q 736 267 658 233 l 736 47 q 437 -14 598 -14 q 166 87 261 -14 q 71 372 71 188 q 139 703 71 553 q 327 930 208 854 q 597 1007 445 1007 q 924 918 777 1007 l 823 711 q 707 767 760 749 q 597 786 654 786 m 926 1071 l 746 1071 q 640 1189 715 1099 q 477 1071 545 1114 l 292 1071 l 292 1086 q 407 1197 345 1135 q 501 1293 469 1258 l 804 1293 q 857 1192 822 1253 q 926 1086 892 1131 l 926 1071 z "},"ĉ":{"ha":700,"x_min":57,"x_max":791,"o":"m 343 -14 q 133 68 208 -14 q 57 300 57 150 q 109 547 57 436 q 255 720 161 658 q 468 782 349 782 q 717 728 600 782 l 633 533 q 481 574 543 574 q 403 541 439 574 q 344 444 367 509 q 321 317 321 379 q 341 226 321 255 q 406 197 361 197 q 500 213 454 197 q 597 256 546 229 l 597 47 q 483 2 543 18 q 343 -14 423 -14 m 791 842 l 610 842 q 505 960 579 869 q 342 842 410 885 l 156 842 l 156 857 q 271 967 210 906 q 366 1064 333 1029 l 669 1064 q 722 963 686 1024 q 791 857 757 901 l 791 842 z "},"Ċ":{"ha":875,"x_min":71,"x_max":924,"o":"m 597 786 q 465 733 524 786 q 373 587 406 680 q 339 386 339 494 q 377 250 339 295 q 486 205 415 205 q 600 219 543 205 q 736 267 658 233 l 736 47 q 437 -14 598 -14 q 166 87 261 -14 q 71 372 71 188 q 139 703 71 553 q 327 930 208 854 q 597 1007 445 1007 q 924 918 777 1007 l 823 711 q 707 767 760 749 q 597 786 654 786 m 503 1166 q 657 1308 503 1308 q 754 1283 722 1308 q 786 1213 786 1259 q 632 1071 786 1071 q 533 1095 564 1071 q 503 1166 503 1119 z "},"ċ":{"ha":700,"x_min":57,"x_max":717,"o":"m 343 -14 q 133 68 208 -14 q 57 300 57 150 q 109 547 57 436 q 255 720 161 658 q 468 782 349 782 q 717 728 600 782 l 633 533 q 481 574 543 574 q 403 541 439 574 q 344 444 367 509 q 321 317 321 379 q 341 226 321 255 q 406 197 361 197 q 500 213 454 197 q 597 256 546 229 l 597 47 q 483 2 543 18 q 343 -14 423 -14 m 326 937 q 481 1079 326 1079 q 577 1054 545 1079 q 610 983 610 1029 q 456 842 610 842 q 357 866 388 842 q 326 937 326 890 z "},"Č":{"ha":875,"x_min":71,"x_max":932,"o":"m 597 786 q 465 733 524 786 q 373 587 406 680 q 339 386 339 494 q 377 250 339 295 q 486 205 415 205 q 600 219 543 205 q 736 267 658 233 l 736 47 q 437 -14 598 -14 q 166 87 261 -14 q 71 372 71 188 q 139 703 71 553 q 327 930 208 854 q 597 1007 445 1007 q 924 918 777 1007 l 823 711 q 707 767 760 749 q 597 786 654 786 m 298 1293 l 478 1293 q 583 1175 507 1267 q 746 1293 678 1250 l 932 1293 l 932 1278 q 722 1071 840 1200 l 420 1071 q 360 1182 399 1119 q 298 1278 322 1246 l 298 1293 z "},"č":{"ha":700,"x_min":57,"x_max":804,"o":"m 343 -14 q 133 68 208 -14 q 57 300 57 150 q 109 547 57 436 q 255 720 161 658 q 468 782 349 782 q 717 728 600 782 l 633 533 q 481 574 543 574 q 403 541 439 574 q 344 444 367 509 q 321 317 321 379 q 341 226 321 255 q 406 197 361 197 q 500 213 454 197 q 597 256 546 229 l 597 47 q 483 2 543 18 q 343 -14 423 -14 m 170 1064 l 351 1064 q 456 946 380 1038 q 618 1064 551 1021 l 804 1064 l 804 1048 q 595 842 713 971 l 292 842 q 233 953 271 890 q 170 1048 195 1017 l 170 1064 z "},"Ď":{"ha":950,"x_min":22,"x_max":913,"o":"m 907 616 q 840 287 907 427 q 645 74 772 148 q 342 0 517 0 l 22 0 l 232 991 l 514 991 q 804 893 701 991 q 907 616 907 795 m 382 220 q 515 267 456 220 q 606 402 574 315 q 639 603 639 490 q 602 731 639 688 q 500 775 566 775 l 452 775 l 335 220 l 382 220 m 279 1293 l 460 1293 q 565 1175 489 1267 q 728 1293 660 1250 l 913 1293 l 913 1278 q 704 1071 822 1200 l 401 1071 q 342 1182 380 1119 q 279 1278 304 1246 l 279 1293 z "},"ď":{"ha":924,"x_min":57,"x_max":1227,"o":"m 907 851 q 982 1055 954 970 l 1227 1055 l 1227 1042 q 1154 937 1194 986 q 1068 833 1115 888 l 907 833 l 907 851 m 397 782 q 483 761 448 782 q 558 679 517 741 l 564 679 l 565 704 q 582 851 570 798 l 624 1055 l 889 1055 l 665 0 l 456 0 l 463 83 l 457 83 q 376 8 418 30 q 275 -14 333 -14 q 113 62 168 -14 q 57 279 57 138 q 105 526 57 400 q 230 716 154 651 q 397 782 306 782 m 383 197 q 448 237 417 197 q 497 343 479 277 q 515 473 515 410 q 461 571 515 571 q 396 531 428 571 q 345 426 364 491 q 325 294 325 360 q 383 197 325 197 z "},"Đ":{"ha":950,"x_min":7,"x_max":907,"o":"m 54 599 l 149 599 l 232 991 l 524 991 q 807 894 707 991 q 907 616 907 797 q 762 161 907 322 q 357 0 618 0 l 22 0 l 103 382 l 7 382 l 54 599 m 382 220 q 516 268 457 220 q 607 407 575 317 q 639 611 639 496 q 602 732 639 690 q 500 775 566 775 l 452 775 l 414 599 l 534 599 l 488 382 l 368 382 l 335 220 l 382 220 z "},"đ":{"ha":839,"x_min":57,"x_max":974,"o":"m 603 956 l 624 1055 l 889 1055 l 867 956 l 974 956 l 939 791 l 832 791 l 665 0 l 456 0 l 463 83 l 457 83 q 402 22 425 39 q 348 -4 379 5 q 275 -14 317 -14 q 113 62 168 -14 q 57 279 57 138 q 99 493 57 391 q 213 654 141 595 q 372 713 284 713 q 465 690 425 713 q 545 610 505 667 l 550 610 l 551 635 q 568 782 556 728 l 570 791 l 404 791 l 437 956 l 603 956 m 383 197 q 468 257 435 197 q 500 404 500 316 q 484 475 500 448 q 440 501 469 501 q 359 439 393 501 q 325 294 325 376 q 383 197 325 197 z "},"Ē":{"ha":781,"x_min":22,"x_max":821,"o":"m 611 0 l 22 0 l 232 991 l 821 991 l 777 777 l 453 777 l 421 621 l 722 621 l 673 406 l 372 406 l 334 218 l 657 218 l 611 0 m 343 1231 l 794 1231 l 761 1071 l 309 1071 l 343 1231 z "},"ē":{"ha":804,"x_min":57,"x_max":774,"o":"m 361 -14 q 137 67 217 -14 q 57 290 57 147 q 114 548 57 433 q 269 723 170 663 q 497 782 368 782 q 700 724 626 782 q 774 568 774 665 q 668 359 774 432 q 361 286 562 286 l 321 286 l 321 275 q 432 175 321 175 q 537 191 486 175 q 654 241 589 207 l 654 56 q 513 2 578 17 q 361 -14 447 -14 m 468 604 q 391 557 427 604 q 347 450 355 510 l 367 450 q 483 478 441 450 q 525 553 525 507 q 511 589 525 574 q 468 604 498 604 m 298 1002 l 749 1002 l 716 842 l 264 842 l 298 1002 z "},"Ĕ":{"ha":781,"x_min":22,"x_max":827,"o":"m 611 0 l 22 0 l 232 991 l 821 991 l 777 777 l 453 777 l 421 621 l 722 621 l 673 406 l 372 406 l 334 218 l 657 218 l 611 0 m 827 1322 q 730 1133 806 1195 q 519 1071 654 1071 q 342 1127 406 1071 q 277 1284 277 1184 q 283 1322 277 1310 l 431 1322 q 461 1257 431 1278 q 541 1235 491 1235 q 631 1257 599 1235 q 677 1322 663 1279 l 827 1322 z "},"ĕ":{"ha":804,"x_min":57,"x_max":814,"o":"m 361 -14 q 137 67 217 -14 q 57 290 57 147 q 114 548 57 433 q 269 723 170 663 q 497 782 368 782 q 700 724 626 782 q 774 568 774 665 q 668 359 774 432 q 361 286 562 286 l 321 286 l 321 275 q 432 175 321 175 q 537 191 486 175 q 654 241 589 207 l 654 56 q 513 2 578 17 q 361 -14 447 -14 m 468 604 q 391 557 427 604 q 347 450 355 510 l 367 450 q 483 478 441 450 q 525 553 525 507 q 511 589 525 574 q 468 604 498 604 m 814 1093 q 718 904 793 966 q 507 842 642 842 q 329 898 393 842 q 264 1055 264 955 q 271 1093 264 1081 l 418 1093 q 448 1027 418 1049 q 528 1006 478 1006 q 618 1028 586 1006 q 665 1093 650 1050 l 814 1093 z "},"Ė":{"ha":781,"x_min":22,"x_max":821,"o":"m 611 0 l 22 0 l 232 991 l 821 991 l 777 777 l 453 777 l 421 621 l 722 621 l 673 406 l 372 406 l 334 218 l 657 218 l 611 0 m 399 1147 q 554 1289 399 1289 q 651 1264 618 1289 q 683 1193 683 1239 q 529 1051 683 1051 q 430 1075 461 1051 q 399 1147 399 1099 z "},"ė":{"ha":804,"x_min":57,"x_max":774,"o":"m 361 -14 q 137 67 217 -14 q 57 290 57 147 q 114 548 57 433 q 269 723 170 663 q 497 782 368 782 q 700 724 626 782 q 774 568 774 665 q 668 359 774 432 q 361 286 562 286 l 321 286 l 321 275 q 432 175 321 175 q 537 191 486 175 q 654 241 589 207 l 654 56 q 513 2 578 17 q 361 -14 447 -14 m 468 604 q 391 557 427 604 q 347 450 355 510 l 367 450 q 483 478 441 450 q 525 553 525 507 q 511 589 525 574 q 468 604 498 604 m 380 937 q 535 1079 380 1079 q 632 1054 600 1079 q 664 983 664 1029 q 510 842 664 842 q 411 866 442 842 q 380 937 380 890 z "},"Ę":{"ha":781,"x_min":22,"x_max":821,"o":"m 611 0 l 22 0 l 232 991 l 821 991 l 777 777 l 453 777 l 421 621 l 722 621 l 673 406 l 372 406 l 334 218 l 657 218 l 611 0 m 524 0 q 438 -77 458 -54 q 406 -122 417 -100 q 395 -167 395 -144 q 404 -191 395 -180 q 431 -201 413 -201 q 510 -184 463 -201 l 510 -335 q 375 -355 446 -355 q 252 -315 298 -355 q 206 -210 206 -274 q 240 -101 206 -151 q 353 0 274 -52 l 524 0 z "},"ę":{"ha":804,"x_min":57,"x_max":774,"o":"m 361 -14 q 137 67 217 -14 q 57 290 57 147 q 114 548 57 433 q 269 723 170 663 q 497 782 368 782 q 700 724 626 782 q 774 568 774 665 q 668 359 774 432 q 361 286 562 286 l 321 286 l 321 275 q 432 175 321 175 q 537 191 486 175 q 654 241 589 207 l 654 56 q 513 2 578 17 q 361 -14 447 -14 m 468 604 q 391 557 427 604 q 347 450 355 510 l 367 450 q 483 478 441 450 q 525 553 525 507 q 511 589 525 574 q 468 604 498 604 m 492 8 q 405 -69 426 -46 q 373 -114 385 -92 q 362 -159 362 -136 q 371 -183 362 -172 q 398 -193 380 -193 q 477 -176 430 -193 l 477 -327 q 342 -347 414 -347 q 220 -307 266 -347 q 174 -201 174 -266 q 208 -93 174 -142 q 321 8 241 -43 l 492 8 z "},"Ě":{"ha":781,"x_min":22,"x_max":882,"o":"m 611 0 l 22 0 l 232 991 l 821 991 l 777 777 l 453 777 l 421 621 l 722 621 l 673 406 l 372 406 l 334 218 l 657 218 l 611 0 m 248 1293 l 428 1293 q 533 1175 457 1267 q 696 1293 628 1250 l 882 1293 l 882 1278 q 672 1071 790 1200 l 370 1071 q 310 1182 349 1119 q 248 1278 272 1246 l 248 1293 z "},"ě":{"ha":804,"x_min":57,"x_max":865,"o":"m 361 -14 q 137 67 217 -14 q 57 290 57 147 q 114 548 57 433 q 269 723 170 663 q 497 782 368 782 q 700 724 626 782 q 774 568 774 665 q 668 359 774 432 q 361 286 562 286 l 321 286 l 321 275 q 432 175 321 175 q 537 191 486 175 q 654 241 589 207 l 654 56 q 513 2 578 17 q 361 -14 447 -14 m 468 604 q 391 557 427 604 q 347 450 355 510 l 367 450 q 483 478 441 450 q 525 553 525 507 q 511 589 525 574 q 468 604 498 604 m 231 1064 l 411 1064 q 516 946 440 1038 q 679 1064 611 1021 l 865 1064 l 865 1048 q 655 842 773 971 l 353 842 q 293 953 332 890 q 231 1048 255 1017 l 231 1064 z "},"Ĝ":{"ha":970,"x_min":71,"x_max":958,"o":"m 496 581 l 909 581 l 796 41 q 443 -14 627 -14 q 168 90 266 -14 q 71 382 71 193 q 145 709 71 563 q 350 931 220 854 q 652 1007 479 1007 q 956 935 832 1007 l 856 725 q 648 786 752 786 q 490 737 559 786 q 380 591 421 688 q 339 386 339 495 q 481 207 339 207 q 571 216 524 207 l 606 374 l 450 374 l 496 581 m 958 1071 l 778 1071 q 672 1189 747 1099 q 509 1071 577 1114 l 323 1071 l 323 1086 q 439 1197 377 1135 q 533 1293 500 1258 l 836 1293 q 889 1192 854 1253 q 958 1086 924 1131 l 958 1071 z "},"ĝ":{"ha":777,"x_min":-90,"x_max":838,"o":"m 838 768 l 810 628 l 701 593 q 708 529 708 566 q 620 320 708 399 q 390 240 532 240 q 306 249 338 240 q 283 234 292 241 q 273 214 273 227 q 349 174 273 184 l 441 161 q 611 99 559 144 q 663 -29 663 54 q 548 -254 663 -175 q 224 -334 434 -334 q -5 -282 80 -334 q -90 -140 -90 -231 q -44 -26 -90 -74 q 100 54 2 22 q 59 95 75 70 q 43 149 43 120 q 77 234 43 197 q 180 302 112 271 q 92 493 92 372 q 184 704 92 626 q 433 782 276 782 q 506 778 468 782 q 567 768 545 774 l 838 768 m 134 -103 q 249 -161 134 -161 q 378 -142 334 -161 q 422 -86 422 -122 q 400 -49 422 -62 q 322 -31 378 -37 l 244 -22 q 162 -51 191 -30 q 134 -103 134 -71 m 339 469 q 385 406 339 406 q 443 452 420 406 q 465 559 465 498 q 424 624 465 624 q 379 601 398 624 q 350 542 360 578 q 339 469 339 505 m 827 842 l 646 842 q 541 960 615 869 q 378 842 446 885 l 192 842 l 192 857 q 307 967 245 906 q 401 1064 369 1029 l 705 1064 q 758 963 722 1024 q 827 857 793 901 l 827 842 z "},"Ğ":{"ha":970,"x_min":71,"x_max":956,"o":"m 496 581 l 909 581 l 796 41 q 443 -14 627 -14 q 168 90 266 -14 q 71 382 71 193 q 145 709 71 563 q 350 931 220 854 q 652 1007 479 1007 q 956 935 832 1007 l 856 725 q 648 786 752 786 q 490 737 559 786 q 380 591 421 688 q 339 386 339 495 q 481 207 339 207 q 571 216 524 207 l 606 374 l 450 374 l 496 581 m 912 1322 q 815 1133 891 1195 q 604 1071 739 1071 q 427 1127 491 1071 q 362 1284 362 1184 q 368 1322 362 1310 l 515 1322 q 546 1257 515 1278 q 626 1235 576 1235 q 716 1257 684 1235 q 762 1322 748 1279 l 912 1322 z "},"ğ":{"ha":777,"x_min":-90,"x_max":838,"o":"m 838 768 l 810 628 l 701 593 q 708 529 708 566 q 620 320 708 399 q 390 240 532 240 q 306 249 338 240 q 283 234 292 241 q 273 214 273 227 q 349 174 273 184 l 441 161 q 611 99 559 144 q 663 -29 663 54 q 548 -254 663 -175 q 224 -334 434 -334 q -5 -282 80 -334 q -90 -140 -90 -231 q -44 -26 -90 -74 q 100 54 2 22 q 59 95 75 70 q 43 149 43 120 q 77 234 43 197 q 180 302 112 271 q 92 493 92 372 q 184 704 92 626 q 433 782 276 782 q 506 778 468 782 q 567 768 545 774 l 838 768 m 134 -103 q 249 -161 134 -161 q 378 -142 334 -161 q 422 -86 422 -122 q 400 -49 422 -62 q 322 -31 378 -37 l 244 -22 q 162 -51 191 -30 q 134 -103 134 -71 m 339 469 q 385 406 339 406 q 443 452 420 406 q 465 559 465 498 q 424 624 465 624 q 379 601 398 624 q 350 542 360 578 q 339 469 339 505 m 796 1093 q 699 904 775 966 q 488 842 623 842 q 311 898 375 842 q 246 1055 246 955 q 252 1093 246 1081 l 399 1093 q 430 1027 399 1049 q 510 1006 460 1006 q 600 1028 568 1006 q 646 1093 632 1050 l 796 1093 z "},"Ġ":{"ha":970,"x_min":71,"x_max":956,"o":"m 496 581 l 909 581 l 796 41 q 443 -14 627 -14 q 168 90 266 -14 q 71 382 71 193 q 145 709 71 563 q 350 931 220 854 q 652 1007 479 1007 q 956 935 832 1007 l 856 725 q 648 786 752 786 q 490 737 559 786 q 380 591 421 688 q 339 386 339 495 q 481 207 339 207 q 571 216 524 207 l 606 374 l 450 374 l 496 581 m 500 1166 q 654 1308 500 1308 q 751 1283 719 1308 q 783 1213 783 1259 q 629 1071 783 1071 q 531 1095 562 1071 q 500 1166 500 1119 z "},"ġ":{"ha":777,"x_min":-90,"x_max":838,"o":"m 838 768 l 810 628 l 701 593 q 708 529 708 566 q 620 320 708 399 q 390 240 532 240 q 306 249 338 240 q 283 234 292 241 q 273 214 273 227 q 349 174 273 184 l 441 161 q 611 99 559 144 q 663 -29 663 54 q 548 -254 663 -175 q 224 -334 434 -334 q -5 -282 80 -334 q -90 -140 -90 -231 q -44 -26 -90 -74 q 100 54 2 22 q 59 95 75 70 q 43 149 43 120 q 77 234 43 197 q 180 302 112 271 q 92 493 92 372 q 184 704 92 626 q 433 782 276 782 q 506 778 468 782 q 567 768 545 774 l 838 768 m 134 -103 q 249 -161 134 -161 q 378 -142 334 -161 q 422 -86 422 -122 q 400 -49 422 -62 q 322 -31 378 -37 l 244 -22 q 162 -51 191 -30 q 134 -103 134 -71 m 339 469 q 385 406 339 406 q 443 452 420 406 q 465 559 465 498 q 424 624 465 624 q 379 601 398 624 q 350 542 360 578 q 339 469 339 505 m 383 937 q 538 1079 383 1079 q 634 1054 602 1079 q 667 983 667 1029 q 513 842 667 842 q 414 866 445 842 q 383 937 383 890 z "},"Ģ":{"ha":970,"x_min":71,"x_max":956,"o":"m 496 581 l 909 581 l 796 41 q 443 -14 627 -14 q 168 90 266 -14 q 71 382 71 193 q 145 709 71 563 q 350 931 220 854 q 652 1007 479 1007 q 956 935 832 1007 l 856 725 q 648 786 752 786 q 490 737 559 786 q 380 591 421 688 q 339 386 339 495 q 481 207 339 207 q 571 216 524 207 l 606 374 l 450 374 l 496 581 m 250 -289 q 323 -85 302 -156 l 569 -85 l 569 -98 q 411 -307 509 -200 l 250 -307 l 250 -289 z "},"ģ":{"ha":777,"x_min":-90,"x_max":838,"o":"m 838 768 l 810 628 l 701 593 q 708 529 708 566 q 620 320 708 399 q 390 240 532 240 q 306 249 338 240 q 283 234 292 241 q 273 214 273 227 q 349 174 273 184 l 441 161 q 611 99 559 144 q 663 -29 663 54 q 548 -254 663 -175 q 224 -334 434 -334 q -5 -282 80 -334 q -90 -140 -90 -231 q -44 -26 -90 -74 q 100 54 2 22 q 59 95 75 70 q 43 149 43 120 q 77 234 43 197 q 180 302 112 271 q 92 493 92 372 q 184 704 92 626 q 433 782 276 782 q 506 778 468 782 q 567 768 545 774 l 838 768 m 134 -103 q 249 -161 134 -161 q 378 -142 334 -161 q 422 -86 422 -122 q 400 -49 422 -62 q 322 -31 378 -37 l 244 -22 q 162 -51 191 -30 q 134 -103 134 -71 m 339 469 q 385 406 339 406 q 443 452 420 406 q 465 559 465 498 q 424 624 465 624 q 379 601 398 624 q 350 542 360 578 q 339 469 339 505 m 673 1046 q 636 953 661 1019 q 597 842 611 888 l 351 842 l 351 856 q 511 1064 404 941 l 673 1064 l 673 1046 z "},"Ĥ":{"ha":991,"x_min":22,"x_max":999,"o":"m 789 0 l 524 0 l 608 404 l 374 404 l 288 0 l 22 0 l 232 991 l 497 991 l 421 624 l 657 624 l 733 991 l 999 991 l 789 0 m 930 1071 l 750 1071 q 644 1189 719 1099 q 481 1071 549 1114 l 296 1071 l 296 1086 q 411 1197 349 1135 q 505 1293 473 1258 l 808 1293 q 861 1192 826 1253 q 930 1086 897 1131 l 930 1071 z "},"ĥ":{"ha":864,"x_min":16,"x_max":867,"o":"m 433 0 l 521 419 q 533 515 533 472 q 518 559 533 545 q 482 574 503 574 q 357 375 397 574 l 278 0 l 16 0 l 239 1055 l 501 1055 l 465 886 q 406 694 441 779 l 411 694 q 596 782 479 782 q 745 724 692 782 q 799 564 799 666 q 782 408 799 492 l 696 0 l 433 0 m 867 1108 l 686 1108 q 581 1226 655 1136 q 418 1108 486 1152 l 232 1108 l 232 1124 q 347 1234 286 1173 q 441 1331 409 1295 l 745 1331 q 798 1229 762 1291 q 867 1124 833 1168 l 867 1108 z "},"Ħ":{"ha":991,"x_min":22,"x_max":1093,"o":"m 977 885 l 1093 885 l 1060 725 l 942 725 l 789 0 l 524 0 l 608 403 l 374 403 l 288 0 l 22 0 l 175 725 l 60 725 l 92 885 l 208 885 l 232 991 l 497 991 l 476 885 l 711 885 l 733 991 l 999 991 l 977 885 m 657 624 l 676 725 l 440 725 l 421 624 l 657 624 z "},"ħ":{"ha":864,"x_min":16,"x_max":785,"o":"m 446 791 q 392 625 425 705 l 397 625 q 582 713 465 713 q 731 655 677 713 q 785 494 785 597 q 768 339 785 419 l 696 0 l 433 0 l 507 350 q 519 446 519 403 q 504 490 519 475 q 468 504 489 504 q 392 453 422 504 q 343 306 363 402 l 278 0 l 16 0 l 182 791 l 68 791 l 103 956 l 216 956 l 239 1055 l 501 1055 l 481 956 l 663 956 l 628 791 l 446 791 z "},"ĩ":{"ha":452,"x_min":16,"x_max":646,"o":"m 278 0 l 16 0 l 178 768 l 441 768 l 278 0 m 429 840 q 385 846 406 840 q 343 861 363 851 q 312 876 323 870 q 226 907 262 907 q 185 888 205 907 q 160 839 165 870 l 33 839 q 106 1013 54 956 q 245 1071 158 1071 q 285 1066 268 1071 q 349 1038 302 1062 q 394 1015 370 1026 q 439 1004 418 1004 q 517 1072 492 1004 l 646 1072 q 570 898 623 956 q 429 840 517 840 z "},"ī":{"ha":452,"x_min":16,"x_max":572,"o":"m 278 0 l 16 0 l 178 768 l 441 768 l 278 0 m 121 1002 l 572 1002 l 539 842 l 87 842 l 121 1002 z "},"ĭ":{"ha":452,"x_min":16,"x_max":632,"o":"m 278 0 l 16 0 l 178 768 l 441 768 l 278 0 m 632 1093 q 535 904 611 966 q 324 842 459 842 q 146 898 211 842 q 82 1055 82 955 q 88 1093 82 1081 l 235 1093 q 266 1027 235 1049 q 346 1006 296 1006 q 436 1028 404 1006 q 482 1093 468 1050 l 632 1093 z "},"į":{"ha":452,"x_min":-40,"x_max":492,"o":"m 278 0 l 16 0 l 178 768 l 441 768 l 278 0 m 210 937 q 250 1043 210 1007 q 363 1079 290 1079 q 458 1054 425 1079 q 492 983 492 1029 q 452 879 492 916 q 339 842 413 842 q 210 937 210 842 m 278 0 q 192 -77 212 -54 q 160 -122 171 -100 q 149 -167 149 -144 q 158 -191 149 -180 q 184 -201 167 -201 q 264 -184 216 -201 l 264 -335 q 129 -355 200 -355 q 6 -315 52 -355 q -40 -210 -40 -274 q -6 -101 -40 -151 q 107 0 28 -52 l 278 0 z "},"ı":{"ha":452,"x_min":16,"x_max":441,"o":"m 278 0 l 16 0 l 178 768 l 441 768 l 278 0 z "},"ĳ":{"ha":903,"x_min":16,"x_max":949,"o":"m 413 -334 q 273 -315 338 -334 l 273 -110 q 349 -122 311 -122 q 467 -22 445 -122 l 635 768 l 897 768 l 721 -64 q 614 -264 694 -195 q 413 -334 535 -334 m 667 937 q 707 1043 667 1007 q 820 1079 747 1079 q 915 1054 882 1079 q 949 983 949 1029 q 911 881 949 920 q 796 842 874 842 q 667 937 667 842 m 278 0 l 16 0 l 178 768 l 441 768 l 278 0 m 210 937 q 250 1043 210 1007 q 363 1079 290 1079 q 458 1054 425 1079 q 492 983 492 1029 q 452 879 492 916 q 339 842 413 842 q 210 937 210 842 z "},"Ĵ":{"ha":518,"x_min":-222,"x_max":712,"o":"m -78 -313 q -222 -293 -150 -313 l -222 -77 q -104 -93 -155 -93 q 5 -53 -32 -93 q 62 79 43 -13 l 258 991 l 524 991 l 321 46 q 244 -166 292 -90 q 120 -277 197 -242 q -78 -313 44 -313 m 712 1071 l 532 1071 q 426 1189 500 1099 q 263 1071 331 1114 l 77 1071 l 77 1086 q 193 1197 131 1135 q 287 1293 254 1258 l 590 1293 q 643 1192 608 1253 q 712 1086 678 1131 l 712 1071 z "},"ĵ":{"ha":452,"x_min":-179,"x_max":629,"o":"m -39 -334 q -179 -315 -113 -334 l -179 -110 q -103 -122 -141 -122 q 16 -22 -7 -122 l 183 768 l 446 768 l 269 -64 q 163 -264 242 -195 q -39 -334 83 -334 m 629 842 l 448 842 q 342 960 417 869 q 180 842 248 885 l -6 842 l -6 857 q 109 967 47 906 q 203 1064 171 1029 l 507 1064 q 559 963 524 1024 q 629 857 595 901 l 629 842 z "},"Ķ":{"ha":929,"x_min":22,"x_max":1032,"o":"m 842 0 l 545 0 l 427 392 l 361 354 l 288 0 l 22 0 l 232 991 l 497 991 l 406 568 l 431 608 q 519 741 491 705 l 721 991 l 1032 991 l 659 534 l 842 0 m 208 -289 q 282 -85 260 -156 l 528 -85 l 528 -98 q 370 -307 467 -200 l 208 -307 l 208 -289 z "},"ķ":{"ha":857,"x_min":16,"x_max":932,"o":"m 236 1055 l 498 1055 l 404 606 q 358 454 393 553 l 364 454 q 468 590 421 541 l 632 768 l 932 768 l 599 421 l 785 0 l 488 0 l 393 265 l 325 229 l 278 0 l 16 0 l 236 1055 m 176 -289 q 250 -85 229 -156 l 496 -85 l 496 -98 q 338 -307 435 -200 l 176 -307 l 176 -289 z "},"ĸ":{"ha":857,"x_min":16,"x_max":929,"o":"m 176 768 l 439 768 l 404 606 q 381 524 397 572 q 357 454 366 476 l 363 454 q 468 590 416 535 l 629 768 l 929 768 l 599 421 l 785 0 l 488 0 l 393 265 l 325 229 l 278 0 l 16 0 l 176 768 z "},"Ĺ":{"ha":732,"x_min":22,"x_max":749,"o":"m 22 0 l 232 991 l 497 991 l 334 216 l 657 216 l 611 0 l 22 0 m 260 1086 q 452 1293 344 1156 l 749 1293 l 749 1283 q 620 1177 719 1246 q 453 1071 520 1107 l 260 1071 l 260 1086 z "},"ĺ":{"ha":452,"x_min":16,"x_max":741,"o":"m 278 0 l 16 0 l 239 1055 l 501 1055 l 278 0 m 252 1125 q 444 1332 336 1194 l 741 1332 l 741 1322 q 611 1215 711 1285 q 445 1109 512 1145 l 252 1109 l 252 1125 z "},"Ļ":{"ha":732,"x_min":22,"x_max":657,"o":"m 22 0 l 232 991 l 497 991 l 334 216 l 657 216 l 611 0 l 22 0 m 112 -289 q 186 -85 164 -156 l 431 -85 l 431 -98 q 273 -307 371 -200 l 112 -307 l 112 -289 z "},"ļ":{"ha":452,"x_min":-59,"x_max":501,"o":"m 278 0 l 16 0 l 239 1055 l 501 1055 l 278 0 m -59 -289 q 15 -85 -7 -156 l 260 -85 l 260 -98 q 102 -307 200 -200 l -59 -307 l -59 -289 z "},"Ľ":{"ha":732,"x_min":22,"x_max":865,"o":"m 22 0 l 232 991 l 497 991 l 334 216 l 657 216 l 611 0 l 22 0 m 545 788 q 620 992 591 907 l 865 992 l 865 979 q 792 874 831 923 q 706 770 753 825 l 545 770 l 545 788 z "},"ľ":{"ha":538,"x_min":16,"x_max":840,"o":"m 278 0 l 16 0 l 239 1055 l 501 1055 l 278 0 m 519 851 q 595 1055 566 970 l 840 1055 l 840 1042 q 767 937 806 986 q 681 833 728 888 l 519 833 l 519 851 z "},"Ŀ":{"ha":732,"x_min":22,"x_max":769,"o":"m 22 0 l 232 991 l 497 991 l 334 216 l 657 216 l 611 0 l 22 0 m 486 498 q 640 640 486 640 q 737 615 705 640 q 769 544 769 590 q 615 402 769 402 q 516 426 547 402 q 486 498 486 450 z "},"ŀ":{"ha":741,"x_min":16,"x_max":760,"o":"m 278 0 l 16 0 l 239 1055 l 501 1055 l 278 0 m 476 454 q 631 596 476 596 q 727 571 695 596 q 760 500 760 547 q 606 359 760 359 q 507 383 538 359 q 476 454 476 407 z "},"Ł":{"ha":746,"x_min":-32,"x_max":671,"o":"m 245 991 l 511 991 l 450 707 l 567 768 l 656 603 l 400 469 l 347 216 l 671 216 l 625 0 l 36 0 l 106 329 l 53 302 l -32 467 l 154 566 l 245 991 z "},"ł":{"ha":493,"x_min":-33,"x_max":570,"o":"m 432 631 l 490 660 l 570 509 l 386 416 l 298 0 l 36 0 l 97 285 l 39 256 l -33 407 l 142 497 l 260 1055 l 522 1055 l 432 631 z "},"Ń":{"ha":1097,"x_min":22,"x_max":1104,"o":"m 895 0 l 586 0 l 390 697 l 385 697 q 346 414 365 500 l 258 0 l 22 0 l 232 991 l 541 991 l 734 325 l 741 325 q 779 576 760 485 l 868 991 l 1104 991 l 895 0 m 535 1086 q 726 1293 618 1156 l 1024 1293 l 1024 1283 q 894 1177 994 1246 q 728 1071 795 1107 l 535 1071 l 535 1086 z "},"ń":{"ha":864,"x_min":16,"x_max":848,"o":"m 533 515 q 518 559 533 545 q 482 574 503 574 q 411 526 444 574 q 357 375 378 477 l 278 0 l 16 0 l 178 768 l 387 768 l 379 661 l 385 661 q 472 754 422 726 q 596 782 523 782 q 745 724 692 782 q 799 564 799 666 q 782 408 799 492 l 696 0 l 433 0 l 521 419 q 533 515 533 472 m 359 857 q 550 1064 442 926 l 848 1064 l 848 1054 q 718 947 817 1017 q 551 842 618 878 l 359 842 l 359 857 z "},"Ņ":{"ha":1097,"x_min":22,"x_max":1104,"o":"m 895 0 l 586 0 l 390 697 l 385 697 q 346 414 365 500 l 258 0 l 22 0 l 232 991 l 541 991 l 734 325 l 741 325 q 779 576 760 485 l 868 991 l 1104 991 l 895 0 m 272 -289 q 346 -85 324 -156 l 591 -85 l 591 -98 q 433 -307 531 -200 l 272 -307 l 272 -289 z "},"ņ":{"ha":864,"x_min":16,"x_max":799,"o":"m 533 515 q 518 559 533 545 q 482 574 503 574 q 411 526 444 574 q 357 375 378 477 l 278 0 l 16 0 l 178 768 l 387 768 l 379 661 l 385 661 q 472 754 422 726 q 596 782 523 782 q 745 724 692 782 q 799 564 799 666 q 782 408 799 492 l 696 0 l 433 0 l 521 419 q 533 515 533 472 m 159 -289 q 233 -85 212 -156 l 479 -85 l 479 -98 q 321 -307 418 -200 l 159 -307 l 159 -289 z "},"Ň":{"ha":1097,"x_min":22,"x_max":1104,"o":"m 895 0 l 586 0 l 390 697 l 385 697 q 346 414 365 500 l 258 0 l 22 0 l 232 991 l 541 991 l 734 325 l 741 325 q 779 576 760 485 l 868 991 l 1104 991 l 895 0 m 388 1293 l 568 1293 q 673 1175 597 1267 q 836 1293 768 1250 l 1022 1293 l 1022 1278 q 812 1071 930 1200 l 510 1071 q 451 1182 489 1119 q 388 1278 412 1246 l 388 1293 z "},"ň":{"ha":864,"x_min":16,"x_max":854,"o":"m 533 515 q 518 559 533 545 q 482 574 503 574 q 411 526 444 574 q 357 375 378 477 l 278 0 l 16 0 l 178 768 l 387 768 l 379 661 l 385 661 q 472 754 422 726 q 596 782 523 782 q 745 724 692 782 q 799 564 799 666 q 782 408 799 492 l 696 0 l 433 0 l 521 419 q 533 515 533 472 m 220 1064 l 400 1064 q 505 946 429 1038 q 668 1064 600 1021 l 854 1064 l 854 1048 q 644 842 762 971 l 342 842 q 282 953 321 890 q 220 1048 244 1017 l 220 1064 z "},"ŉ":{"ha":979,"x_min":-41,"x_max":914,"o":"m 648 515 q 633 559 648 545 q 597 574 618 574 q 526 526 559 574 q 472 375 493 477 l 393 0 l 131 0 l 293 768 l 503 768 l 494 661 l 500 661 q 588 754 537 726 q 711 782 638 782 q 861 724 807 782 q 914 564 914 666 q 897 408 914 492 l 811 0 l 549 0 l 636 419 q 648 515 648 472 m 323 991 l 328 977 q 155 652 266 833 l -41 652 q 4 765 -18 707 q 87 991 27 824 l 323 991 z "},"Ŋ":{"ha":1097,"x_min":22,"x_max":1104,"o":"m 505 -313 q 361 -293 433 -313 l 361 -85 q 490 -102 425 -102 q 597 -73 555 -102 q 652 5 638 -44 l 390 697 l 385 697 q 346 414 365 500 l 258 0 l 22 0 l 232 991 l 524 991 l 745 400 l 750 400 q 770 526 756 453 q 868 991 784 599 l 1104 991 l 895 0 q 766 -241 859 -169 q 505 -313 674 -313 z "},"ŋ":{"ha":864,"x_min":16,"x_max":799,"o":"m 374 -334 q 233 -315 299 -334 l 233 -110 q 310 -122 271 -122 q 428 -22 406 -122 l 521 419 q 533 515 533 472 q 518 559 533 545 q 482 574 503 574 q 357 375 398 574 l 278 0 l 16 0 l 178 768 l 387 768 l 379 661 l 385 661 q 472 754 422 726 q 596 782 523 782 q 745 724 692 782 q 799 564 799 666 q 782 408 799 492 l 682 -64 q 576 -264 655 -195 q 374 -334 496 -334 z "},"Ō":{"ha":1023,"x_min":71,"x_max":981,"o":"m 608 1007 q 883 906 785 1007 q 981 625 981 806 q 913 295 981 445 q 727 66 846 146 q 452 -14 608 -14 q 170 87 269 -14 q 71 368 71 189 q 140 699 71 548 q 331 928 210 849 q 608 1007 451 1007 m 713 623 q 680 744 713 700 q 586 787 648 787 q 463 730 519 787 q 373 574 406 673 q 339 370 339 474 q 475 205 339 205 q 594 262 539 205 q 681 414 650 318 q 713 623 713 509 m 425 1231 l 876 1231 l 843 1071 l 391 1071 l 425 1231 z "},"ō":{"ha":843,"x_min":57,"x_max":786,"o":"m 353 -14 q 134 63 211 -14 q 57 282 57 140 q 111 539 57 425 q 262 718 165 654 q 490 782 360 782 q 709 705 632 782 q 786 486 786 629 q 732 229 786 344 q 581 50 678 114 q 353 -14 483 -14 m 460 585 q 365 490 404 585 q 325 273 325 395 q 382 183 325 183 q 477 277 437 183 q 518 494 518 372 q 503 562 518 539 q 460 585 487 585 m 292 1002 l 743 1002 l 709 842 l 257 842 l 292 1002 z "},"Ŏ":{"ha":1023,"x_min":71,"x_max":981,"o":"m 608 1007 q 883 906 785 1007 q 981 625 981 806 q 913 295 981 445 q 727 66 846 146 q 452 -14 608 -14 q 170 87 269 -14 q 71 368 71 189 q 140 699 71 548 q 331 928 210 849 q 608 1007 451 1007 m 713 623 q 680 744 713 700 q 586 787 648 787 q 463 730 519 787 q 373 574 406 673 q 339 370 339 474 q 475 205 339 205 q 594 262 539 205 q 681 414 650 318 q 713 623 713 509 m 919 1322 q 822 1133 898 1195 q 611 1071 746 1071 q 433 1127 498 1071 q 369 1284 369 1184 q 375 1322 369 1310 l 522 1322 q 552 1257 522 1278 q 633 1235 583 1235 q 723 1257 690 1235 q 769 1322 755 1279 l 919 1322 z "},"ŏ":{"ha":843,"x_min":57,"x_max":792,"o":"m 353 -14 q 134 63 211 -14 q 57 282 57 140 q 111 539 57 425 q 262 718 165 654 q 490 782 360 782 q 709 705 632 782 q 786 486 786 629 q 732 229 786 344 q 581 50 678 114 q 353 -14 483 -14 m 460 585 q 365 490 404 585 q 325 273 325 395 q 382 183 325 183 q 477 277 437 183 q 518 494 518 372 q 503 562 518 539 q 460 585 487 585 m 792 1093 q 695 904 771 966 q 484 842 619 842 q 307 898 371 842 q 242 1055 242 955 q 248 1093 242 1081 l 395 1093 q 426 1027 395 1049 q 506 1006 456 1006 q 596 1028 564 1006 q 642 1093 628 1050 l 792 1093 z "},"Ő":{"ha":1023,"x_min":71,"x_max":1061,"o":"m 608 1007 q 883 906 785 1007 q 981 625 981 806 q 913 295 981 445 q 727 66 846 146 q 452 -14 608 -14 q 170 87 269 -14 q 71 368 71 189 q 140 699 71 548 q 331 928 210 849 q 608 1007 451 1007 m 713 623 q 680 744 713 700 q 586 787 648 787 q 463 730 519 787 q 373 574 406 673 q 339 370 339 474 q 475 205 339 205 q 594 262 539 205 q 681 414 650 318 q 713 623 713 509 m 354 1071 l 354 1090 q 431 1190 384 1126 q 501 1293 478 1253 l 753 1293 l 753 1279 q 492 1071 724 1232 l 354 1071 m 668 1071 l 668 1090 l 701 1136 q 808 1293 780 1241 l 1061 1293 l 1061 1279 q 806 1071 1027 1224 l 668 1071 z "},"ő":{"ha":843,"x_min":57,"x_max":925,"o":"m 353 -14 q 134 63 211 -14 q 57 282 57 140 q 111 539 57 425 q 262 718 165 654 q 490 782 360 782 q 709 705 632 782 q 786 486 786 629 q 732 229 786 344 q 581 50 678 114 q 353 -14 483 -14 m 460 585 q 365 490 404 585 q 325 273 325 395 q 382 183 325 183 q 477 277 437 183 q 518 494 518 372 q 503 562 518 539 q 460 585 487 585 m 218 842 l 218 861 q 295 960 248 897 q 366 1064 342 1023 l 617 1064 l 617 1050 q 356 842 588 1002 l 218 842 m 532 842 l 532 861 l 566 907 q 673 1064 644 1012 l 925 1064 l 925 1050 q 670 842 892 995 l 532 842 z "},"Œ":{"ha":1295,"x_min":71,"x_max":1335,"o":"m 1125 0 l 572 0 q 439 -14 502 -14 q 168 86 265 -14 q 71 358 71 185 q 110 615 71 491 q 222 827 150 739 q 393 961 294 916 q 612 1007 492 1007 q 742 991 676 1007 l 1335 991 l 1289 775 l 965 775 l 933 623 l 1235 623 l 1186 404 l 885 404 l 846 220 l 1169 220 l 1125 0 m 463 210 q 585 237 528 210 l 694 754 q 590 787 659 787 q 466 728 525 787 q 373 568 408 668 q 339 357 339 469 q 463 210 339 210 z "},"œ":{"ha":1222,"x_min":57,"x_max":1192,"o":"m 779 -14 q 579 62 642 -14 q 353 -14 495 -14 q 134 63 211 -14 q 57 282 57 140 q 111 540 57 424 q 258 719 164 656 q 475 782 352 782 q 663 697 602 782 q 916 782 760 782 q 1117 724 1043 782 q 1192 568 1192 665 q 1085 358 1192 431 q 779 286 979 286 l 739 286 l 739 275 q 850 175 739 175 q 955 191 903 175 q 1072 241 1006 207 l 1072 56 q 929 1 995 16 q 779 -14 864 -14 m 460 585 q 365 490 404 585 q 325 273 325 395 q 382 183 325 183 q 477 277 437 183 q 518 494 518 372 q 503 562 518 539 q 460 585 487 585 m 886 604 q 810 558 846 604 q 765 450 774 512 l 785 450 q 901 478 859 450 q 943 553 943 506 q 929 589 943 574 q 886 604 916 604 z "},"Ŕ":{"ha":903,"x_min":22,"x_max":885,"o":"m 364 361 l 288 0 l 22 0 l 232 991 l 494 991 q 756 924 665 991 q 847 720 847 856 q 799 535 847 614 q 656 415 751 456 l 808 65 l 835 0 l 546 0 l 414 361 l 364 361 m 407 562 l 441 562 q 544 599 506 562 q 582 703 582 636 q 558 767 582 745 q 490 789 535 789 l 454 789 l 407 562 m 396 1086 q 587 1293 479 1156 l 885 1293 l 885 1283 q 755 1177 854 1246 q 589 1071 656 1107 l 396 1071 l 396 1086 z "},"ŕ":{"ha":607,"x_min":16,"x_max":772,"o":"m 611 782 q 665 777 649 782 l 608 517 q 525 532 572 532 q 413 484 455 532 q 350 338 372 436 l 278 0 l 16 0 l 178 768 l 387 768 l 375 640 l 380 640 q 476 749 425 716 q 611 782 528 782 m 283 857 q 474 1064 366 926 l 772 1064 l 772 1054 q 642 947 741 1017 q 475 842 543 878 l 283 842 l 283 857 z "},"Ŗ":{"ha":903,"x_min":22,"x_max":847,"o":"m 364 361 l 288 0 l 22 0 l 232 991 l 494 991 q 756 924 665 991 q 847 720 847 856 q 799 535 847 614 q 656 415 751 456 l 808 65 l 835 0 l 546 0 l 414 361 l 364 361 m 407 562 l 441 562 q 544 599 506 562 q 582 703 582 636 q 558 767 582 745 q 490 789 535 789 l 454 789 l 407 562 m 212 -289 q 286 -85 264 -156 l 532 -85 l 532 -98 q 374 -307 471 -200 l 212 -307 l 212 -289 z "},"ŗ":{"ha":607,"x_min":-61,"x_max":665,"o":"m 611 782 q 665 777 649 782 l 608 517 q 525 532 572 532 q 413 484 455 532 q 350 338 372 436 l 278 0 l 16 0 l 178 768 l 387 768 l 375 640 l 380 640 q 476 749 425 716 q 611 782 528 782 m -61 -289 q 13 -85 -9 -156 l 258 -85 l 258 -98 q 100 -307 198 -200 l -61 -307 l -61 -289 z "},"Ř":{"ha":903,"x_min":22,"x_max":884,"o":"m 364 361 l 288 0 l 22 0 l 232 991 l 494 991 q 756 924 665 991 q 847 720 847 856 q 799 535 847 614 q 656 415 751 456 l 808 65 l 835 0 l 546 0 l 414 361 l 364 361 m 407 562 l 441 562 q 544 599 506 562 q 582 703 582 636 q 558 767 582 745 q 490 789 535 789 l 454 789 l 407 562 m 250 1293 l 431 1293 q 536 1175 460 1267 q 699 1293 631 1250 l 884 1293 l 884 1278 q 675 1071 793 1200 l 372 1071 q 313 1182 351 1119 q 250 1278 275 1246 l 250 1293 z "},"ř":{"ha":607,"x_min":16,"x_max":760,"o":"m 611 782 q 665 777 649 782 l 608 517 q 525 532 572 532 q 413 484 455 532 q 350 338 372 436 l 278 0 l 16 0 l 178 768 l 387 768 l 375 640 l 380 640 q 476 749 425 716 q 611 782 528 782 m 126 1064 l 307 1064 q 412 946 336 1038 q 574 1064 507 1021 l 760 1064 l 760 1048 q 551 842 669 971 l 248 842 q 189 953 227 890 q 126 1048 151 1017 l 126 1064 z "},"Ś":{"ha":761,"x_min":29,"x_max":856,"o":"m 663 304 q 563 70 663 154 q 285 -14 463 -14 q 144 3 210 -14 q 29 52 77 20 l 29 289 q 160 229 86 253 q 293 204 233 204 q 369 225 343 204 q 395 285 395 246 q 387 319 395 303 q 363 351 378 335 q 283 421 349 367 q 168 551 204 485 q 132 697 132 618 q 177 857 132 786 q 302 967 221 928 q 484 1006 383 1006 q 775 933 646 1006 l 684 732 q 486 791 568 791 q 419 772 443 791 q 396 717 396 753 q 419 655 396 684 q 505 578 441 626 q 624 454 585 519 q 663 304 663 389 m 367 1086 q 558 1293 450 1156 l 856 1293 l 856 1283 q 726 1177 825 1246 q 559 1071 627 1107 l 367 1071 l 367 1086 z "},"ś":{"ha":697,"x_min":21,"x_max":754,"o":"m 604 267 q 516 59 604 132 q 262 -14 428 -14 q 21 29 112 -14 l 21 240 q 137 193 83 206 q 245 179 191 179 q 315 192 292 179 q 338 227 338 204 q 320 268 338 250 q 232 325 302 285 q 127 415 160 364 q 94 539 94 466 q 176 719 94 656 q 410 782 258 782 q 548 764 486 782 q 669 710 610 747 l 587 539 q 495 586 543 568 q 412 603 447 603 q 361 557 361 603 q 382 522 361 537 q 452 484 404 507 q 604 267 604 408 m 265 857 q 456 1064 349 926 l 754 1064 l 754 1054 q 624 947 724 1017 q 458 842 525 878 l 265 842 l 265 857 z "},"Ŝ":{"ha":761,"x_min":29,"x_max":823,"o":"m 663 304 q 563 70 663 154 q 285 -14 463 -14 q 144 3 210 -14 q 29 52 77 20 l 29 289 q 160 229 86 253 q 293 204 233 204 q 369 225 343 204 q 395 285 395 246 q 387 319 395 303 q 363 351 378 335 q 283 421 349 367 q 168 551 204 485 q 132 697 132 618 q 177 857 132 786 q 302 967 221 928 q 484 1006 383 1006 q 775 933 646 1006 l 684 732 q 486 791 568 791 q 419 772 443 791 q 396 717 396 753 q 419 655 396 684 q 505 578 441 626 q 624 454 585 519 q 663 304 663 389 m 823 1071 l 642 1071 q 536 1189 611 1099 q 374 1071 441 1114 l 188 1071 l 188 1086 q 303 1197 241 1135 q 397 1293 365 1258 l 701 1293 q 753 1192 718 1253 q 823 1086 789 1131 l 823 1071 z "},"ŝ":{"ha":697,"x_min":21,"x_max":705,"o":"m 604 267 q 516 59 604 132 q 262 -14 428 -14 q 21 29 112 -14 l 21 240 q 137 193 83 206 q 245 179 191 179 q 315 192 292 179 q 338 227 338 204 q 320 268 338 250 q 232 325 302 285 q 127 415 160 364 q 94 539 94 466 q 176 719 94 656 q 410 782 258 782 q 548 764 486 782 q 669 710 610 747 l 587 539 q 495 586 543 568 q 412 603 447 603 q 361 557 361 603 q 382 522 361 537 q 452 484 404 507 q 604 267 604 408 m 705 842 l 524 842 q 418 960 493 869 q 256 842 323 885 l 70 842 l 70 857 q 185 967 123 906 q 279 1064 247 1029 l 583 1064 q 635 963 600 1024 q 705 857 671 901 l 705 842 z "},"Ş":{"ha":761,"x_min":29,"x_max":775,"o":"m 663 304 q 563 70 663 154 q 285 -14 463 -14 q 144 3 210 -14 q 29 52 77 20 l 29 289 q 160 229 86 253 q 293 204 233 204 q 369 225 343 204 q 395 285 395 246 q 387 319 395 303 q 363 351 378 335 q 283 421 349 367 q 168 551 204 485 q 132 697 132 618 q 177 857 132 786 q 302 967 221 928 q 484 1006 383 1006 q 775 933 646 1006 l 684 732 q 486 791 568 791 q 419 772 443 791 q 396 717 396 753 q 419 655 396 684 q 505 578 441 626 q 624 454 585 519 q 663 304 663 389 m 461 -160 q 405 -288 461 -242 q 247 -334 349 -334 q 117 -314 169 -334 l 117 -175 q 170 -187 137 -181 q 219 -193 203 -193 q 265 -160 265 -193 q 167 -92 265 -111 l 218 0 l 357 0 l 340 -28 q 461 -160 461 -53 z "},"ş":{"ha":697,"x_min":21,"x_max":669,"o":"m 604 267 q 516 59 604 132 q 262 -14 428 -14 q 21 29 112 -14 l 21 240 q 137 193 83 206 q 245 179 191 179 q 315 192 292 179 q 338 227 338 204 q 320 268 338 250 q 232 325 302 285 q 127 415 160 364 q 94 539 94 466 q 176 719 94 656 q 410 782 258 782 q 548 764 486 782 q 669 710 610 747 l 587 539 q 495 586 543 568 q 412 603 447 603 q 361 557 361 603 q 382 522 361 537 q 452 484 404 507 q 604 267 604 408 m 431 -160 q 375 -288 431 -242 q 216 -334 319 -334 q 86 -314 138 -334 l 86 -175 q 139 -187 106 -181 q 189 -193 172 -193 q 235 -160 235 -193 q 136 -92 235 -111 l 187 0 l 326 0 l 310 -28 q 431 -160 431 -53 z "},"Š":{"ha":761,"x_min":29,"x_max":852,"o":"m 663 304 q 563 70 663 154 q 285 -14 463 -14 q 144 3 210 -14 q 29 52 77 20 l 29 289 q 160 229 86 253 q 293 204 233 204 q 369 225 343 204 q 395 285 395 246 q 387 319 395 303 q 363 351 378 335 q 283 421 349 367 q 168 551 204 485 q 132 697 132 618 q 177 857 132 786 q 302 967 221 928 q 484 1006 383 1006 q 775 933 646 1006 l 684 732 q 486 791 568 791 q 419 772 443 791 q 396 717 396 753 q 419 655 396 684 q 505 578 441 626 q 624 454 585 519 q 663 304 663 389 m 218 1293 l 398 1293 q 503 1175 427 1267 q 666 1293 598 1250 l 852 1293 l 852 1278 q 642 1071 760 1200 l 340 1071 q 280 1182 319 1119 q 218 1278 242 1246 l 218 1293 z "},"š":{"ha":697,"x_min":21,"x_max":774,"o":"m 604 267 q 516 59 604 132 q 262 -14 428 -14 q 21 29 112 -14 l 21 240 q 137 193 83 206 q 245 179 191 179 q 315 192 292 179 q 338 227 338 204 q 320 268 338 250 q 232 325 302 285 q 127 415 160 364 q 94 539 94 466 q 176 719 94 656 q 410 782 258 782 q 548 764 486 782 q 669 710 610 747 l 587 539 q 495 586 543 568 q 412 603 447 603 q 361 557 361 603 q 382 522 361 537 q 452 484 404 507 q 604 267 604 408 m 140 1064 l 320 1064 q 425 946 349 1038 q 588 1064 520 1021 l 774 1064 l 774 1048 q 564 842 682 971 l 262 842 q 202 953 241 890 q 140 1048 164 1017 l 140 1064 z "},"Ț":{"ha":766,"x_min":79,"x_max":850,"o":"m 425 0 l 160 0 l 321 772 l 106 772 l 153 991 l 850 991 l 802 772 l 586 772 l 425 0 m 79 -289 q 153 -85 131 -156 l 398 -85 l 398 -98 q 240 -307 338 -200 l 79 -307 l 79 -289 z "},"ț":{"ha":635,"x_min":38,"x_max":648,"o":"m 385 197 q 509 229 429 197 l 509 32 q 278 -14 416 -14 q 126 30 178 -14 q 74 171 74 73 q 90 298 74 222 l 147 571 l 43 571 l 71 700 l 218 760 l 311 922 l 486 922 l 453 768 l 648 768 l 606 571 l 410 571 l 353 311 q 342 240 342 259 q 385 197 342 197 m 38 -289 q 112 -85 90 -156 l 357 -85 l 357 -98 q 199 -307 297 -200 l 38 -307 l 38 -289 z "},"Ť":{"ha":766,"x_min":106,"x_max":862,"o":"m 425 0 l 160 0 l 321 772 l 106 772 l 153 991 l 850 991 l 802 772 l 586 772 l 425 0 m 228 1293 l 408 1293 q 513 1175 437 1267 q 676 1293 608 1250 l 862 1293 l 862 1278 q 652 1071 770 1200 l 350 1071 q 291 1182 329 1119 q 228 1278 252 1246 l 228 1293 z "},"ť":{"ha":647,"x_min":43,"x_max":863,"o":"m 385 197 q 509 229 429 197 l 509 32 q 278 -14 416 -14 q 126 30 178 -14 q 74 171 74 73 q 90 298 74 222 l 147 571 l 43 571 l 71 700 l 218 760 l 311 922 l 486 922 l 453 768 l 648 768 l 606 571 l 410 571 l 353 311 q 342 240 342 259 q 385 197 342 197 m 542 875 q 617 1079 589 994 l 863 1079 l 863 1065 q 789 961 829 1010 q 703 857 750 912 l 542 857 l 542 875 z "},"Ŧ":{"ha":766,"x_min":97,"x_max":850,"o":"m 547 585 l 688 585 l 640 368 l 501 368 l 425 0 l 160 0 l 236 368 l 97 368 l 143 585 l 282 585 l 321 772 l 106 772 l 153 991 l 850 991 l 802 772 l 586 772 l 547 585 z "},"ŧ":{"ha":635,"x_min":16,"x_max":648,"o":"m 382 196 q 437 204 403 196 q 505 225 472 212 l 505 31 q 281 -14 416 -14 q 119 29 169 -14 q 69 161 69 72 q 89 300 69 197 l 16 300 l 50 464 l 123 464 l 147 570 l 43 570 l 71 700 l 218 760 l 310 921 l 485 921 l 453 768 l 648 768 l 606 570 l 410 570 l 386 464 l 554 464 l 519 300 l 350 300 l 349 290 q 339 229 339 244 q 348 203 339 211 q 382 196 357 196 z "},"Ũ":{"ha":974,"x_min":85,"x_max":983,"o":"m 983 991 l 848 359 q 696 78 808 169 q 390 -14 583 -14 q 230 24 299 -14 q 122 128 160 61 q 85 278 85 195 q 93 366 85 321 l 228 991 l 493 991 l 361 372 q 351 294 351 326 q 433 208 351 208 q 533 252 497 208 q 589 386 570 296 l 718 991 l 983 991 m 720 1069 q 675 1075 697 1069 q 634 1090 654 1080 q 603 1105 614 1099 q 517 1136 553 1136 q 476 1118 496 1136 q 451 1068 456 1099 l 323 1068 q 397 1242 345 1185 q 536 1300 449 1300 q 576 1296 559 1300 q 640 1267 593 1291 q 685 1244 661 1255 q 730 1234 709 1234 q 808 1301 783 1234 l 937 1301 q 861 1127 914 1185 q 720 1069 808 1069 z "},"ũ":{"ha":864,"x_min":65,"x_max":851,"o":"m 330 254 q 346 210 330 224 q 382 196 361 196 q 455 249 422 196 q 507 395 488 302 l 586 768 l 848 768 l 686 0 l 476 0 l 485 107 l 479 107 q 392 15 443 44 q 268 -14 342 -14 q 119 44 172 -14 q 65 204 65 102 q 82 359 65 276 l 168 768 l 431 768 l 343 350 q 330 254 330 294 m 633 840 q 589 846 611 840 q 548 861 568 851 q 517 876 528 870 q 431 907 467 907 q 390 888 410 907 q 365 839 370 870 l 237 839 q 311 1013 259 956 q 450 1071 363 1071 q 490 1066 473 1071 q 554 1038 507 1062 q 599 1015 575 1026 q 644 1004 623 1004 q 722 1072 697 1004 l 851 1072 q 775 898 828 956 q 633 840 722 840 z "},"Ū":{"ha":974,"x_min":85,"x_max":983,"o":"m 983 991 l 848 359 q 696 78 808 169 q 390 -14 583 -14 q 230 24 299 -14 q 122 128 160 61 q 85 278 85 195 q 93 366 85 321 l 228 991 l 493 991 l 361 372 q 351 294 351 326 q 433 208 351 208 q 533 252 497 208 q 589 386 570 296 l 718 991 l 983 991 m 418 1231 l 869 1231 l 836 1071 l 384 1071 l 418 1231 z "},"ū":{"ha":864,"x_min":65,"x_max":848,"o":"m 330 254 q 346 210 330 224 q 382 196 361 196 q 455 249 422 196 q 507 395 488 302 l 586 768 l 848 768 l 686 0 l 476 0 l 485 107 l 479 107 q 392 15 443 44 q 268 -14 342 -14 q 119 44 172 -14 q 65 204 65 102 q 82 359 65 276 l 168 768 l 431 768 l 343 350 q 330 254 330 294 m 314 1002 l 765 1002 l 732 842 l 279 842 l 314 1002 z "},"Ŭ":{"ha":974,"x_min":85,"x_max":983,"o":"m 983 991 l 848 359 q 696 78 808 169 q 390 -14 583 -14 q 230 24 299 -14 q 122 128 160 61 q 85 278 85 195 q 93 366 85 321 l 228 991 l 493 991 l 361 372 q 351 294 351 326 q 433 208 351 208 q 533 252 497 208 q 589 386 570 296 l 718 991 l 983 991 m 915 1322 q 818 1133 894 1195 q 607 1071 742 1071 q 429 1127 494 1071 q 365 1284 365 1184 q 371 1322 365 1310 l 518 1322 q 548 1257 518 1278 q 629 1235 578 1235 q 719 1257 686 1235 q 765 1322 751 1279 l 915 1322 z "},"ŭ":{"ha":864,"x_min":65,"x_max":848,"o":"m 330 254 q 346 210 330 224 q 382 196 361 196 q 455 249 422 196 q 507 395 488 302 l 586 768 l 848 768 l 686 0 l 476 0 l 485 107 l 479 107 q 392 15 443 44 q 268 -14 342 -14 q 119 44 172 -14 q 65 204 65 102 q 82 359 65 276 l 168 768 l 431 768 l 343 350 q 330 254 330 294 m 816 1093 q 719 904 795 966 q 508 842 643 842 q 330 898 395 842 q 266 1055 266 955 q 272 1093 266 1081 l 419 1093 q 449 1027 419 1049 q 530 1006 479 1006 q 620 1028 587 1006 q 666 1093 652 1050 l 816 1093 z "},"Ů":{"ha":974,"x_min":85,"x_max":983,"o":"m 983 991 l 848 359 q 696 78 808 169 q 390 -14 583 -14 q 230 24 299 -14 q 122 128 160 61 q 85 278 85 195 q 93 366 85 321 l 228 991 l 493 991 l 361 372 q 351 294 351 326 q 433 208 351 208 q 533 252 497 208 q 589 386 570 296 l 718 991 l 983 991 m 798 1240 q 747 1116 798 1164 q 616 1068 696 1068 q 484 1115 534 1068 q 433 1239 433 1161 q 483 1364 433 1316 q 616 1411 533 1411 q 747 1363 696 1411 q 798 1240 798 1316 m 675 1239 q 657 1281 675 1265 q 616 1297 640 1297 q 573 1281 591 1297 q 555 1239 555 1265 q 571 1198 555 1214 q 616 1182 587 1182 q 659 1199 642 1182 q 675 1239 675 1216 z "},"ů":{"ha":864,"x_min":65,"x_max":848,"o":"m 330 254 q 346 210 330 224 q 382 196 361 196 q 455 249 422 196 q 507 395 488 302 l 586 768 l 848 768 l 686 0 l 476 0 l 485 107 l 479 107 q 392 15 443 44 q 268 -14 342 -14 q 119 44 172 -14 q 65 204 65 102 q 82 359 65 276 l 168 768 l 431 768 l 343 350 q 330 254 330 294 m 707 1011 q 656 887 707 935 q 525 839 606 839 q 393 885 443 839 q 342 1010 342 932 q 392 1135 342 1087 q 525 1182 442 1182 q 656 1134 605 1182 q 707 1011 707 1086 m 585 1010 q 567 1052 585 1036 q 525 1068 549 1068 q 483 1052 500 1068 q 465 1010 465 1036 q 480 969 465 985 q 525 953 496 953 q 568 970 551 953 q 585 1010 585 987 z "},"Ű":{"ha":974,"x_min":85,"x_max":1062,"o":"m 983 991 l 848 359 q 696 78 808 169 q 390 -14 583 -14 q 230 24 299 -14 q 122 128 160 61 q 85 278 85 195 q 93 366 85 321 l 228 991 l 493 991 l 361 372 q 351 294 351 326 q 433 208 351 208 q 533 252 497 208 q 589 386 570 296 l 718 991 l 983 991 m 355 1071 l 355 1090 q 432 1190 385 1126 q 503 1293 479 1253 l 754 1293 l 754 1279 q 493 1071 725 1232 l 355 1071 m 669 1071 l 669 1090 l 703 1136 q 810 1293 781 1241 l 1062 1293 l 1062 1279 q 807 1071 1029 1224 l 669 1071 z "},"ű":{"ha":864,"x_min":65,"x_max":965,"o":"m 330 254 q 346 210 330 224 q 382 196 361 196 q 455 249 422 196 q 507 395 488 302 l 586 768 l 848 768 l 686 0 l 476 0 l 485 107 l 479 107 q 392 15 443 44 q 268 -14 342 -14 q 119 44 172 -14 q 65 204 65 102 q 82 359 65 276 l 168 768 l 431 768 l 343 350 q 330 254 330 294 m 258 842 l 258 861 q 335 960 288 897 q 406 1064 382 1023 l 657 1064 l 657 1050 q 396 842 628 1002 l 258 842 m 572 842 l 572 861 l 606 907 q 713 1064 684 1012 l 965 1064 l 965 1050 q 710 842 932 995 l 572 842 z "},"Ų":{"ha":974,"x_min":85,"x_max":983,"o":"m 983 991 l 848 359 q 696 78 808 169 q 390 -14 583 -14 q 230 24 299 -14 q 122 128 160 61 q 85 278 85 195 q 93 366 85 321 l 228 991 l 493 991 l 361 372 q 351 294 351 326 q 433 208 351 208 q 533 252 497 208 q 589 386 570 296 l 718 991 l 983 991 m 527 0 q 440 -77 461 -54 q 409 -122 420 -100 q 397 -167 397 -144 q 407 -191 397 -180 q 433 -201 416 -201 q 513 -184 465 -201 l 513 -335 q 378 -355 449 -355 q 255 -315 301 -355 q 209 -210 209 -274 q 243 -101 209 -151 q 356 0 277 -52 l 527 0 z "},"ų":{"ha":864,"x_min":65,"x_max":848,"o":"m 330 254 q 346 210 330 224 q 382 196 361 196 q 455 249 422 196 q 507 395 488 302 l 586 768 l 848 768 l 686 0 l 476 0 l 485 107 l 479 107 q 392 15 443 44 q 268 -14 342 -14 q 119 44 172 -14 q 65 204 65 102 q 82 359 65 276 l 168 768 l 431 768 l 343 350 q 330 254 330 294 m 689 0 q 603 -77 623 -54 q 571 -122 582 -100 q 559 -167 559 -144 q 569 -191 559 -180 q 595 -201 578 -201 q 675 -184 627 -201 l 675 -335 q 540 -355 611 -355 q 417 -315 463 -355 q 371 -210 371 -274 q 405 -101 371 -151 q 518 0 439 -52 l 689 0 z "},"Ŵ":{"ha":1299,"x_min":103,"x_max":1417,"o":"m 330 240 l 357 311 l 421 468 l 648 991 l 876 991 l 876 454 q 859 240 876 349 q 949 475 865 259 l 1154 991 l 1417 991 l 986 0 l 673 0 l 673 420 q 682 640 673 526 q 602 404 660 550 l 431 0 l 136 0 l 103 991 l 354 991 l 347 494 q 330 240 343 313 m 1079 1071 l 899 1071 q 793 1189 867 1099 q 630 1071 698 1114 l 444 1071 l 444 1086 q 559 1197 498 1135 q 654 1293 621 1258 l 957 1293 q 1010 1192 975 1253 q 1079 1086 1045 1131 l 1079 1071 z "},"ŵ":{"ha":1143,"x_min":69,"x_max":1221,"o":"m 570 0 l 583 304 q 591 446 585 354 q 606 595 597 538 l 600 595 q 518 330 559 437 l 390 0 l 114 0 l 69 768 l 317 768 l 317 421 q 311 245 317 298 l 317 245 q 376 446 348 366 l 493 768 l 783 768 l 770 446 q 747 245 764 358 l 753 245 q 763 278 758 260 q 796 373 769 295 q 960 768 823 450 l 1221 768 l 856 0 l 570 0 m 970 842 l 789 842 q 684 960 758 869 q 521 842 589 885 l 335 842 l 335 857 q 450 967 389 906 q 545 1064 512 1029 l 848 1064 q 901 963 865 1024 q 970 857 936 901 l 970 842 z "},"Ŷ":{"ha":839,"x_min":111,"x_max":953,"o":"m 446 624 l 657 991 l 953 991 l 538 385 l 456 0 l 191 0 l 272 385 l 111 991 l 385 991 l 446 624 m 853 1071 l 673 1071 q 567 1189 642 1099 q 404 1071 472 1114 l 218 1071 l 218 1086 q 334 1197 272 1135 q 428 1293 395 1258 l 731 1293 q 784 1192 749 1253 q 853 1086 819 1131 l 853 1071 z "},"ŷ":{"ha":755,"x_min":-87,"x_max":833,"o":"m 56 768 l 319 768 l 349 387 l 350 345 l 350 286 l 355 286 q 389 398 380 376 q 551 768 398 421 l 833 768 l 379 -97 q 228 -278 314 -222 q 17 -334 142 -334 q -87 -322 -45 -334 l -87 -114 q -14 -122 -56 -122 q 83 -97 45 -122 q 150 -20 121 -73 l 165 8 l 56 768 m 766 842 l 586 842 q 480 960 555 869 q 317 842 385 885 l 132 842 l 132 857 q 247 967 185 906 q 341 1064 309 1029 l 644 1064 q 697 963 662 1024 q 766 857 732 901 l 766 842 z "},"Ÿ":{"ha":839,"x_min":111,"x_max":953,"o":"m 446 624 l 657 991 l 953 991 l 538 385 l 456 0 l 191 0 l 272 385 l 111 991 l 385 991 l 446 624 m 269 1168 q 406 1295 269 1295 q 521 1210 521 1295 q 385 1082 521 1082 q 297 1103 325 1082 q 269 1168 269 1124 m 600 1168 q 736 1295 600 1295 q 850 1210 850 1295 q 816 1113 850 1144 q 715 1082 783 1082 q 627 1103 655 1082 q 600 1168 600 1124 z "},"Ź":{"ha":749,"x_min":-62,"x_max":836,"o":"m 639 0 l -62 0 l -31 164 l 437 775 l 113 775 l 158 991 l 827 991 l 791 825 l 317 216 l 685 216 l 639 0 m 347 1086 q 538 1293 431 1156 l 836 1293 l 836 1283 q 706 1177 806 1246 q 540 1071 607 1107 l 347 1071 l 347 1086 z "},"ź":{"ha":673,"x_min":-28,"x_max":764,"o":"m 545 0 l -28 0 l 1 150 l 342 566 l 106 566 l 151 768 l 701 768 l 665 604 l 329 203 l 589 203 l 545 0 m 275 857 q 466 1064 358 926 l 764 1064 l 764 1054 q 634 947 733 1017 q 467 842 534 878 l 275 842 l 275 857 z "},"Ż":{"ha":749,"x_min":-62,"x_max":827,"o":"m 639 0 l -62 0 l -31 164 l 437 775 l 113 775 l 158 991 l 827 991 l 791 825 l 317 216 l 685 216 l 639 0 m 370 1166 q 525 1308 370 1308 q 622 1283 589 1308 q 654 1213 654 1259 q 500 1071 654 1071 q 401 1095 432 1071 q 370 1166 370 1119 z "},"ż":{"ha":673,"x_min":-28,"x_max":701,"o":"m 545 0 l -28 0 l 1 150 l 342 566 l 106 566 l 151 768 l 701 768 l 665 604 l 329 203 l 589 203 l 545 0 m 287 937 q 441 1079 287 1079 q 538 1054 506 1079 q 570 983 570 1029 q 416 842 570 842 q 318 866 349 842 q 287 937 287 890 z "},"Ž":{"ha":749,"x_min":-62,"x_max":849,"o":"m 639 0 l -62 0 l -31 164 l 437 775 l 113 775 l 158 991 l 827 991 l 791 825 l 317 216 l 685 216 l 639 0 m 215 1293 l 395 1293 q 500 1175 425 1267 q 663 1293 595 1250 l 849 1293 l 849 1278 q 640 1071 758 1200 l 337 1071 q 278 1182 316 1119 q 215 1278 239 1246 l 215 1293 z "},"ž":{"ha":673,"x_min":-28,"x_max":808,"o":"m 545 0 l -28 0 l 1 150 l 342 566 l 106 566 l 151 768 l 701 768 l 665 604 l 329 203 l 589 203 l 545 0 m 174 1064 l 355 1064 q 460 946 384 1038 q 623 1064 555 1021 l 808 1064 l 808 1048 q 599 842 717 971 l 296 842 q 237 953 275 890 q 174 1048 199 1017 l 174 1064 z "},"ſ":{"ha":510,"x_min":-165,"x_max":688,"o":"m -25 -334 q -165 -315 -100 -334 l -165 -110 q -86 -122 -123 -122 q -10 -102 -36 -122 q 25 -37 16 -81 l 210 815 q 309 1004 238 945 q 496 1063 379 1063 q 688 1023 608 1063 l 615 831 q 533 851 573 851 q 489 833 507 851 q 463 783 470 816 l 278 -79 q 174 -272 249 -210 q -25 -334 98 -334 z "},"ƒ":{"ha":806,"x_min":-36,"x_max":804,"o":"m 104 -334 q -36 -315 30 -334 l -36 -107 q 43 -119 1 -119 q 155 -35 138 -119 l 268 500 l 165 500 l 192 637 l 313 699 l 326 758 q 426 945 355 885 q 624 1006 497 1006 q 804 966 723 1006 l 733 775 q 646 798 687 798 q 587 754 597 798 l 575 701 l 717 701 l 672 500 l 532 500 l 408 -79 q 304 -269 382 -204 q 104 -334 227 -334 z "},"Ǻ":{"ha":939,"x_min":-82,"x_max":942,"o":"m 778 1010 q 767 952 778 980 q 737 905 755 924 l 847 0 l 589 0 l 576 186 l 278 186 l 193 0 l -82 0 l 422 947 q 414 1008 414 973 q 464 1133 414 1086 q 596 1181 513 1181 q 727 1133 676 1181 q 778 1010 778 1085 m 539 747 l 521 699 l 505 663 l 375 397 l 568 397 l 550 604 q 546 747 546 698 l 539 747 m 517 1222 q 653 1331 599 1279 l 942 1331 l 942 1325 q 705 1215 866 1267 l 517 1215 l 517 1222 m 656 1008 q 638 1050 656 1034 q 596 1067 620 1067 q 554 1050 572 1067 q 536 1008 536 1034 q 551 967 536 983 q 595 951 566 951 q 638 968 621 951 q 656 1008 656 985 m 620 991 z "},"ǻ":{"ha":843,"x_min":57,"x_max":896,"o":"m 458 1207 q 606 1331 545 1270 l 896 1331 l 896 1322 q 785 1257 855 1291 q 647 1200 715 1222 l 458 1200 l 458 1207 m 694 986 q 644 862 694 909 q 513 814 593 814 q 380 860 431 814 q 330 985 330 907 q 380 1109 330 1062 q 513 1157 430 1157 q 644 1109 593 1157 q 694 986 694 1061 m 572 985 q 554 1027 572 1010 q 513 1043 536 1043 q 471 1027 489 1043 q 453 985 453 1010 q 469 944 453 960 q 513 928 484 928 q 556 945 539 928 q 572 985 572 962 m 383 197 q 448 237 417 197 q 497 343 479 277 q 515 473 515 410 q 502 544 515 517 q 460 571 488 571 q 367 485 408 571 q 325 294 325 399 q 383 197 325 197 m 665 0 l 456 0 l 463 83 l 457 83 q 375 8 419 31 q 275 -14 331 -14 q 113 62 168 -14 q 57 279 57 138 q 106 527 57 401 q 232 718 156 653 q 399 782 307 782 q 499 756 456 782 q 576 673 543 731 l 582 673 l 618 768 l 828 768 l 665 0 z "},"Ǽ":{"ha":1314,"x_min":-85,"x_max":1354,"o":"m 1145 0 l 555 0 l 595 186 l 311 186 l 196 0 l -85 0 l 532 991 l 1354 991 l 1310 777 l 986 777 l 954 621 l 1255 621 l 1207 406 l 905 406 l 867 218 l 1190 218 l 1145 0 m 643 408 l 720 777 l 673 777 l 449 408 l 643 408 m 766 1086 q 957 1293 849 1156 l 1255 1293 l 1255 1283 q 1125 1177 1224 1246 q 958 1071 1025 1107 l 766 1071 l 766 1086 z "},"ǽ":{"ha":1213,"x_min":57,"x_max":1182,"o":"m 808 -14 q 631 62 687 -14 l 610 0 l 456 0 l 463 83 l 457 83 q 375 8 419 31 q 275 -14 331 -14 q 113 62 168 -14 q 57 279 57 138 q 106 527 57 401 q 232 718 156 653 q 399 782 307 782 q 502 756 461 782 q 576 673 543 730 l 582 673 l 618 768 l 758 768 l 758 704 q 848 762 798 742 q 947 782 899 782 q 1118 723 1054 782 q 1182 568 1182 665 q 1076 359 1182 432 q 770 286 969 286 l 729 286 l 729 275 q 840 175 729 175 q 945 191 894 175 q 1063 241 997 207 l 1063 56 q 939 1 996 16 q 808 -14 882 -14 m 383 197 q 474 281 435 197 q 514 473 514 364 q 498 544 514 517 q 454 571 483 571 q 391 532 421 571 q 343 427 361 493 q 325 294 325 361 q 383 197 325 197 m 876 604 q 799 557 835 604 q 755 450 763 510 l 775 450 q 891 478 849 450 q 933 553 933 507 q 920 589 933 574 q 876 604 906 604 m 570 857 q 761 1064 653 926 l 1059 1064 l 1059 1054 q 929 947 1028 1017 q 762 842 829 878 l 570 842 l 570 857 z "},"Ǿ":{"ha":1023,"x_min":64,"x_max":981,"o":"m 596 1007 q 810 958 720 1007 l 872 1036 l 978 956 l 911 871 q 981 625 981 774 q 914 299 981 450 q 730 67 847 149 q 464 -14 613 -14 q 244 33 334 -14 l 172 -58 l 64 21 l 143 119 q 71 368 71 215 q 139 697 71 546 q 326 927 208 848 q 596 1007 444 1007 m 339 366 l 656 765 q 578 787 625 787 q 459 732 514 787 q 372 580 404 676 q 339 372 339 484 l 339 366 m 475 205 q 594 261 539 205 q 681 412 649 316 q 713 621 713 507 l 397 225 q 475 205 429 205 m 486 1086 q 677 1293 570 1156 l 975 1293 l 975 1283 q 845 1177 945 1246 q 679 1071 746 1107 l 486 1071 l 486 1086 z "},"ǿ":{"ha":872,"x_min":45,"x_max":871,"o":"m 372 -14 q 211 20 286 -14 l 131 -75 l 45 -1 l 121 87 q 57 282 57 167 q 112 538 57 422 q 269 718 168 654 q 504 782 370 782 q 673 743 596 782 l 745 825 l 831 751 l 760 668 q 815 486 815 591 q 760 230 815 345 q 605 51 705 115 q 372 -14 505 -14 m 476 595 q 391 557 431 595 q 329 454 352 520 q 304 306 306 387 l 532 575 q 476 595 508 595 m 400 176 q 517 245 473 176 q 567 440 561 314 l 351 186 q 400 176 371 176 m 382 857 q 574 1064 466 926 l 871 1064 l 871 1054 q 742 947 841 1017 q 575 842 642 878 l 382 842 l 382 857 z "},"Ș":{"ha":761,"x_min":29,"x_max":775,"o":"m 663 304 q 563 70 663 154 q 285 -14 463 -14 q 144 3 210 -14 q 29 52 77 20 l 29 289 q 160 229 86 253 q 293 204 233 204 q 369 225 343 204 q 395 285 395 246 q 387 319 395 303 q 363 351 378 335 q 283 421 349 367 q 168 551 204 485 q 132 697 132 618 q 177 857 132 786 q 302 967 221 928 q 484 1006 383 1006 q 775 933 646 1006 l 684 732 q 486 791 568 791 q 419 772 443 791 q 396 717 396 753 q 419 655 396 684 q 505 578 441 626 q 624 454 585 519 q 663 304 663 389 m 87 -289 q 161 -85 140 -156 l 407 -85 l 407 -98 q 249 -307 347 -200 l 87 -307 l 87 -289 z "},"ș":{"ha":697,"x_min":21,"x_max":669,"o":"m 604 267 q 516 59 604 132 q 262 -14 428 -14 q 21 29 112 -14 l 21 240 q 137 193 83 206 q 245 179 191 179 q 315 192 292 179 q 338 227 338 204 q 320 268 338 250 q 232 325 302 285 q 127 415 160 364 q 94 539 94 466 q 176 719 94 656 q 410 782 258 782 q 548 764 486 782 q 669 710 610 747 l 587 539 q 495 586 543 568 q 412 603 447 603 q 361 557 361 603 q 382 522 361 537 q 452 484 404 507 q 604 267 604 408 m 79 -289 q 153 -85 131 -156 l 398 -85 l 398 -98 q 240 -307 338 -200 l 79 -307 l 79 -289 z "},"ˆ":{"ha":770,"x_min":172,"x_max":807,"o":"m 807 842 l 627 842 q 521 960 595 869 q 358 842 426 885 l 172 842 l 172 857 q 288 967 226 906 q 382 1064 349 1029 l 685 1064 q 738 963 703 1024 q 807 857 773 901 l 807 842 z "},"ˇ":{"ha":770,"x_min":218,"x_max":852,"o":"m 218 1064 l 399 1064 q 504 946 428 1038 q 667 1064 599 1021 l 852 1064 l 852 1048 q 643 842 761 971 l 340 842 q 281 953 319 890 q 218 1048 243 1017 l 218 1064 z "},"ˉ":{"ha":743,"x_min":252,"x_max":737,"o":"m 286 1002 l 737 1002 l 704 842 l 252 842 l 286 1002 z "},"˘":{"ha":770,"x_min":271,"x_max":821,"o":"m 821 1093 q 724 904 800 966 q 513 842 648 842 q 335 898 399 842 q 271 1055 271 955 q 277 1093 271 1081 l 424 1093 q 454 1027 424 1049 q 534 1006 484 1006 q 624 1028 592 1006 q 671 1093 656 1050 l 821 1093 z "},"˙":{"ha":461,"x_min":216,"x_max":500,"o":"m 216 937 q 371 1079 216 1079 q 468 1054 435 1079 q 500 983 500 1029 q 346 842 500 842 q 247 866 278 842 q 216 937 216 890 z "},"˚":{"ha":802,"x_min":354,"x_max":718,"o":"m 718 1011 q 668 887 718 935 q 536 839 617 839 q 404 885 454 839 q 354 1010 354 932 q 404 1135 354 1087 q 536 1182 454 1182 q 667 1134 616 1182 q 718 1011 718 1086 m 596 1010 q 578 1052 596 1036 q 536 1068 560 1068 q 494 1052 512 1068 q 476 1010 476 1036 q 492 969 476 985 q 536 953 508 953 q 579 970 563 953 q 596 1010 596 987 z "},"˛":{"ha":307,"x_min":-129,"x_max":189,"o":"m 189 0 q 103 -77 123 -54 q 71 -122 82 -100 q 60 -167 60 -144 q 69 -191 60 -180 q 96 -201 78 -201 q 175 -184 127 -201 l 175 -335 q 40 -355 111 -355 q -83 -315 -37 -355 q -129 -210 -129 -274 q -95 -101 -129 -151 q 18 0 -61 -52 l 189 0 z "},"˜":{"ha":770,"x_min":204,"x_max":818,"o":"m 600 840 q 556 846 578 840 q 515 861 534 851 q 484 876 495 870 q 397 907 434 907 q 356 888 376 907 q 332 839 336 870 l 204 839 q 278 1013 226 956 q 416 1071 330 1071 q 457 1066 439 1071 q 521 1038 474 1062 q 566 1015 542 1026 q 611 1004 589 1004 q 689 1072 664 1004 l 818 1072 q 742 898 795 956 q 600 840 688 840 z "},"˝":{"ha":770,"x_min":143,"x_max":850,"o":"m 143 842 l 143 861 q 220 960 173 897 q 290 1064 267 1023 l 542 1064 l 542 1050 q 281 842 513 1002 l 143 842 m 457 842 l 457 861 l 490 907 q 597 1064 569 1012 l 850 1064 l 850 1050 q 595 842 817 995 l 457 842 z "},"΄":{"ha":761,"x_min":357,"x_max":686,"o":"m 357 859 q 403 968 374 895 q 450 1105 431 1042 l 686 1105 l 686 1089 q 648 1029 667 1059 q 608 969 629 999 q 565 907 588 939 q 514 842 541 876 l 357 842 l 357 859 z "},"΅":{"ha":761,"x_min":179,"x_max":850,"o":"m 179 939 q 298 1065 179 1065 q 399 981 399 1065 q 279 852 399 852 q 203 873 228 852 q 179 939 179 895 m 631 939 q 750 1065 631 1065 q 850 981 850 1065 q 730 852 850 852 q 656 873 681 852 q 631 939 631 893 m 424 956 q 461 1057 443 998 q 490 1164 480 1116 l 693 1164 l 693 1150 q 635 1056 667 1103 q 551 942 604 1009 l 424 942 l 424 956 z "},"Ά":{"ha":939,"x_min":-82,"x_max":847,"o":"m 582 186 l 278 186 l 193 0 l -82 0 l 422 991 l 764 991 l 847 0 l 589 0 l 582 186 m 375 397 l 574 397 l 562 685 l 561 743 q 564 832 561 794 q 522 720 547 774 l 375 397 m 22 787 q 68 897 40 823 q 116 1034 97 970 l 352 1034 l 352 1018 q 313 958 332 987 q 274 898 294 928 q 230 836 254 867 q 180 770 207 805 l 22 770 l 22 787 z "},"·":{"ha":425,"x_min":78,"x_max":366,"o":"m 78 464 q 122 578 78 536 q 243 621 166 621 q 332 593 298 621 q 366 515 366 566 q 321 398 366 436 q 200 359 277 359 q 110 387 142 359 q 78 464 78 414 z "},"Έ":{"ha":932,"x_min":6,"x_max":933,"o":"m 6 787 q 52 897 24 823 q 100 1034 81 970 l 336 1034 l 336 1018 q 297 958 316 987 q 258 898 278 928 q 214 836 237 867 q 163 770 191 805 l 6 770 l 6 787 m 724 0 l 135 0 l 345 991 l 933 991 l 889 777 l 566 777 l 534 621 l 835 621 l 786 406 l 485 406 l 446 218 l 770 218 l 724 0 z "},"Ή":{"ha":1089,"x_min":6,"x_max":1102,"o":"m 6 787 q 52 897 24 823 q 100 1034 81 970 l 336 1034 l 336 1018 q 297 958 316 987 q 258 898 278 928 q 214 836 237 867 q 163 770 191 805 l 6 770 l 6 787 m 892 0 l 627 0 l 711 404 l 477 404 l 391 0 l 125 0 l 335 991 l 600 991 l 524 624 l 760 624 l 836 991 l 1102 991 l 892 0 z "},"Ό":{"ha":1122,"x_min":30,"x_max":1079,"o":"m 30 787 q 76 897 47 823 q 123 1034 104 970 l 359 1034 l 359 1018 q 321 958 340 987 q 281 898 302 928 q 238 836 261 867 q 187 770 214 805 l 30 770 l 30 787 m 707 1007 q 981 906 883 1007 q 1079 625 1079 806 q 1011 295 1079 445 q 825 66 944 146 q 550 -14 707 -14 q 268 87 368 -14 q 169 368 169 189 q 239 699 169 548 q 429 928 309 849 q 707 1007 549 1007 m 811 623 q 779 744 811 700 q 684 787 746 787 q 561 730 617 787 q 471 574 505 673 q 437 370 437 474 q 573 205 437 205 q 693 262 637 205 q 780 414 748 318 q 811 623 811 509 z "},"Ύ":{"ha":1063,"x_min":6,"x_max":1192,"o":"m 684 624 l 896 991 l 1192 991 l 777 385 l 694 0 l 429 0 l 511 385 l 350 991 l 623 991 l 684 624 m 6 787 q 52 897 24 823 q 100 1034 81 970 l 336 1034 l 336 1018 q 297 958 316 987 q 258 898 278 928 q 214 836 237 867 q 163 770 191 805 l 6 770 l 6 787 z "},"Ώ":{"ha":1179,"x_min":21,"x_max":1137,"o":"m 697 787 q 583 749 634 787 q 497 636 531 711 q 464 486 464 562 q 483 347 464 399 q 550 252 501 295 l 494 0 l 49 0 l 95 220 l 357 220 q 240 344 283 265 q 196 513 196 423 q 260 774 196 662 q 442 947 324 887 q 711 1007 559 1007 q 1022 911 907 1007 q 1137 653 1137 816 q 1064 380 1137 486 q 850 220 991 275 l 1113 220 l 1065 0 l 620 0 l 675 252 q 815 397 762 299 q 868 618 868 495 q 822 741 868 695 q 697 787 776 787 m 21 787 q 67 897 39 823 q 115 1034 96 970 l 351 1034 l 351 1018 q 312 958 331 987 q 273 898 293 928 q 229 836 252 867 q 178 770 205 805 l 21 770 l 21 787 z "},"ΐ":{"ha":554,"x_min":18,"x_max":689,"o":"m 485 26 q 273 -14 401 -14 q 107 29 157 -14 q 58 164 58 71 q 72 262 58 201 l 176 768 l 439 768 l 342 289 q 334 232 334 250 q 343 207 334 216 q 370 197 353 197 q 485 220 429 197 l 485 26 m 18 939 q 138 1065 18 1065 q 238 981 238 1065 q 119 852 238 852 q 43 873 67 852 q 18 939 18 895 m 470 939 q 589 1065 470 1065 q 689 981 689 1065 q 570 852 689 852 q 495 873 520 852 q 470 939 470 893 m 263 956 q 301 1057 282 998 q 330 1164 319 1116 l 532 1164 l 532 1150 q 475 1056 506 1103 q 391 942 444 1009 l 263 942 l 263 956 z "},"Α":{"ha":939,"x_min":-82,"x_max":847,"o":"m 582 186 l 278 186 l 193 0 l -82 0 l 422 991 l 764 991 l 847 0 l 589 0 l 582 186 m 375 397 l 574 397 l 562 685 l 561 743 q 564 832 561 794 q 522 720 547 774 l 375 397 z "},"Β":{"ha":880,"x_min":22,"x_max":861,"o":"m 232 991 l 562 991 q 785 936 709 991 q 861 775 861 880 q 660 519 861 580 l 660 514 q 755 445 720 494 q 790 325 790 396 q 687 85 790 170 q 393 0 583 0 l 22 0 l 232 991 m 416 611 l 465 611 q 555 637 525 611 q 586 720 586 663 q 500 789 586 789 l 457 789 l 416 611 m 376 415 l 332 207 l 387 207 q 485 240 446 207 q 524 322 524 273 q 501 392 524 369 q 422 415 479 415 l 376 415 z "},"Γ":{"ha":732,"x_min":22,"x_max":817,"o":"m 288 0 l 22 0 l 232 991 l 817 991 l 771 775 l 452 775 l 288 0 z "},"Δ":{"ha":920,"x_min":-49,"x_max":822,"o":"m -49 0 l -18 153 l 424 991 l 751 991 l 822 153 l 789 0 l -49 0 m 277 211 l 568 211 l 553 726 q 555 815 553 777 q 514 703 539 757 l 277 211 z "},"Ε":{"ha":781,"x_min":22,"x_max":821,"o":"m 611 0 l 22 0 l 232 991 l 821 991 l 777 777 l 453 777 l 421 621 l 722 621 l 673 406 l 372 406 l 334 218 l 657 218 l 611 0 z "},"Ζ":{"ha":749,"x_min":-62,"x_max":827,"o":"m 639 0 l -62 0 l -31 164 l 437 775 l 113 775 l 158 991 l 827 991 l 791 825 l 317 216 l 685 216 l 639 0 z "},"Η":{"ha":991,"x_min":22,"x_max":999,"o":"m 789 0 l 524 0 l 608 404 l 374 404 l 288 0 l 22 0 l 232 991 l 497 991 l 421 624 l 657 624 l 733 991 l 999 991 l 789 0 z "},"Θ":{"ha":1065,"x_min":71,"x_max":1022,"o":"m 705 606 l 659 397 l 396 397 l 443 606 l 705 606 m 619 1007 q 918 904 814 1007 q 1022 612 1022 802 q 951 294 1022 442 q 758 66 880 145 q 482 -14 635 -14 q 175 90 280 -14 q 71 390 71 194 q 143 704 71 557 q 339 929 216 851 q 619 1007 462 1007 m 754 607 q 715 738 754 689 q 604 787 675 787 q 471 733 532 787 q 374 584 410 679 q 339 383 339 488 q 377 249 339 292 q 490 205 414 205 q 626 257 566 205 q 721 402 687 309 q 754 607 754 496 z "},"Κ":{"ha":929,"x_min":22,"x_max":1032,"o":"m 842 0 l 545 0 l 427 392 l 361 354 l 288 0 l 22 0 l 232 991 l 497 991 l 406 568 l 431 608 q 519 741 491 705 l 721 991 l 1032 991 l 659 534 l 842 0 z "},"Λ":{"ha":857,"x_min":-79,"x_max":779,"o":"m 201 0 l -79 0 l 411 991 l 707 991 l 779 0 l 519 0 l 501 482 l 500 536 l 500 578 q 511 751 500 684 l 505 751 q 476 649 495 707 q 437 546 457 591 l 201 0 z "},"Μ":{"ha":1263,"x_min":22,"x_max":1270,"o":"m 399 0 l 399 711 l 393 711 q 335 364 348 429 l 258 0 l 22 0 l 232 991 l 583 991 l 583 288 l 589 288 l 913 991 l 1270 991 l 1057 0 l 819 0 l 899 372 q 972 668 932 527 l 982 711 l 977 711 l 650 0 l 399 0 z "},"Ν":{"ha":1097,"x_min":22,"x_max":1104,"o":"m 895 0 l 586 0 l 390 697 l 385 697 q 346 414 365 500 l 258 0 l 22 0 l 232 991 l 541 991 l 734 325 l 741 325 q 779 576 760 485 l 868 991 l 1104 991 l 895 0 z "},"Ξ":{"ha":772,"x_min":-28,"x_max":812,"o":"m 160 621 l 693 621 l 644 406 l 110 406 l 160 621 m 195 991 l 812 991 l 766 777 l 149 777 l 195 991 m 673 218 l 629 0 l -28 0 l 16 218 l 673 218 z "},"Ο":{"ha":1023,"x_min":71,"x_max":981,"o":"m 608 1007 q 883 906 785 1007 q 981 625 981 806 q 913 295 981 445 q 727 66 846 146 q 452 -14 608 -14 q 170 87 269 -14 q 71 368 71 189 q 140 699 71 548 q 331 928 210 849 q 608 1007 451 1007 m 713 623 q 680 744 713 700 q 586 787 648 787 q 463 730 519 787 q 373 574 406 673 q 339 370 339 474 q 475 205 339 205 q 594 262 539 205 q 681 414 650 318 q 713 623 713 509 z "},"Π":{"ha":991,"x_min":22,"x_max":999,"o":"m 789 0 l 524 0 l 685 772 l 450 772 l 288 0 l 22 0 l 232 991 l 999 991 l 789 0 z "},"Ρ":{"ha":865,"x_min":22,"x_max":848,"o":"m 848 694 q 732 426 848 524 q 414 329 616 329 l 355 329 l 288 0 l 22 0 l 232 991 l 485 991 q 754 915 661 991 q 848 694 848 838 m 403 546 l 446 546 q 545 586 507 546 q 583 686 583 625 q 559 751 583 726 q 492 775 534 775 l 452 775 l 403 546 z "},"Σ":{"ha":766,"x_min":-41,"x_max":815,"o":"m -41 0 l -3 191 l 343 517 l 135 804 l 175 991 l 815 991 l 770 775 l 439 775 l 636 500 l 339 216 l 689 216 l 644 0 l -41 0 z "},"Τ":{"ha":766,"x_min":106,"x_max":850,"o":"m 425 0 l 160 0 l 321 772 l 106 772 l 153 991 l 850 991 l 802 772 l 586 772 l 425 0 z "},"Υ":{"ha":839,"x_min":111,"x_max":953,"o":"m 446 624 l 657 991 l 953 991 l 538 385 l 456 0 l 191 0 l 272 385 l 111 991 l 385 991 l 446 624 z "},"Φ":{"ha":1175,"x_min":62,"x_max":1139,"o":"m 62 460 q 190 764 62 654 q 554 884 317 873 l 579 1006 l 829 1006 l 804 884 q 1049 783 960 868 q 1139 562 1139 697 q 1013 255 1139 361 q 646 139 888 148 l 612 -14 l 363 -14 l 396 139 q 151 239 239 155 q 62 460 62 324 m 323 473 q 353 375 323 406 q 440 340 382 345 l 511 681 q 372 624 421 677 q 323 473 323 570 m 878 547 q 761 681 878 666 l 690 342 q 829 396 781 343 q 878 547 878 450 z "},"Χ":{"ha":921,"x_min":-85,"x_max":1025,"o":"m 838 0 l 545 0 l 446 338 l 216 0 l -85 0 l 297 526 l 146 991 l 428 991 l 511 673 l 721 991 l 1025 991 l 660 500 l 838 0 z "},"Ψ":{"ha":1225,"x_min":109,"x_max":1268,"o":"m 646 0 l 396 0 l 453 269 q 199 343 289 272 q 109 546 109 415 q 119 648 109 597 l 193 991 l 450 991 l 378 646 q 367 570 367 595 q 377 520 367 538 q 411 494 388 503 q 490 486 435 486 l 498 486 l 606 991 l 856 991 l 750 486 l 766 486 q 854 501 824 486 q 905 549 884 515 q 937 643 925 583 l 1011 991 l 1268 991 l 1185 610 q 1099 408 1156 477 q 945 306 1042 338 q 704 269 847 273 l 646 0 z "},"Ω":{"ha":1074,"x_min":-57,"x_max":1031,"o":"m 591 787 q 477 749 528 787 q 392 636 425 711 q 358 486 358 562 q 377 347 358 399 q 444 252 395 295 l 389 0 l -57 0 l -11 220 l 252 220 q 134 344 178 265 q 90 513 90 423 q 154 774 90 662 q 336 947 218 887 q 606 1007 454 1007 q 916 911 802 1007 q 1031 653 1031 816 q 958 380 1031 486 q 745 220 885 275 l 1007 220 l 960 0 l 514 0 l 570 252 q 709 397 656 299 q 762 618 762 495 q 716 741 762 695 q 591 787 670 787 z "},"Ϋ":{"ha":839,"x_min":111,"x_max":953,"o":"m 446 624 l 657 991 l 953 991 l 538 385 l 456 0 l 191 0 l 272 385 l 111 991 l 385 991 l 446 624 m 256 1168 q 392 1295 256 1295 q 507 1210 507 1295 q 371 1082 507 1082 q 283 1103 311 1082 q 256 1168 256 1124 m 586 1168 q 722 1295 586 1295 q 836 1210 836 1295 q 803 1113 836 1144 q 701 1082 769 1082 q 614 1103 642 1082 q 586 1168 586 1124 z "},"ά":{"ha":875,"x_min":57,"x_max":875,"o":"m 401 782 q 468 771 439 782 q 519 740 496 760 q 576 669 542 719 l 582 669 q 647 768 612 733 l 875 768 q 807 630 840 713 q 755 464 774 547 l 720 302 q 710 237 710 264 q 753 196 710 196 q 798 204 770 196 l 798 8 q 657 -14 743 -14 q 540 10 585 -14 q 472 83 495 34 l 463 83 q 406 24 431 43 q 351 -4 381 6 q 278 -14 321 -14 q 115 62 173 -14 q 57 279 57 138 q 106 528 57 404 q 231 717 155 652 q 401 782 307 782 m 382 197 q 444 235 414 197 q 492 336 474 273 q 510 473 510 400 q 500 545 510 519 q 460 571 490 571 q 395 531 427 571 q 344 425 363 490 q 325 294 325 359 q 340 222 325 246 q 382 197 356 197 m 419 859 q 465 968 437 895 q 513 1105 494 1042 l 749 1105 l 749 1089 q 710 1029 729 1059 q 671 969 691 999 q 627 907 650 939 q 576 842 604 876 l 419 842 l 419 859 z "},"έ":{"ha":774,"x_min":28,"x_max":793,"o":"m 574 313 l 457 313 q 340 296 381 313 q 300 249 300 280 q 335 200 300 217 q 429 183 370 183 q 535 194 484 183 q 657 240 585 205 l 657 39 q 361 -14 550 -14 q 118 46 209 -14 q 28 208 28 106 q 83 341 28 292 q 258 407 139 389 l 258 412 q 136 567 136 456 q 230 725 136 669 q 488 782 323 782 q 647 767 573 782 q 793 720 721 752 l 715 533 q 606 575 664 561 q 505 590 547 590 q 416 578 447 590 q 386 536 386 566 q 416 497 386 510 q 513 485 447 485 l 610 485 l 574 313 m 393 859 q 439 968 410 895 q 486 1105 467 1042 l 722 1105 l 722 1089 q 684 1029 703 1059 q 644 969 665 999 q 601 907 624 939 q 550 842 577 876 l 393 842 l 393 859 z "},"ή":{"ha":864,"x_min":16,"x_max":799,"o":"m 533 515 q 518 559 533 545 q 482 574 503 574 q 408 535 434 574 q 357 375 382 496 l 278 0 l 16 0 l 178 768 l 387 768 l 379 661 l 385 661 q 472 754 422 726 q 596 782 523 782 q 745 724 692 782 q 799 564 799 666 q 782 408 799 492 l 628 -334 l 366 -334 l 521 419 q 533 515 533 472 m 426 859 q 472 968 444 895 q 519 1105 500 1042 l 755 1105 l 755 1089 q 717 1029 736 1059 q 677 969 698 999 q 634 907 657 939 q 583 842 610 876 l 426 842 l 426 859 z "},"ί":{"ha":554,"x_min":58,"x_max":541,"o":"m 485 26 q 273 -14 401 -14 q 107 29 157 -14 q 58 164 58 71 q 72 262 58 201 l 176 768 l 439 768 l 342 289 q 334 232 334 250 q 343 207 334 216 q 370 197 353 197 q 485 220 429 197 l 485 26 m 212 859 q 258 968 229 895 q 305 1105 286 1042 l 541 1105 l 541 1089 q 503 1029 522 1059 q 463 969 484 999 q 419 907 443 939 q 369 842 396 876 l 212 842 l 212 859 z "},"ΰ":{"ha":867,"x_min":65,"x_max":852,"o":"m 363 -14 q 141 54 216 -14 q 65 252 65 121 q 75 346 65 277 l 165 768 l 427 768 l 335 334 q 328 268 328 300 q 343 213 328 229 q 390 197 359 197 q 516 332 475 197 q 557 741 557 466 l 557 768 l 818 768 q 822 671 822 715 q 711 150 822 314 q 363 -14 600 -14 m 182 939 q 301 1065 182 1065 q 401 981 401 1065 q 282 852 401 852 q 206 873 231 852 q 182 939 182 895 m 633 939 q 753 1065 633 1065 q 852 981 852 1065 q 733 852 852 852 q 659 873 684 852 q 633 939 633 893 m 427 956 q 464 1057 446 998 q 493 1164 483 1116 l 696 1164 l 696 1150 q 638 1056 669 1103 q 554 942 607 1009 l 427 942 l 427 956 z "},"α":{"ha":875,"x_min":57,"x_max":875,"o":"m 401 782 q 468 771 439 782 q 519 740 496 760 q 576 669 542 719 l 582 669 q 647 768 612 733 l 875 768 q 807 630 840 713 q 755 464 774 547 l 720 302 q 710 237 710 264 q 753 196 710 196 q 798 204 770 196 l 798 8 q 657 -14 743 -14 q 540 10 585 -14 q 472 83 495 34 l 463 83 q 406 24 431 43 q 351 -4 381 6 q 278 -14 321 -14 q 115 62 173 -14 q 57 279 57 138 q 106 528 57 404 q 231 717 155 652 q 401 782 307 782 m 382 197 q 444 235 414 197 q 492 336 474 273 q 510 473 510 400 q 500 545 510 519 q 460 571 490 571 q 395 531 427 571 q 344 425 363 490 q 325 294 325 359 q 340 222 325 246 q 382 197 356 197 z "},"β":{"ha":897,"x_min":-53,"x_max":869,"o":"m -53 -334 l 164 704 q 296 976 202 889 q 551 1063 390 1063 q 788 999 707 1063 q 869 812 869 935 q 803 630 869 702 q 627 549 737 558 q 763 473 710 536 q 815 315 815 409 q 724 73 815 159 q 461 -14 632 -14 q 286 29 347 -14 l 210 -334 l -53 -334 m 330 231 q 375 207 348 216 q 432 197 403 197 q 518 234 484 197 q 551 326 551 270 q 522 418 551 387 q 441 449 492 449 l 432 449 l 473 646 l 494 646 q 577 683 545 646 q 610 778 610 721 q 592 837 610 817 q 545 857 574 857 q 475 823 500 857 q 433 714 450 789 l 330 231 z "},"γ":{"ha":760,"x_min":31,"x_max":840,"o":"m 340 288 q 374 373 353 326 q 559 768 395 421 l 840 768 l 482 110 q 368 -127 410 -23 q 304 -334 326 -231 l 31 -334 q 153 11 68 -149 l 64 768 l 319 768 l 334 482 q 336 376 336 436 l 335 288 l 340 288 z "},"δ":{"ha":831,"x_min":39,"x_max":886,"o":"m 334 625 q 245 821 245 710 q 336 998 245 934 q 582 1063 426 1063 q 744 1045 675 1063 q 886 987 813 1028 l 782 800 q 671 854 724 838 q 579 871 617 871 q 525 857 545 871 q 505 817 505 843 q 527 763 505 790 q 614 679 548 736 q 726 541 691 612 q 761 386 761 470 q 712 174 761 265 q 571 35 663 83 q 354 -14 479 -14 q 119 57 200 -14 q 39 258 39 127 q 113 481 39 388 q 334 625 188 574 m 371 183 q 460 239 422 183 q 497 375 497 295 q 479 453 497 420 q 440 504 462 486 q 340 415 378 473 q 302 281 302 356 q 320 209 302 235 q 371 183 337 183 z "},"ε":{"ha":774,"x_min":28,"x_max":793,"o":"m 574 313 l 457 313 q 340 296 381 313 q 300 249 300 280 q 335 200 300 217 q 429 183 370 183 q 535 194 484 183 q 657 240 585 205 l 657 39 q 361 -14 550 -14 q 118 46 209 -14 q 28 208 28 106 q 83 341 28 292 q 258 407 139 389 l 258 412 q 136 567 136 456 q 230 725 136 669 q 488 782 323 782 q 647 767 573 782 q 793 720 721 752 l 715 533 q 606 575 664 561 q 505 590 547 590 q 416 578 447 590 q 386 536 386 566 q 416 497 386 510 q 513 485 447 485 l 610 485 l 574 313 z "},"ζ":{"ha":664,"x_min":45,"x_max":800,"o":"m 45 318 q 144 599 45 457 q 433 872 244 741 q 319 864 401 864 l 174 864 l 216 1055 l 800 1055 l 768 911 q 504 695 605 790 q 357 524 403 601 q 311 358 311 447 q 338 288 311 318 q 433 222 366 257 q 566 123 519 178 q 612 -7 612 68 q 582 -129 612 -70 q 482 -257 552 -187 l 203 -257 q 338 -71 338 -135 q 331 -37 338 -51 q 308 -11 323 -23 q 268 16 292 2 q 210 49 244 29 q 85 159 125 95 q 45 318 45 224 z "},"η":{"ha":864,"x_min":16,"x_max":799,"o":"m 533 515 q 518 559 533 545 q 482 574 503 574 q 408 535 434 574 q 357 375 382 496 l 278 0 l 16 0 l 178 768 l 387 768 l 379 661 l 385 661 q 472 754 422 726 q 596 782 523 782 q 745 724 692 782 q 799 564 799 666 q 782 408 799 492 l 628 -334 l 366 -334 l 521 419 q 533 515 533 472 z "},"θ":{"ha":850,"x_min":65,"x_max":825,"o":"m 825 749 q 766 364 825 559 q 606 78 706 169 q 359 -14 505 -14 q 140 68 215 -14 q 65 301 65 150 q 102 599 65 434 q 200 866 140 764 q 346 1020 261 968 q 547 1071 431 1071 q 752 987 680 1071 q 825 749 825 903 m 330 437 q 314 267 314 332 q 329 202 314 226 q 374 178 343 178 q 455 249 415 178 q 524 437 495 320 l 330 437 m 519 879 q 445 821 481 879 q 371 629 409 763 l 564 629 q 576 787 576 726 q 519 879 576 879 z "},"ι":{"ha":554,"x_min":58,"x_max":485,"o":"m 485 26 q 273 -14 401 -14 q 107 29 157 -14 q 58 164 58 71 q 72 262 58 201 l 176 768 l 439 768 l 342 289 q 334 232 334 250 q 343 207 334 216 q 370 197 353 197 q 485 220 429 197 l 485 26 z "},"κ":{"ha":857,"x_min":16,"x_max":929,"o":"m 176 768 l 439 768 l 404 606 q 381 524 397 572 q 357 454 366 476 l 363 454 q 468 590 416 535 l 629 768 l 929 768 l 599 421 l 785 0 l 488 0 l 393 265 l 325 229 l 278 0 l 16 0 l 176 768 z "},"λ":{"ha":839,"x_min":-75,"x_max":783,"o":"m 329 713 l 326 749 q 300 837 321 806 q 244 867 279 867 q 176 857 218 867 l 144 1046 q 304 1064 215 1064 q 494 997 428 1064 q 579 796 559 929 l 642 380 q 676 238 656 279 q 737 197 696 197 q 783 204 755 197 l 783 11 q 625 -14 722 -14 q 527 6 568 -14 q 460 66 486 26 q 419 177 434 106 q 397 315 404 248 q 393 387 391 382 l 387 387 q 338 253 365 308 l 208 0 l -75 0 l 329 713 z "},"μ":{"ha":873,"x_min":-56,"x_max":859,"o":"m 370 -14 q 281 39 300 -14 l 275 39 q 243 -167 269 -52 l 207 -334 l -56 -334 l 178 768 l 440 768 l 353 350 q 340 254 340 297 q 356 210 340 224 q 392 196 371 196 q 448 214 427 196 q 484 273 469 231 q 517 395 500 314 l 596 768 l 859 768 l 696 0 l 500 0 l 504 83 l 498 83 q 370 -14 452 -14 z "},"ν":{"ha":803,"x_min":65,"x_max":825,"o":"m 65 768 l 322 768 l 351 349 q 354 233 354 321 l 361 233 q 485 484 440 357 q 554 768 529 610 l 825 768 q 687 345 789 535 q 416 0 585 155 l 161 0 l 65 768 z "},"ξ":{"ha":682,"x_min":45,"x_max":749,"o":"m 607 646 l 564 449 l 526 449 q 363 425 417 449 q 310 346 310 401 q 331 289 310 313 q 432 222 351 266 q 573 114 534 167 q 612 -9 612 62 q 583 -130 612 -72 q 484 -257 553 -189 l 204 -257 q 338 -68 338 -139 q 307 -14 338 -40 q 195 56 276 12 q 80 156 115 99 q 45 293 45 213 q 94 454 45 388 q 239 553 142 520 l 239 558 q 165 621 188 586 q 142 703 142 656 q 185 809 142 765 q 307 872 229 854 q 179 864 239 864 l 129 864 l 172 1055 l 749 1055 l 710 872 l 679 872 q 476 835 549 872 q 403 730 403 798 q 432 666 403 687 q 534 646 462 646 l 607 646 z "},"ο":{"ha":843,"x_min":57,"x_max":786,"o":"m 353 -14 q 134 63 211 -14 q 57 282 57 140 q 111 539 57 425 q 262 718 165 654 q 490 782 360 782 q 709 705 632 782 q 786 486 786 629 q 732 229 786 344 q 581 50 678 114 q 353 -14 483 -14 m 460 585 q 365 490 404 585 q 325 273 325 395 q 382 183 325 183 q 477 277 437 183 q 518 494 518 372 q 503 562 518 539 q 460 585 487 585 z "},"π":{"ha":1099,"x_min":53,"x_max":1101,"o":"m 981 31 q 755 -14 891 -14 q 600 32 648 -14 q 551 171 551 77 q 566 289 551 229 l 624 571 l 485 571 l 363 0 l 100 0 l 222 571 l 53 571 l 79 713 l 212 768 l 1101 768 l 1063 571 l 886 571 l 828 304 q 819 239 819 264 q 863 197 819 197 q 981 225 913 197 l 981 31 z "},"ρ":{"ha":850,"x_min":-52,"x_max":793,"o":"m 793 476 q 750 220 793 332 q 627 47 707 108 q 441 -14 547 -14 q 345 9 383 -14 q 289 69 306 33 l 283 69 q 270 -45 279 15 q 211 -334 260 -106 l -52 -334 l 100 400 q 179 625 130 547 q 306 743 227 704 q 500 782 384 782 q 714 698 635 782 q 793 476 793 614 m 476 571 q 407 528 433 571 q 361 387 382 485 l 332 245 q 397 197 349 197 q 463 236 434 197 q 510 351 492 275 q 528 479 528 427 q 476 571 528 571 z "},"ς":{"ha":692,"x_min":57,"x_max":717,"o":"m 322 342 q 339 290 322 311 q 393 250 355 269 q 523 171 481 205 q 582 94 564 137 q 600 -9 600 51 q 569 -132 600 -73 q 471 -257 538 -191 l 192 -257 q 290 -150 255 -201 q 325 -60 325 -98 q 315 -21 325 -36 q 279 12 304 -7 q 207 56 254 31 q 92 156 127 99 q 57 293 57 213 q 109 547 57 434 q 254 721 160 659 q 468 782 347 782 q 601 768 543 782 q 717 725 659 755 l 633 533 q 562 561 599 549 q 481 574 526 574 q 405 544 440 574 q 346 455 370 514 q 322 342 322 395 z "},"σ":{"ha":885,"x_min":57,"x_max":945,"o":"m 782 395 q 728 180 782 277 q 583 35 675 84 q 371 -14 490 -14 q 140 64 222 -14 q 57 282 57 142 q 188 641 57 513 q 557 768 319 768 l 945 768 l 900 571 l 722 571 q 782 395 782 496 m 504 571 q 374 495 422 571 q 325 292 325 420 q 345 212 325 240 q 397 183 365 183 q 488 259 456 183 q 519 465 519 336 q 504 571 519 526 z "},"τ":{"ha":725,"x_min":45,"x_max":739,"o":"m 432 239 q 475 197 432 197 q 593 225 526 197 l 593 31 q 368 -14 503 -14 q 213 31 261 -14 q 164 171 164 76 q 168 230 164 194 q 178 289 172 265 l 240 571 l 45 571 l 72 713 l 199 768 l 739 768 l 696 571 l 498 571 l 441 304 q 432 239 432 261 z "},"υ":{"ha":867,"x_min":65,"x_max":822,"o":"m 363 -14 q 141 54 216 -14 q 65 252 65 121 q 75 346 65 277 l 165 768 l 427 768 l 335 334 q 328 268 328 300 q 343 213 328 229 q 390 197 359 197 q 516 332 475 197 q 557 741 557 466 l 557 768 l 818 768 q 822 671 822 715 q 711 150 822 314 q 363 -14 600 -14 z "},"φ":{"ha":1169,"x_min":57,"x_max":1112,"o":"m 363 -11 q 136 101 215 12 q 57 334 57 191 q 283 781 57 599 l 447 627 q 322 339 322 509 q 342 239 322 280 q 403 186 363 199 l 467 493 q 579 712 498 643 q 800 782 661 782 q 1030 699 948 782 q 1112 468 1112 616 q 1052 222 1112 330 q 878 55 991 115 q 615 -11 764 -5 l 550 -334 l 297 -334 l 363 -11 m 847 486 q 832 559 847 534 q 789 585 817 585 q 718 490 738 585 l 656 186 q 757 240 714 198 q 824 348 800 283 q 847 486 847 413 z "},"χ":{"ha":804,"x_min":-205,"x_max":899,"o":"m 221 782 q 368 735 318 782 q 439 578 418 688 l 450 518 l 602 768 l 899 768 l 514 239 l 564 -61 q 584 -108 569 -94 q 625 -122 598 -122 q 704 -111 659 -122 l 704 -309 q 536 -334 624 -334 q 393 -284 440 -334 q 328 -118 346 -235 l 309 17 l 92 -334 l -205 -334 l 244 296 l 208 488 q 184 551 200 532 q 138 571 168 571 q 86 561 118 571 l 45 750 q 128 773 76 764 q 221 782 180 782 z "},"ψ":{"ha":1203,"x_min":65,"x_max":1158,"o":"m 686 197 q 848 328 798 216 q 897 664 897 440 q 892 768 897 692 l 1153 768 q 1158 669 1158 705 q 1105 275 1158 415 q 937 66 1051 135 q 643 -14 823 -3 l 578 -334 l 325 -334 l 390 -14 q 148 64 231 0 q 65 233 65 127 q 78 338 65 283 l 168 768 l 429 768 l 338 334 q 330 267 330 300 q 359 218 330 236 q 433 197 387 199 l 614 1055 l 867 1055 l 686 197 z "},"ω":{"ha":1196,"x_min":45,"x_max":1152,"o":"m 550 121 q 445 18 505 49 q 294 -14 384 -14 q 110 59 174 -14 q 45 273 45 132 q 211 768 45 494 l 481 768 q 353 522 401 654 q 306 285 306 389 q 320 211 306 231 q 366 191 335 191 q 419 224 398 191 q 460 350 439 258 l 501 546 l 757 546 l 714 350 q 699 244 699 280 q 710 202 699 213 q 747 191 721 191 q 851 304 812 191 q 890 587 890 418 q 869 768 890 687 l 1139 768 q 1152 595 1152 672 q 1050 141 1152 296 q 757 -14 949 -14 q 614 21 664 -14 q 550 121 565 55 z "},"ϊ":{"ha":554,"x_min":58,"x_max":678,"o":"m 485 26 q 273 -14 401 -14 q 107 29 157 -14 q 58 164 58 71 q 72 262 58 201 l 176 768 l 439 768 l 342 289 q 334 232 334 250 q 343 207 334 216 q 370 197 353 197 q 485 220 429 197 l 485 26 m 98 939 q 234 1065 98 1065 q 349 981 349 1065 q 213 852 349 852 q 125 873 153 852 q 98 939 98 895 m 428 939 q 564 1065 428 1065 q 678 981 678 1065 q 645 884 678 915 q 543 852 611 852 q 456 873 484 852 q 428 939 428 895 z "},"ϋ":{"ha":867,"x_min":65,"x_max":822,"o":"m 363 -14 q 141 54 216 -14 q 65 252 65 121 q 75 346 65 277 l 165 768 l 427 768 l 335 334 q 328 268 328 300 q 343 213 328 229 q 390 197 359 197 q 516 332 475 197 q 557 741 557 466 l 557 768 l 818 768 q 822 671 822 715 q 711 150 822 314 q 363 -14 600 -14 m 228 939 q 364 1065 228 1065 q 479 981 479 1065 q 343 852 479 852 q 256 873 283 852 q 228 939 228 895 m 558 939 q 694 1065 558 1065 q 808 981 808 1065 q 775 884 808 915 q 673 852 741 852 q 586 873 614 852 q 558 939 558 895 z "},"ό":{"ha":843,"x_min":57,"x_max":786,"o":"m 353 -14 q 134 63 211 -14 q 57 282 57 140 q 111 539 57 425 q 262 718 165 654 q 490 782 360 782 q 709 705 632 782 q 786 486 786 629 q 732 229 786 344 q 581 50 678 114 q 353 -14 483 -14 m 460 585 q 365 490 404 585 q 325 273 325 395 q 382 183 325 183 q 477 277 437 183 q 518 494 518 372 q 503 562 518 539 q 460 585 487 585 m 390 859 q 436 968 408 895 q 484 1105 465 1042 l 720 1105 l 720 1089 q 681 1029 700 1059 q 642 969 662 999 q 598 907 621 939 q 547 842 574 876 l 390 842 l 390 859 z "},"ύ":{"ha":867,"x_min":65,"x_max":822,"o":"m 363 -14 q 141 54 216 -14 q 65 252 65 121 q 75 346 65 277 l 165 768 l 427 768 l 335 334 q 328 268 328 300 q 343 213 328 229 q 390 197 359 197 q 516 332 475 197 q 557 741 557 466 l 557 768 l 818 768 q 822 671 822 715 q 711 150 822 314 q 363 -14 600 -14 m 411 859 q 457 968 429 895 q 505 1105 486 1042 l 741 1105 l 741 1089 q 702 1029 721 1059 q 663 969 683 999 q 619 907 642 939 q 568 842 595 876 l 411 842 l 411 859 z "},"ώ":{"ha":1196,"x_min":45,"x_max":1152,"o":"m 550 121 q 445 18 505 49 q 294 -14 384 -14 q 110 59 174 -14 q 45 273 45 132 q 211 768 45 494 l 481 768 q 353 522 401 654 q 306 285 306 389 q 320 211 306 231 q 366 191 335 191 q 419 224 398 191 q 460 350 439 258 l 501 546 l 757 546 l 714 350 q 699 244 699 280 q 710 202 699 213 q 747 191 721 191 q 851 304 812 191 q 890 587 890 418 q 869 768 890 687 l 1139 768 q 1152 595 1152 672 q 1050 141 1152 296 q 757 -14 949 -14 q 614 21 664 -14 q 550 121 565 55 m 578 859 q 624 968 595 895 q 671 1105 652 1042 l 907 1105 l 907 1089 q 869 1029 888 1059 q 829 969 850 999 q 786 907 809 939 q 735 842 762 876 l 578 842 l 578 859 z "},"Ё":{"ha":781,"x_min":22,"x_max":825,"o":"m 611 0 l 22 0 l 232 991 l 821 991 l 777 777 l 453 777 l 421 621 l 722 621 l 673 406 l 372 406 l 334 218 l 657 218 l 611 0 m 245 1168 q 381 1295 245 1295 q 496 1210 496 1295 q 360 1082 496 1082 q 273 1103 300 1082 q 245 1168 245 1124 m 575 1168 q 711 1295 575 1295 q 825 1210 825 1295 q 792 1113 825 1144 q 690 1082 758 1082 q 603 1103 631 1082 q 575 1168 575 1124 z "},"Ђ":{"ha":1082,"x_min":106,"x_max":993,"o":"m 729 368 q 711 416 729 402 q 661 431 694 431 l 514 431 l 425 0 l 160 0 l 321 772 l 106 772 l 153 991 l 850 991 l 802 772 l 586 772 l 559 650 l 730 650 q 923 593 852 650 q 993 440 993 536 q 962 202 993 319 q 870 36 931 85 q 689 -14 810 -14 q 602 -4 648 -14 q 530 21 557 5 l 530 220 q 628 197 575 197 q 689 217 670 197 q 715 278 708 236 l 722 314 q 729 368 729 344 z "},"Ѓ":{"ha":732,"x_min":22,"x_max":881,"o":"m 288 0 l 22 0 l 232 991 l 817 991 l 771 775 l 452 775 l 288 0 m 392 1086 q 583 1293 475 1156 l 881 1293 l 881 1283 q 751 1177 850 1246 q 585 1071 652 1107 l 392 1071 l 392 1086 z "},"Є":{"ha":875,"x_min":71,"x_max":925,"o":"m 597 786 q 474 741 530 786 q 382 608 418 695 l 703 608 l 657 397 l 339 397 l 339 375 q 373 250 339 294 q 471 205 408 205 q 580 218 527 205 q 736 267 633 230 l 736 47 q 437 -14 598 -14 q 166 87 261 -14 q 71 372 71 188 q 139 703 71 553 q 327 930 208 854 q 597 1007 445 1007 q 776 987 696 1007 q 925 925 855 967 l 823 711 q 707 767 760 749 q 597 786 654 786 z "},"Ѕ":{"ha":761,"x_min":29,"x_max":775,"o":"m 663 304 q 563 70 663 154 q 285 -14 463 -14 q 144 3 210 -14 q 29 52 77 20 l 29 289 q 160 229 86 253 q 293 204 233 204 q 369 225 343 204 q 395 285 395 246 q 387 319 395 303 q 363 351 378 335 q 283 421 349 367 q 168 551 204 485 q 132 697 132 618 q 177 857 132 786 q 302 967 221 928 q 484 1006 383 1006 q 775 933 646 1006 l 684 732 q 486 791 568 791 q 419 772 443 791 q 396 717 396 753 q 419 655 396 684 q 505 578 441 626 q 624 454 585 519 q 663 304 663 389 z "},"Ј":{"ha":518,"x_min":-222,"x_max":524,"o":"m -78 -313 q -222 -293 -150 -313 l -222 -77 q -104 -93 -155 -93 q 5 -53 -32 -93 q 62 79 43 -13 l 258 991 l 524 991 l 321 46 q 244 -166 292 -90 q 120 -277 197 -242 q -78 -313 44 -313 z "},"Љ":{"ha":1337,"x_min":-62,"x_max":1268,"o":"m 1268 342 q 1163 91 1268 182 q 864 0 1057 0 l 514 0 l 679 781 l 547 781 q 401 292 437 376 q 306 107 353 171 q 198 15 258 43 q 43 -14 137 -14 q -62 4 -12 -14 l -62 211 q -19 199 -32 201 q 7 197 -6 197 q 64 212 43 197 q 106 261 85 227 q 151 353 128 294 q 340 991 220 527 l 987 991 l 911 624 l 930 624 q 1179 548 1090 624 q 1268 342 1268 473 m 825 207 l 878 207 q 969 239 937 207 q 1002 328 1002 271 q 977 392 1002 368 q 913 416 952 416 l 867 416 l 825 207 z "},"Њ":{"ha":1337,"x_min":22,"x_max":1268,"o":"m 1268 342 q 1163 91 1268 182 q 864 0 1057 0 l 514 0 l 599 404 l 374 404 l 288 0 l 22 0 l 232 991 l 497 991 l 421 624 l 646 624 l 724 991 l 987 991 l 911 624 l 930 624 q 1179 548 1090 624 q 1268 342 1268 473 m 825 207 l 878 207 q 969 239 937 207 q 1002 328 1002 271 q 977 392 1002 368 q 913 416 952 416 l 867 416 l 825 207 z "},"Ћ":{"ha":1065,"x_min":106,"x_max":965,"o":"m 559 650 l 703 650 q 897 587 829 650 q 965 406 965 524 q 949 273 965 361 l 896 0 l 631 0 l 694 314 q 701 368 701 344 q 684 416 701 402 q 633 431 666 431 l 514 431 l 425 0 l 160 0 l 321 772 l 106 772 l 153 991 l 850 991 l 802 772 l 586 772 l 559 650 z "},"Ќ":{"ha":896,"x_min":22,"x_max":1006,"o":"m 804 0 l 513 0 l 390 488 l 288 0 l 22 0 l 232 991 l 497 991 l 399 528 l 710 991 l 1006 991 l 653 500 l 804 0 m 469 1086 q 660 1293 552 1156 l 958 1293 l 958 1283 q 828 1177 927 1246 q 661 1071 728 1107 l 469 1071 l 469 1086 z "},"Ў":{"ha":868,"x_min":46,"x_max":990,"o":"m 473 513 l 479 513 q 525 624 494 554 l 697 991 l 990 991 l 558 224 q 401 39 484 91 q 191 -14 319 -14 q 46 5 122 -14 l 46 214 q 163 197 113 197 q 247 214 219 197 q 302 285 275 230 l 113 991 l 383 991 l 457 628 q 473 513 464 595 m 553 1071 q 254 1301 254 1071 l 257 1329 l 473 1329 l 471 1295 q 500 1224 471 1246 q 576 1203 530 1203 q 666 1234 633 1203 q 711 1329 699 1264 l 936 1329 q 814 1136 911 1200 q 553 1071 718 1071 z "},"Џ":{"ha":991,"x_min":22,"x_max":999,"o":"m 232 991 l 497 991 l 336 220 l 571 220 l 733 991 l 999 991 l 789 0 l 533 0 l 468 -310 l 210 -310 l 278 0 l 22 0 l 232 991 z "},"А":{"ha":939,"x_min":-82,"x_max":847,"o":"m 582 186 l 278 186 l 193 0 l -82 0 l 422 991 l 764 991 l 847 0 l 589 0 l 582 186 m 375 397 l 574 397 l 562 685 l 561 743 q 564 832 561 794 q 522 720 547 774 l 375 397 z "},"Б":{"ha":846,"x_min":22,"x_max":817,"o":"m 817 991 l 771 775 l 450 775 l 419 624 l 439 624 q 688 548 599 624 q 777 342 777 473 q 671 91 777 182 q 372 0 566 0 l 22 0 l 231 991 l 817 991 m 334 207 l 386 207 q 478 239 446 207 q 510 328 510 271 q 485 392 510 368 q 421 416 460 416 l 375 416 l 334 207 z "},"В":{"ha":880,"x_min":22,"x_max":861,"o":"m 232 991 l 562 991 q 785 936 709 991 q 861 775 861 880 q 660 519 861 580 l 660 514 q 755 445 720 494 q 790 325 790 396 q 687 85 790 170 q 393 0 583 0 l 22 0 l 232 991 m 416 611 l 465 611 q 555 637 525 611 q 586 720 586 663 q 500 789 586 789 l 457 789 l 416 611 m 376 415 l 332 207 l 387 207 q 485 240 446 207 q 524 322 524 273 q 501 392 524 369 q 422 415 479 415 l 376 415 z "},"Г":{"ha":732,"x_min":22,"x_max":817,"o":"m 288 0 l 22 0 l 232 991 l 817 991 l 771 775 l 452 775 l 288 0 z "},"Д":{"ha":1103,"x_min":-146,"x_max":1040,"o":"m 669 -310 l 736 0 l 179 0 l 113 -310 l -146 -310 l -36 220 l 85 220 q 279 584 187 378 q 428 991 371 790 l 1038 991 l 873 220 l 1040 220 l 928 -310 l 669 -310 m 728 772 l 612 772 q 376 220 521 478 l 608 220 l 728 772 z "},"Е":{"ha":781,"x_min":22,"x_max":821,"o":"m 611 0 l 22 0 l 232 991 l 821 991 l 777 777 l 453 777 l 421 621 l 722 621 l 673 406 l 372 406 l 334 218 l 657 218 l 611 0 z "},"Ж":{"ha":1296,"x_min":-89,"x_max":1398,"o":"m 524 488 l 214 0 l -89 0 l 269 515 l 134 991 l 411 991 l 532 528 l 629 991 l 890 991 l 791 528 l 1103 991 l 1398 991 l 1046 500 l 1197 0 l 905 0 l 783 488 l 681 0 l 419 0 l 524 488 z "},"З":{"ha":854,"x_min":17,"x_max":835,"o":"m 835 768 q 766 598 835 664 q 579 524 697 533 l 579 518 q 709 444 663 499 q 755 304 755 388 q 647 67 755 148 q 330 -14 538 -14 q 143 1 226 -14 q 17 40 60 15 l 17 261 q 142 215 68 233 q 296 197 217 197 q 445 227 401 197 q 488 318 488 256 q 447 390 488 367 q 318 412 406 412 l 236 412 l 282 624 l 371 624 q 512 647 467 624 q 558 720 558 670 q 533 772 558 751 q 453 794 509 794 q 228 710 348 794 l 132 897 q 320 981 227 956 q 519 1006 414 1006 q 748 941 662 1006 q 835 768 835 876 z "},"И":{"ha":1104,"x_min":22,"x_max":1111,"o":"m 232 991 l 473 991 l 385 576 q 323 335 367 489 l 329 335 l 779 991 l 1111 991 l 901 0 l 660 0 l 746 411 q 808 671 768 522 l 803 671 l 354 0 l 22 0 l 232 991 z "},"Й":{"ha":1104,"x_min":22,"x_max":1111,"o":"m 232 991 l 473 991 l 385 576 q 323 335 367 489 l 329 335 l 779 991 l 1111 991 l 901 0 l 660 0 l 746 411 q 808 671 768 522 l 803 671 l 354 0 l 22 0 l 232 991 m 660 1071 q 361 1301 361 1071 l 364 1329 l 581 1329 l 578 1295 q 607 1224 578 1246 q 684 1203 637 1203 q 773 1234 740 1203 q 818 1329 806 1264 l 1043 1329 q 922 1136 1019 1200 q 660 1071 825 1071 z "},"К":{"ha":896,"x_min":22,"x_max":1006,"o":"m 804 0 l 513 0 l 390 488 l 288 0 l 22 0 l 232 991 l 497 991 l 399 528 l 710 991 l 1006 991 l 653 500 l 804 0 z "},"Л":{"ha":985,"x_min":-62,"x_max":991,"o":"m 519 0 l 682 781 l 547 781 q 401 292 437 376 q 306 107 353 171 q 198 15 258 43 q 43 -14 137 -14 q -62 4 -12 -14 l -62 211 q -19 199 -32 201 q 7 197 -6 197 q 64 212 43 197 q 106 261 85 227 q 151 353 128 294 q 340 991 220 527 l 991 991 l 785 0 l 519 0 z "},"М":{"ha":1263,"x_min":22,"x_max":1270,"o":"m 399 0 l 399 711 l 393 711 q 335 364 348 429 l 258 0 l 22 0 l 232 991 l 583 991 l 583 288 l 589 288 l 913 991 l 1270 991 l 1057 0 l 819 0 l 899 372 q 972 668 932 527 l 982 711 l 977 711 l 650 0 l 399 0 z "},"Н":{"ha":991,"x_min":22,"x_max":999,"o":"m 789 0 l 524 0 l 608 404 l 374 404 l 288 0 l 22 0 l 232 991 l 497 991 l 421 624 l 657 624 l 733 991 l 999 991 l 789 0 z "},"О":{"ha":1023,"x_min":71,"x_max":981,"o":"m 608 1007 q 883 906 785 1007 q 981 625 981 806 q 913 295 981 445 q 727 66 846 146 q 452 -14 608 -14 q 170 87 269 -14 q 71 368 71 189 q 140 699 71 548 q 331 928 210 849 q 608 1007 451 1007 m 713 623 q 680 744 713 700 q 586 787 648 787 q 463 730 519 787 q 373 574 406 673 q 339 370 339 474 q 475 205 339 205 q 594 262 539 205 q 681 414 650 318 q 713 623 713 509 z "},"П":{"ha":991,"x_min":22,"x_max":999,"o":"m 789 0 l 524 0 l 685 772 l 450 772 l 288 0 l 22 0 l 232 991 l 999 991 l 789 0 z "},"Р":{"ha":865,"x_min":22,"x_max":848,"o":"m 848 694 q 732 426 848 524 q 414 329 616 329 l 355 329 l 288 0 l 22 0 l 232 991 l 485 991 q 754 915 661 991 q 848 694 848 838 m 403 546 l 446 546 q 545 586 507 546 q 583 686 583 625 q 559 751 583 726 q 492 775 534 775 l 452 775 l 403 546 z "},"С":{"ha":875,"x_min":71,"x_max":924,"o":"m 597 786 q 465 733 524 786 q 373 587 406 680 q 339 386 339 494 q 377 250 339 295 q 486 205 415 205 q 600 219 543 205 q 736 267 658 233 l 736 47 q 437 -14 598 -14 q 166 87 261 -14 q 71 372 71 188 q 139 703 71 553 q 327 930 208 854 q 597 1007 445 1007 q 924 918 777 1007 l 823 711 q 707 767 760 749 q 597 786 654 786 z "},"Т":{"ha":766,"x_min":106,"x_max":850,"o":"m 425 0 l 160 0 l 321 772 l 106 772 l 153 991 l 850 991 l 802 772 l 586 772 l 425 0 z "},"У":{"ha":868,"x_min":46,"x_max":990,"o":"m 473 513 l 479 513 q 525 624 494 554 l 697 991 l 990 991 l 558 224 q 401 39 484 91 q 191 -14 319 -14 q 46 5 122 -14 l 46 214 q 163 197 113 197 q 247 214 219 197 q 302 285 275 230 l 113 991 l 383 991 l 457 628 q 473 513 464 595 z "},"Ф":{"ha":1175,"x_min":62,"x_max":1139,"o":"m 62 460 q 190 764 62 654 q 554 884 317 873 l 579 1006 l 829 1006 l 804 884 q 1049 783 960 868 q 1139 562 1139 697 q 1013 255 1139 361 q 646 139 888 148 l 612 -14 l 363 -14 l 396 139 q 151 239 239 155 q 62 460 62 324 m 323 473 q 353 375 323 406 q 440 340 382 345 l 511 681 q 372 624 421 677 q 323 473 323 570 m 878 547 q 761 681 878 666 l 690 342 q 829 396 781 343 q 878 547 878 450 z "},"Х":{"ha":921,"x_min":-85,"x_max":1025,"o":"m 838 0 l 545 0 l 446 338 l 216 0 l -85 0 l 297 526 l 146 991 l 428 991 l 511 673 l 721 991 l 1025 991 l 660 500 l 838 0 z "},"Ц":{"ha":1061,"x_min":22,"x_max":999,"o":"m 832 207 l 999 207 l 888 -310 l 629 -310 l 697 0 l 22 0 l 232 991 l 497 991 l 334 220 l 570 220 l 733 991 l 999 991 l 832 207 z "},"Ч":{"ha":966,"x_min":100,"x_max":974,"o":"m 501 0 l 579 363 q 345 306 476 306 q 163 367 227 306 q 100 542 100 429 q 109 625 100 575 l 179 991 l 446 991 l 379 660 q 372 607 372 629 q 398 546 372 567 q 464 525 423 525 q 542 538 500 525 q 621 572 584 551 l 708 991 l 974 991 l 766 0 l 501 0 z "},"Ш":{"ha":1396,"x_min":22,"x_max":1402,"o":"m 22 0 l 228 991 l 493 991 l 334 220 l 525 220 l 685 991 l 946 991 l 786 220 l 978 220 l 1137 991 l 1402 991 l 1197 0 l 22 0 z "},"Щ":{"ha":1470,"x_min":22,"x_max":1407,"o":"m 1105 0 l 22 0 l 228 991 l 493 991 l 334 220 l 525 220 l 685 991 l 946 991 l 786 220 l 978 220 l 1137 991 l 1402 991 l 1240 207 l 1407 207 l 1296 -310 l 1038 -310 l 1105 0 z "},"Ъ":{"ha":981,"x_min":106,"x_max":911,"o":"m 468 207 l 521 207 q 612 239 581 207 q 644 328 644 271 q 620 392 644 368 q 555 416 595 416 l 510 416 l 468 207 m 554 624 l 574 624 q 822 549 734 624 q 911 342 911 473 q 805 90 911 180 q 507 0 699 0 l 157 0 l 321 772 l 106 772 l 153 991 l 631 991 l 554 624 z "},"Ы":{"ha":1310,"x_min":22,"x_max":1317,"o":"m 777 342 q 671 91 777 182 q 372 0 566 0 l 22 0 l 231 991 l 496 991 l 419 624 l 439 624 q 688 548 599 624 q 777 342 777 473 m 334 207 l 386 207 q 478 239 446 207 q 510 328 510 271 q 485 392 510 368 q 421 416 460 416 l 375 416 l 334 207 m 842 0 l 1051 991 l 1317 991 l 1107 0 l 842 0 z "},"Ь":{"ha":846,"x_min":22,"x_max":777,"o":"m 777 342 q 671 91 777 182 q 372 0 566 0 l 22 0 l 232 991 l 496 991 l 419 624 l 439 624 q 688 548 599 624 q 777 342 777 473 m 334 207 l 386 207 q 478 239 446 207 q 510 328 510 271 q 485 392 510 368 q 421 416 460 416 l 375 416 l 334 207 z "},"Э":{"ha":875,"x_min":21,"x_max":832,"o":"m 265 205 q 427 256 359 205 q 529 397 494 306 l 200 397 l 245 608 l 568 608 l 568 619 q 533 747 568 709 q 418 786 498 786 q 210 726 314 786 l 139 939 q 290 988 200 968 q 465 1007 380 1007 q 738 907 643 1007 q 832 623 832 808 q 790 374 832 498 q 677 165 747 251 q 507 33 606 79 q 288 -14 408 -14 q 21 45 121 -14 l 21 267 q 140 222 73 238 q 265 205 207 205 z "},"Ю":{"ha":1496,"x_min":22,"x_max":1453,"o":"m 1080 1007 q 1355 906 1258 1007 q 1453 625 1453 805 q 1385 295 1453 445 q 1199 66 1318 146 q 924 -14 1080 -14 q 643 87 742 -14 q 543 368 543 187 l 543 404 l 374 404 l 288 0 l 22 0 l 232 991 l 497 991 l 421 624 l 583 624 q 774 907 644 807 q 1080 1007 905 1007 m 1185 623 q 1153 744 1185 700 q 1059 787 1120 787 q 934 730 991 787 q 844 573 878 673 q 811 370 811 473 q 947 205 811 205 q 1066 262 1011 205 q 1153 414 1122 318 q 1185 623 1185 510 z "},"Я":{"ha":903,"x_min":-94,"x_max":909,"o":"m 464 361 l 222 0 l -94 0 l 248 444 q 176 537 198 486 q 154 657 154 588 q 259 901 154 810 q 549 991 363 991 l 909 991 l 699 0 l 433 0 l 511 361 l 464 361 m 602 789 l 539 789 q 453 753 487 789 q 419 661 419 718 q 445 586 419 609 q 511 562 471 562 l 553 562 l 602 789 z "},"а":{"ha":843,"x_min":57,"x_max":828,"o":"m 383 197 q 448 237 417 197 q 497 343 479 277 q 515 473 515 410 q 502 544 515 517 q 460 571 488 571 q 367 485 408 571 q 325 294 325 399 q 383 197 325 197 m 665 0 l 456 0 l 463 83 l 457 83 q 375 8 419 31 q 275 -14 331 -14 q 113 62 168 -14 q 57 279 57 138 q 106 527 57 401 q 232 718 156 653 q 399 782 307 782 q 499 756 456 782 q 576 673 543 731 l 582 673 l 618 768 l 828 768 l 665 0 z "},"б":{"ha":835,"x_min":58,"x_max":882,"o":"m 856 1064 l 882 842 l 812 835 q 537 792 611 814 q 423 728 464 770 q 364 612 382 686 l 370 612 q 454 689 404 661 q 566 717 505 717 q 723 647 669 717 q 777 447 777 576 q 722 211 777 319 q 574 44 667 102 q 359 -14 480 -14 q 137 77 216 -14 q 58 338 58 168 q 118 651 58 484 q 291 912 177 819 q 572 1032 404 1006 q 856 1064 675 1048 m 378 197 q 441 233 410 197 q 492 328 472 268 q 511 450 511 387 q 501 505 511 486 q 461 525 490 525 q 405 500 438 525 q 339 432 372 475 q 329 383 334 415 q 323 323 323 351 q 378 197 323 197 z "},"в":{"ha":840,"x_min":57,"x_max":790,"o":"m 497 782 q 711 724 631 782 q 790 568 790 666 q 750 456 790 501 q 621 387 711 411 l 621 382 q 714 328 680 370 q 747 231 747 287 q 658 50 747 114 q 385 -14 569 -14 q 144 67 231 -14 q 57 293 57 147 q 114 548 57 434 q 270 722 170 662 q 497 782 370 782 m 321 322 q 318 277 318 298 q 401 164 318 164 q 458 182 436 164 q 481 239 481 200 q 397 322 481 322 l 321 322 m 436 492 q 529 555 529 492 q 516 591 529 578 q 481 604 503 604 q 412 579 442 604 q 358 492 382 554 l 436 492 z "},"г":{"ha":703,"x_min":17,"x_max":672,"o":"m 114 718 q 243 765 169 749 q 390 782 317 782 q 597 725 523 782 q 672 567 672 669 q 645 436 672 487 q 554 346 617 385 q 366 268 490 307 q 297 240 309 250 q 285 212 285 230 q 299 188 285 197 q 354 179 314 179 q 456 196 393 179 q 581 241 519 213 l 581 49 q 449 2 518 17 q 293 -14 380 -14 q 88 47 159 -14 q 17 220 17 108 q 82 380 17 317 q 293 485 148 443 q 363 509 338 497 q 398 532 388 520 q 408 566 408 543 q 349 603 408 603 q 176 550 274 603 l 114 718 z "},"д":{"ha":873,"x_min":57,"x_max":829,"o":"m 829 627 q 773 278 829 425 q 616 59 718 131 q 372 -14 515 -14 q 139 65 220 -14 q 57 286 57 143 q 97 507 57 410 q 208 659 136 605 q 370 713 279 713 q 478 680 428 713 q 557 589 528 646 l 562 589 l 564 613 l 564 633 q 525 807 564 755 q 392 859 486 859 q 258 829 332 859 l 207 1029 q 334 1061 278 1052 q 456 1069 390 1069 q 734 958 639 1069 q 829 627 829 846 m 399 197 q 484 260 448 197 q 539 444 519 323 q 444 515 505 515 q 356 451 392 515 q 321 285 321 386 q 342 221 321 245 q 399 197 363 197 z "},"е":{"ha":804,"x_min":57,"x_max":774,"o":"m 361 -14 q 137 67 217 -14 q 57 290 57 147 q 114 548 57 433 q 269 723 170 663 q 497 782 368 782 q 700 724 626 782 q 774 568 774 665 q 668 359 774 432 q 361 286 562 286 l 321 286 l 321 275 q 432 175 321 175 q 537 191 486 175 q 654 241 589 207 l 654 56 q 513 2 578 17 q 361 -14 447 -14 m 468 604 q 391 557 427 604 q 347 450 355 510 l 367 450 q 483 478 441 450 q 525 553 525 507 q 511 589 525 574 q 468 604 498 604 z "},"ж":{"ha":1444,"x_min":-17,"x_max":1461,"o":"m 90 758 q 220 782 141 782 q 427 704 356 782 q 500 476 498 625 l 614 476 l 677 768 l 930 768 l 867 476 l 968 476 q 1108 700 1006 618 q 1350 782 1210 782 q 1461 772 1402 782 l 1414 568 q 1362 574 1379 574 q 1248 494 1293 574 q 1203 297 1203 414 q 1270 197 1203 197 q 1354 218 1303 197 l 1354 9 q 1225 -14 1303 -14 q 1015 66 1086 -14 q 945 298 945 146 l 828 298 l 764 0 l 511 0 l 575 298 l 478 298 q 337 70 439 153 q 94 -14 236 -14 q -17 -4 43 -14 l 31 200 q 82 195 65 195 q 196 273 151 195 q 241 471 241 352 q 175 571 241 571 q 90 550 141 571 l 90 758 z "},"з":{"ha":808,"x_min":22,"x_max":758,"o":"m 351 482 q 464 496 430 482 q 497 539 497 511 q 478 578 497 567 q 414 590 459 590 q 298 575 364 590 q 176 534 232 560 l 119 724 q 452 782 290 782 q 681 732 604 782 q 758 586 758 682 q 717 472 758 517 q 587 400 676 427 l 587 395 q 683 338 651 378 q 714 243 714 298 q 609 53 714 119 q 311 -14 504 -14 q 142 3 216 -14 q 22 45 68 19 l 22 244 q 293 183 156 183 q 447 248 447 183 q 411 300 447 285 q 306 315 376 315 l 211 315 l 248 482 l 351 482 z "},"и":{"ha":864,"x_min":65,"x_max":848,"o":"m 330 254 q 346 210 330 224 q 382 196 361 196 q 455 249 422 196 q 507 395 488 302 l 586 768 l 848 768 l 686 0 l 476 0 l 485 107 l 479 107 q 392 15 443 44 q 268 -14 342 -14 q 119 44 172 -14 q 65 204 65 102 q 82 359 65 276 l 168 768 l 431 768 l 343 350 q 330 254 330 294 z "},"й":{"ha":864,"x_min":65,"x_max":889,"o":"m 330 254 q 346 210 330 224 q 382 196 361 196 q 455 249 422 196 q 507 395 488 302 l 586 768 l 848 768 l 686 0 l 476 0 l 485 107 l 479 107 q 392 15 443 44 q 268 -14 342 -14 q 119 44 172 -14 q 65 204 65 102 q 82 359 65 276 l 168 768 l 431 768 l 343 350 q 330 254 330 294 m 506 842 q 208 1072 208 842 l 210 1100 l 427 1100 l 424 1065 q 453 995 424 1017 q 530 974 483 974 q 619 1004 586 974 q 664 1100 652 1035 l 889 1100 q 768 906 865 971 q 506 842 671 842 z "},"к":{"ha":867,"x_min":16,"x_max":928,"o":"m 629 768 l 928 768 l 627 382 l 781 0 l 493 0 l 354 368 l 278 0 l 16 0 l 175 768 l 437 768 l 364 415 l 629 768 z "},"л":{"ha":926,"x_min":-25,"x_max":901,"o":"m 751 0 l 489 0 l 610 581 q 572 585 591 585 q 494 559 523 585 q 438 475 465 534 q 378 302 411 416 q 301 101 337 163 q 216 13 265 39 q 85 -14 166 -14 q -25 7 26 -14 l -25 211 q 29 197 0 197 q 82 232 60 197 q 146 404 103 267 q 225 601 187 535 q 312 705 263 667 q 427 763 361 744 q 585 782 494 782 q 758 767 673 782 q 901 728 843 752 l 751 0 z "},"м":{"ha":1198,"x_min":22,"x_max":1183,"o":"m 396 0 l 364 488 l 358 488 q 317 220 335 299 l 268 0 l 22 0 l 184 768 l 532 768 l 564 267 l 570 267 l 817 768 l 1183 768 l 1019 0 l 772 0 l 821 225 q 863 404 840 313 q 882 488 878 468 l 876 488 l 642 0 l 396 0 z "},"н":{"ha":871,"x_min":16,"x_max":856,"o":"m 441 768 l 383 490 l 533 490 l 593 768 l 856 768 l 693 0 l 431 0 l 493 298 l 342 298 l 278 0 l 16 0 l 179 768 l 441 768 z "},"о":{"ha":843,"x_min":57,"x_max":786,"o":"m 353 -14 q 134 63 211 -14 q 57 282 57 140 q 111 539 57 425 q 262 718 165 654 q 490 782 360 782 q 709 705 632 782 q 786 486 786 629 q 732 229 786 344 q 581 50 678 114 q 353 -14 483 -14 m 460 585 q 365 490 404 585 q 325 273 325 395 q 382 183 325 183 q 477 277 437 183 q 518 494 518 372 q 503 562 518 539 q 460 585 487 585 z "},"п":{"ha":864,"x_min":16,"x_max":799,"o":"m 533 515 q 518 559 533 545 q 482 574 503 574 q 411 526 444 574 q 357 375 378 477 l 278 0 l 16 0 l 178 768 l 387 768 l 379 661 l 385 661 q 472 754 422 726 q 596 782 523 782 q 745 724 692 782 q 799 564 799 666 q 782 408 799 492 l 696 0 l 433 0 l 521 419 q 533 515 533 472 z "},"р":{"ha":843,"x_min":-56,"x_max":786,"o":"m 441 -14 q 285 85 345 -14 l 279 85 q 241 -167 271 -28 l 207 -334 l -56 -334 l 178 768 l 387 768 l 379 682 l 385 682 q 559 782 450 782 q 726 706 665 782 q 786 498 786 631 q 739 239 786 361 q 613 52 691 117 q 441 -14 534 -14 m 460 571 q 395 532 426 571 q 347 428 365 494 q 329 294 329 362 q 345 224 329 250 q 389 197 360 197 q 451 236 421 197 q 499 340 481 275 q 518 473 518 405 q 460 571 518 571 z "},"с":{"ha":700,"x_min":57,"x_max":717,"o":"m 343 -14 q 133 68 208 -14 q 57 300 57 150 q 109 547 57 436 q 255 720 161 658 q 468 782 349 782 q 717 728 600 782 l 633 533 q 481 574 543 574 q 403 541 439 574 q 344 444 367 509 q 321 317 321 379 q 341 226 321 255 q 406 197 361 197 q 500 213 454 197 q 597 256 546 229 l 597 47 q 483 2 543 18 q 343 -14 423 -14 z "},"т":{"ha":1286,"x_min":16,"x_max":1221,"o":"m 437 0 l 526 428 q 536 510 536 489 q 488 574 536 574 q 411 523 441 574 q 358 374 380 473 l 278 0 l 16 0 l 178 768 l 387 768 l 376 642 l 382 642 q 475 750 423 719 q 604 782 526 782 q 727 746 684 782 q 787 642 770 709 l 793 642 q 894 748 837 713 q 1026 782 951 782 q 1171 725 1122 782 q 1221 555 1221 667 q 1206 416 1221 490 l 1121 0 l 859 0 l 946 428 q 956 518 956 466 q 943 559 956 545 q 908 574 930 574 q 827 522 858 574 q 775 368 796 471 l 700 0 l 437 0 z "},"у":{"ha":755,"x_min":-87,"x_max":833,"o":"m 56 768 l 319 768 l 349 387 l 350 345 l 350 286 l 355 286 q 389 398 380 376 q 551 768 398 421 l 833 768 l 379 -97 q 228 -278 314 -222 q 17 -334 142 -334 q -87 -322 -45 -334 l -87 -114 q -14 -122 -56 -122 q 83 -97 45 -122 q 150 -20 121 -73 l 165 8 l 56 768 z "},"ф":{"ha":1174,"x_min":57,"x_max":1117,"o":"m 376 -11 q 138 101 219 13 q 57 329 57 189 q 545 781 57 738 l 602 1055 l 854 1055 l 798 781 q 1036 669 955 757 q 1117 440 1117 581 q 629 -11 1117 33 l 562 -334 l 310 -334 l 376 -11 m 672 186 q 801 264 750 195 q 852 431 852 334 q 827 531 852 490 q 754 583 801 573 l 672 186 m 501 583 q 371 507 420 574 q 321 339 321 439 q 347 237 321 278 q 419 186 374 196 l 501 583 z "},"х":{"ha":786,"x_min":-81,"x_max":875,"o":"m 370 222 l 227 0 l -81 0 l 240 392 l 100 768 l 386 768 l 437 555 l 564 768 l 875 768 l 559 378 l 714 0 l 424 0 l 370 222 z "},"ц":{"ha":899,"x_min":65,"x_max":848,"o":"m 739 -282 l 489 -282 l 570 21 q 498 129 509 48 l 493 129 q 396 22 451 57 q 268 -14 342 -14 q 119 44 172 -14 q 65 204 65 102 q 82 359 65 276 l 168 768 l 431 768 l 343 350 q 330 254 330 294 q 346 210 330 224 q 382 196 361 196 q 455 249 422 196 q 507 395 488 302 l 586 768 l 848 768 l 750 302 q 741 237 741 257 q 789 196 741 196 q 839 204 809 196 l 739 -282 z "},"ч":{"ha":844,"x_min":94,"x_max":829,"o":"m 359 482 q 375 438 359 452 q 411 424 390 424 q 536 623 493 424 l 567 768 l 829 768 l 667 0 l 404 0 l 463 279 l 456 279 q 271 214 380 214 q 178 240 218 214 q 116 313 138 267 q 94 412 94 359 q 111 587 94 504 l 149 768 l 411 768 l 372 578 q 359 482 359 522 z "},"ш":{"ha":1286,"x_min":65,"x_max":1271,"o":"m 848 768 l 760 340 q 750 258 750 283 q 799 195 750 195 q 875 243 844 195 q 928 395 905 292 l 1008 768 l 1271 768 l 1108 0 l 899 0 l 909 126 l 904 126 q 813 19 864 52 q 682 -14 763 -14 q 559 22 603 -14 q 498 126 516 58 l 493 126 q 392 20 449 54 q 260 -14 335 -14 q 115 43 165 -14 q 65 212 65 100 q 81 351 65 277 l 165 768 l 428 768 l 340 340 q 330 250 330 300 q 343 209 330 222 q 378 195 356 195 q 459 246 428 195 q 511 400 490 297 l 586 768 l 848 768 z "},"щ":{"ha":1321,"x_min":65,"x_max":1271,"o":"m 904 126 q 813 19 864 52 q 682 -14 763 -14 q 559 22 603 -14 q 498 126 516 58 l 493 126 q 392 20 449 54 q 260 -14 335 -14 q 115 43 165 -14 q 65 212 65 100 q 81 351 65 277 l 165 768 l 428 768 l 340 340 q 330 250 330 300 q 343 209 330 222 q 378 195 356 195 q 459 246 428 195 q 511 400 490 297 l 586 768 l 848 768 l 760 340 q 750 258 750 283 q 799 195 750 195 q 875 243 844 195 q 928 395 905 292 l 1008 768 l 1271 768 l 1173 302 q 1162 237 1162 254 q 1211 196 1162 196 q 1261 204 1232 196 l 1161 -282 l 911 -282 l 991 21 q 938 63 960 35 q 909 126 915 92 l 904 126 z "},"ъ":{"ha":953,"x_min":53,"x_max":886,"o":"m 505 475 q 618 489 555 489 q 759 462 699 489 q 853 386 820 435 q 886 273 886 336 q 791 60 886 133 q 501 -14 695 -14 q 277 42 357 -14 q 197 203 197 98 q 215 339 197 260 l 267 576 l 53 576 l 94 768 l 571 768 l 505 475 m 550 311 q 468 300 501 311 q 453 214 453 237 q 475 177 453 190 q 534 164 497 164 q 596 183 572 164 q 621 239 621 202 q 601 292 621 273 q 550 311 581 311 z "},"ы":{"ha":1236,"x_min":57,"x_max":1221,"o":"m 366 475 q 471 489 411 489 q 655 429 586 489 q 724 273 724 370 q 631 60 724 133 q 351 -14 539 -14 q 134 41 212 -14 q 57 203 57 96 q 75 339 57 263 l 168 768 l 431 768 l 366 475 m 397 311 q 328 300 357 311 q 313 214 313 237 q 331 177 313 190 q 383 164 350 164 q 437 183 416 164 q 458 239 458 202 q 442 291 458 271 q 397 311 425 311 m 1057 0 l 794 0 l 957 768 l 1221 768 l 1057 0 z "},"ь":{"ha":812,"x_min":57,"x_max":746,"o":"m 366 475 q 478 489 414 489 q 673 429 600 489 q 746 273 746 370 q 650 60 746 133 q 361 -14 555 -14 q 137 42 216 -14 q 57 203 57 98 q 75 339 57 263 l 168 768 l 431 768 l 366 475 m 410 311 q 328 300 361 311 q 313 214 313 237 q 335 177 313 190 q 395 164 357 164 q 456 183 432 164 q 481 239 481 202 q 462 291 481 271 q 410 311 443 311 z "},"э":{"ha":700,"x_min":31,"x_max":643,"o":"m 353 782 q 568 702 492 782 q 643 476 643 621 q 590 220 643 331 q 438 47 538 109 q 203 -14 338 -14 q 111 -4 157 -14 q 31 25 64 6 l 31 227 q 187 183 91 183 q 281 212 239 183 q 347 298 322 241 l 150 298 l 184 465 l 378 465 q 293 590 375 590 q 230 579 258 590 q 168 550 201 569 l 102 721 q 353 782 219 782 z "},"ю":{"ha":1240,"x_min":16,"x_max":1183,"o":"m 750 -14 q 531 63 608 -14 q 454 282 454 140 l 454 298 l 342 298 l 278 0 l 16 0 l 179 768 l 441 768 l 383 490 l 488 490 q 640 705 534 627 q 888 782 745 782 q 1106 705 1029 782 q 1183 486 1183 629 q 1129 229 1183 344 q 978 50 1076 114 q 750 -14 880 -14 m 857 585 q 762 490 802 585 q 722 273 722 395 q 779 183 722 183 q 875 277 834 183 q 916 494 916 372 q 900 562 916 539 q 857 585 884 585 z "},"я":{"ha":861,"x_min":-4,"x_max":846,"o":"m 467 273 q 401 249 427 273 q 329 138 374 224 q 266 44 295 74 q 196 1 236 15 q 96 -14 156 -14 q -4 4 47 -14 l -4 207 q 35 197 17 197 q 79 211 62 197 q 118 257 96 225 q 172 314 142 294 q 245 342 201 334 q 166 406 195 366 q 136 494 136 446 q 233 698 136 628 q 510 768 329 768 l 846 768 l 684 0 l 421 0 l 481 273 l 467 273 m 514 593 q 401 501 401 593 q 476 440 401 440 l 515 440 l 547 593 l 514 593 z "},"ё":{"ha":804,"x_min":57,"x_max":808,"o":"m 361 -14 q 137 67 217 -14 q 57 290 57 147 q 114 548 57 433 q 269 723 170 663 q 497 782 368 782 q 700 724 626 782 q 774 568 774 665 q 668 359 774 432 q 361 286 562 286 l 321 286 l 321 275 q 432 175 321 175 q 537 191 486 175 q 654 241 589 207 l 654 56 q 513 2 578 17 q 361 -14 447 -14 m 468 604 q 391 557 427 604 q 347 450 355 510 l 367 450 q 483 478 441 450 q 525 553 525 507 q 511 589 525 574 q 468 604 498 604 m 228 939 q 364 1065 228 1065 q 479 981 479 1065 q 343 852 479 852 q 256 873 283 852 q 228 939 228 895 m 558 939 q 694 1065 558 1065 q 808 981 808 1065 q 775 884 808 915 q 673 852 741 852 q 586 873 614 852 q 558 939 558 895 z "},"ђ":{"ha":864,"x_min":16,"x_max":785,"o":"m 519 446 q 504 490 519 475 q 468 504 489 504 q 392 453 422 504 q 343 306 363 402 l 278 0 l 16 0 l 182 791 l 68 791 l 103 956 l 216 956 l 239 1055 l 501 1055 l 481 956 l 663 956 l 628 791 l 446 791 q 392 625 425 705 l 397 625 q 582 713 465 713 q 731 655 677 713 q 785 494 785 597 q 768 339 785 419 l 685 -58 q 578 -265 656 -197 q 375 -334 499 -334 q 235 -315 300 -334 l 235 -110 q 310 -122 273 -122 q 388 -96 357 -122 q 429 -21 418 -69 l 507 350 q 519 446 519 403 z "},"ѓ":{"ha":703,"x_min":17,"x_max":764,"o":"m 114 718 q 243 765 169 749 q 390 782 317 782 q 597 725 523 782 q 672 567 672 669 q 645 436 672 487 q 554 346 617 385 q 366 268 490 307 q 297 240 309 250 q 285 212 285 230 q 299 188 285 197 q 354 179 314 179 q 456 196 393 179 q 581 241 519 213 l 581 49 q 449 2 518 17 q 293 -14 380 -14 q 88 47 159 -14 q 17 220 17 108 q 82 380 17 317 q 293 485 148 443 q 363 509 338 497 q 398 532 388 520 q 408 566 408 543 q 349 603 408 603 q 176 550 274 603 l 114 718 m 275 857 q 466 1064 358 926 l 764 1064 l 764 1054 q 634 947 733 1017 q 467 842 534 878 l 275 842 l 275 857 z "},"є":{"ha":700,"x_min":57,"x_max":717,"o":"m 343 -14 q 133 66 209 -14 q 57 293 57 146 q 109 546 57 433 q 256 720 161 659 q 468 782 350 782 q 601 768 543 782 q 717 725 659 755 l 643 550 q 572 578 609 566 q 490 590 535 590 q 351 465 392 590 l 550 465 l 515 298 l 321 298 q 343 212 321 245 q 406 179 366 179 q 500 197 454 179 q 597 241 546 214 l 597 47 q 483 2 543 18 q 343 -14 423 -14 z "},"ѕ":{"ha":697,"x_min":21,"x_max":669,"o":"m 604 267 q 516 59 604 132 q 262 -14 428 -14 q 21 29 112 -14 l 21 240 q 137 193 83 206 q 245 179 191 179 q 315 192 292 179 q 338 227 338 204 q 320 268 338 250 q 232 325 302 285 q 127 415 160 364 q 94 539 94 466 q 176 719 94 656 q 410 782 258 782 q 548 764 486 782 q 669 710 610 747 l 587 539 q 495 586 543 568 q 412 603 447 603 q 361 557 361 603 q 382 522 361 537 q 452 484 404 507 q 604 267 604 408 z "},"і":{"ha":452,"x_min":16,"x_max":492,"o":"m 278 0 l 16 0 l 178 768 l 441 768 l 278 0 m 210 937 q 250 1043 210 1007 q 363 1079 290 1079 q 458 1054 425 1079 q 492 983 492 1029 q 452 879 492 916 q 339 842 413 842 q 210 937 210 842 z "},"ї":{"ha":452,"x_min":16,"x_max":642,"o":"m 278 0 l 16 0 l 178 768 l 441 768 l 278 0 m 62 939 q 198 1065 62 1065 q 313 981 313 1065 q 177 852 313 852 q 90 873 117 852 q 62 939 62 895 m 392 939 q 528 1065 392 1065 q 642 981 642 1065 q 609 884 642 915 q 507 852 575 852 q 420 873 448 852 q 392 939 392 895 z "},"ј":{"ha":452,"x_min":-179,"x_max":497,"o":"m -39 -334 q -179 -315 -113 -334 l -179 -110 q -103 -122 -141 -122 q 16 -22 -7 -122 l 183 768 l 446 768 l 269 -64 q 163 -264 242 -195 q -39 -334 83 -334 m 215 937 q 255 1043 215 1007 q 368 1079 296 1079 q 464 1054 430 1079 q 497 983 497 1029 q 460 881 497 920 q 345 842 422 842 q 215 937 215 842 z "},"љ":{"ha":1286,"x_min":-25,"x_max":1219,"o":"m 839 475 q 951 489 887 489 q 1146 429 1074 489 q 1219 273 1219 370 q 1124 60 1219 133 q 835 -14 1029 -14 q 610 42 690 -14 q 530 203 530 97 q 549 339 530 257 l 602 582 l 572 585 q 494 559 523 585 q 438 475 465 534 q 378 302 411 416 q 301 101 337 163 q 216 13 265 39 q 85 -14 166 -14 q -25 7 26 -14 l -25 211 q 29 197 0 197 q 82 232 60 197 q 146 404 103 267 q 225 601 187 535 q 312 705 263 667 q 427 763 361 744 q 585 782 494 782 q 763 766 683 782 q 895 728 842 749 l 839 475 m 884 311 q 802 300 835 311 q 786 214 786 241 q 808 177 786 190 q 868 164 830 164 q 930 183 906 164 q 954 239 954 202 q 935 291 954 271 q 884 311 916 311 z "},"њ":{"ha":1236,"x_min":16,"x_max":1169,"o":"m 789 475 q 901 489 837 489 q 1096 429 1023 489 q 1169 273 1169 370 q 1074 60 1169 133 q 785 -14 979 -14 q 561 42 640 -14 q 481 203 481 98 q 490 298 481 254 l 342 298 l 278 0 l 16 0 l 179 768 l 441 768 l 383 490 l 530 490 l 591 768 l 854 768 l 789 475 m 833 311 q 751 300 785 311 q 736 214 736 234 q 758 177 736 190 q 818 164 780 164 q 880 183 856 164 q 904 239 904 202 q 885 291 904 271 q 833 311 866 311 z "},"ћ":{"ha":864,"x_min":16,"x_max":785,"o":"m 446 791 q 392 625 425 705 l 397 625 q 582 713 465 713 q 731 655 677 713 q 785 494 785 597 q 768 339 785 419 l 696 0 l 433 0 l 507 350 q 519 446 519 403 q 504 490 519 475 q 468 504 489 504 q 392 453 422 504 q 343 306 363 402 l 278 0 l 16 0 l 182 791 l 68 791 l 103 956 l 216 956 l 239 1055 l 501 1055 l 481 956 l 663 956 l 628 791 l 446 791 z "},"ќ":{"ha":867,"x_min":16,"x_max":928,"o":"m 629 768 l 928 768 l 627 382 l 781 0 l 493 0 l 354 368 l 278 0 l 16 0 l 175 768 l 437 768 l 364 415 l 629 768 m 439 857 q 631 1064 523 926 l 928 1064 l 928 1054 q 799 947 898 1017 q 632 842 699 878 l 439 842 l 439 857 z "},"ў":{"ha":755,"x_min":-87,"x_max":833,"o":"m 56 768 l 319 768 l 349 387 l 350 345 l 350 286 l 355 286 q 389 398 380 376 q 551 768 398 421 l 833 768 l 379 -97 q 228 -278 314 -222 q 17 -334 142 -334 q -87 -322 -45 -334 l -87 -114 q -14 -122 -56 -122 q 83 -97 45 -122 q 150 -20 121 -73 l 165 8 l 56 768 m 429 842 q 130 1072 130 842 l 133 1100 l 349 1100 l 347 1065 q 376 995 347 1017 q 452 974 406 974 q 542 1004 509 974 q 587 1100 574 1035 l 812 1100 q 690 906 787 971 q 429 842 593 842 z "},"џ":{"ha":864,"x_min":65,"x_max":848,"o":"m 410 -39 l 447 -39 l 401 -334 l 163 -334 l 231 -96 l 410 -39 m 330 254 q 346 210 330 224 q 382 196 361 196 q 455 249 422 196 q 507 395 488 302 l 586 768 l 848 768 l 686 0 l 476 0 l 485 107 l 479 107 q 392 15 443 44 q 268 -14 342 -14 q 119 44 172 -14 q 65 204 65 102 q 82 359 65 276 l 168 768 l 431 768 l 343 350 q 330 254 330 294 z "},"Ґ":{"ha":734,"x_min":22,"x_max":859,"o":"m 452 775 l 288 0 l 22 0 l 232 991 l 576 991 l 623 1206 l 859 1206 l 771 775 l 452 775 z "},"ґ":{"ha":701,"x_min":16,"x_max":782,"o":"m 694 557 l 396 557 l 278 0 l 16 0 l 178 768 l 503 768 l 543 965 l 782 965 l 694 557 z "},"Ẁ":{"ha":1299,"x_min":103,"x_max":1417,"o":"m 330 240 l 357 311 l 421 468 l 648 991 l 876 991 l 876 454 q 859 240 876 349 q 949 475 865 259 l 1154 991 l 1417 991 l 986 0 l 673 0 l 673 420 q 682 640 673 526 q 602 404 660 550 l 431 0 l 136 0 l 103 991 l 354 991 l 347 494 q 330 240 343 313 m 876 1071 l 716 1071 q 613 1179 661 1122 q 544 1279 566 1236 l 544 1293 l 812 1293 q 876 1088 832 1187 l 876 1071 z "},"ẁ":{"ha":1143,"x_min":69,"x_max":1221,"o":"m 570 0 l 583 304 q 591 446 585 354 q 606 595 597 538 l 600 595 q 518 330 559 437 l 390 0 l 114 0 l 69 768 l 317 768 l 317 421 q 311 245 317 298 l 317 245 q 376 446 348 366 l 493 768 l 783 768 l 770 446 q 747 245 764 358 l 753 245 q 763 278 758 260 q 796 373 769 295 q 960 768 823 450 l 1221 768 l 856 0 l 570 0 m 778 842 l 618 842 q 515 949 562 892 q 446 1050 467 1006 l 446 1064 l 714 1064 q 778 859 734 958 l 778 842 z "},"Ẃ":{"ha":1299,"x_min":103,"x_max":1417,"o":"m 330 240 l 357 311 l 421 468 l 648 991 l 876 991 l 876 454 q 859 240 876 349 q 949 475 865 259 l 1154 991 l 1417 991 l 986 0 l 673 0 l 673 420 q 682 640 673 526 q 602 404 660 550 l 431 0 l 136 0 l 103 991 l 354 991 l 347 494 q 330 240 343 313 m 642 1086 q 833 1293 726 1156 l 1131 1293 l 1131 1283 q 1001 1177 1101 1246 q 835 1071 902 1107 l 642 1071 l 642 1086 z "},"ẃ":{"ha":1143,"x_min":69,"x_max":1221,"o":"m 570 0 l 583 304 q 591 446 585 354 q 606 595 597 538 l 600 595 q 518 330 559 437 l 390 0 l 114 0 l 69 768 l 317 768 l 317 421 q 311 245 317 298 l 317 245 q 376 446 348 366 l 493 768 l 783 768 l 770 446 q 747 245 764 358 l 753 245 q 763 278 758 260 q 796 373 769 295 q 960 768 823 450 l 1221 768 l 856 0 l 570 0 m 559 857 q 750 1064 642 926 l 1048 1064 l 1048 1054 q 918 947 1017 1017 q 751 842 819 878 l 559 842 l 559 857 z "},"Ẅ":{"ha":1299,"x_min":103,"x_max":1417,"o":"m 330 240 l 357 311 l 421 468 l 648 991 l 876 991 l 876 454 q 859 240 876 349 q 949 475 865 259 l 1154 991 l 1417 991 l 986 0 l 673 0 l 673 420 q 682 640 673 526 q 602 404 660 550 l 431 0 l 136 0 l 103 991 l 354 991 l 347 494 q 330 240 343 313 m 497 1168 q 633 1295 497 1295 q 749 1210 749 1295 q 612 1082 749 1082 q 525 1103 553 1082 q 497 1168 497 1124 m 827 1168 q 964 1295 827 1295 q 1078 1210 1078 1295 q 1044 1113 1078 1144 q 943 1082 1010 1082 q 855 1103 883 1082 q 827 1168 827 1124 z "},"ẅ":{"ha":1143,"x_min":69,"x_max":1221,"o":"m 570 0 l 583 304 q 591 446 585 354 q 606 595 597 538 l 600 595 q 518 330 559 437 l 390 0 l 114 0 l 69 768 l 317 768 l 317 421 q 311 245 317 298 l 317 245 q 376 446 348 366 l 493 768 l 783 768 l 770 446 q 747 245 764 358 l 753 245 q 763 278 758 260 q 796 373 769 295 q 960 768 823 450 l 1221 768 l 856 0 l 570 0 m 385 939 q 521 1065 385 1065 q 636 981 636 1065 q 500 852 636 852 q 412 873 440 852 q 385 939 385 895 m 715 939 q 851 1065 715 1065 q 965 981 965 1065 q 931 884 965 915 q 830 852 898 852 q 743 873 770 852 q 715 939 715 895 z "},"Ỳ":{"ha":839,"x_min":111,"x_max":953,"o":"m 446 624 l 657 991 l 953 991 l 538 385 l 456 0 l 191 0 l 272 385 l 111 991 l 385 991 l 446 624 m 655 1071 l 495 1071 q 392 1179 439 1122 q 323 1279 345 1236 l 323 1293 l 591 1293 q 655 1088 611 1187 l 655 1071 z "},"ỳ":{"ha":755,"x_min":-87,"x_max":833,"o":"m 56 768 l 319 768 l 349 387 l 350 345 l 350 286 l 355 286 q 389 398 380 376 q 551 768 398 421 l 833 768 l 379 -97 q 228 -278 314 -222 q 17 -334 142 -334 q -87 -322 -45 -334 l -87 -114 q -14 -122 -56 -122 q 83 -97 45 -122 q 150 -20 121 -73 l 165 8 l 56 768 m 565 842 l 405 842 q 302 949 349 892 q 233 1050 254 1006 l 233 1064 l 501 1064 q 565 859 521 958 l 565 842 z "},"–":{"ha":667,"x_min":22,"x_max":652,"o":"m 22 282 l 61 468 l 652 468 l 611 282 l 22 282 z "},"—":{"ha":1333,"x_min":22,"x_max":1318,"o":"m 22 282 l 61 468 l 1318 468 l 1278 282 l 22 282 z "},"―":{"ha":1333,"x_min":22,"x_max":1318,"o":"m 22 282 l 61 468 l 1318 468 l 1278 282 l 22 282 z "},"‗":{"ha":625,"x_min":-139,"x_max":555,"o":"m 492 -314 l -139 -314 l -113 -203 l 518 -203 l 492 -314 m 529 -142 l -102 -142 l -75 -31 l 555 -31 l 529 -142 z "},"‘":{"ha":339,"x_min":74,"x_max":444,"o":"m 81 652 l 74 667 q 249 991 144 826 l 444 991 q 408 903 427 949 q 317 652 390 856 l 81 652 z "},"’":{"ha":339,"x_min":64,"x_max":433,"o":"m 428 991 l 433 977 q 260 652 371 833 l 64 652 q 110 765 87 707 q 192 991 132 824 l 428 991 z "},"‚":{"ha":421,"x_min":-71,"x_max":298,"o":"m 293 161 l 298 146 q 125 -179 235 -5 l -71 -179 q -37 -96 -54 -139 q 57 161 -20 -52 l 293 161 z "},"‛":{"ha":339,"x_min":129,"x_max":387,"o":"m 371 991 q 387 652 371 814 l 196 652 q 156 810 176 720 q 129 977 136 901 l 139 991 l 371 991 z "},"“":{"ha":676,"x_min":74,"x_max":781,"o":"m 416 652 l 411 667 q 585 991 485 833 l 781 991 q 713 817 747 913 l 653 652 l 416 652 m 81 652 l 74 667 q 249 991 144 826 l 444 991 q 408 903 427 949 q 317 652 390 856 l 81 652 z "},"”":{"ha":676,"x_min":64,"x_max":770,"o":"m 428 991 l 433 977 q 260 652 371 833 l 64 652 q 132 827 97 731 l 192 991 l 428 991 m 765 991 l 770 977 q 695 823 743 915 q 597 652 647 732 l 401 652 q 469 827 429 718 l 529 991 l 765 991 z "},"„":{"ha":761,"x_min":-71,"x_max":639,"o":"m 293 161 l 298 146 q 125 -179 235 -5 l -71 -179 q -37 -96 -54 -139 q 57 161 -20 -52 l 293 161 m 633 161 l 639 146 q 554 -24 604 67 q 464 -179 505 -116 l 269 -179 q 369 83 311 -79 l 397 161 l 633 161 z "},"†":{"ha":753,"x_min":123,"x_max":739,"o":"m 696 599 l 486 619 l 390 0 l 164 0 l 330 616 l 251 610 l 123 599 l 165 793 l 367 775 l 389 1055 l 615 1055 l 519 775 l 570 779 q 739 793 692 787 l 696 599 z "},"‡":{"ha":753,"x_min":32,"x_max":742,"o":"m 439 411 q 549 420 511 419 q 657 429 584 421 l 616 235 l 406 253 l 397 125 l 387 0 l 161 0 l 252 253 l 115 243 l 32 235 l 74 429 l 285 411 l 281 533 l 336 644 l 117 627 l 157 821 l 368 803 l 377 930 l 386 1055 l 612 1055 l 522 803 l 633 811 l 742 821 l 700 627 l 490 644 l 496 533 l 439 411 z "},"•":{"ha":545,"x_min":58,"x_max":517,"o":"m 58 467 q 90 612 58 547 q 181 713 122 677 q 317 750 239 750 q 467 697 417 750 q 517 546 517 645 q 448 339 517 414 q 257 264 379 264 q 111 318 164 264 q 58 467 58 372 m 403 768 z "},"…":{"ha":1221,"x_min":8,"x_max":1092,"o":"m 8 86 q 52 202 8 160 q 174 244 96 244 q 263 217 231 244 q 296 139 296 190 q 255 21 296 59 q 126 -17 214 -17 q 41 8 73 -17 q 8 86 8 33 m 407 86 q 451 202 407 160 q 572 244 495 244 q 662 217 629 244 q 694 139 694 190 q 654 21 694 59 q 525 -17 613 -17 q 439 8 472 -17 q 407 86 407 33 m 804 86 q 848 202 804 160 q 970 244 892 244 q 1059 217 1027 244 q 1092 139 1092 190 q 1051 21 1092 59 q 922 -17 1010 -17 q 837 8 869 -17 q 804 86 804 33 z "},"‰":{"ha":1829,"x_min":54,"x_max":1789,"o":"m 1105 991 l 372 0 l 171 0 l 909 991 l 1105 991 m 338 842 q 278 767 304 842 q 252 604 252 692 q 288 547 252 547 q 348 622 323 547 q 374 785 374 697 q 366 828 374 814 q 338 842 357 842 m 571 787 q 533 582 571 675 q 426 436 494 488 q 269 383 357 383 q 108 440 161 383 q 54 602 54 496 q 91 811 54 719 q 196 955 127 904 q 357 1006 264 1006 q 514 948 456 1006 q 571 787 571 890 m 1000 444 q 940 370 966 444 q 914 207 914 295 q 950 150 914 150 q 1011 225 985 150 q 1036 387 1036 300 q 1028 431 1036 417 q 1000 444 1020 444 m 1234 390 q 1196 185 1234 279 q 1088 39 1158 92 q 932 -14 1019 -14 q 770 43 824 -14 q 717 204 717 99 q 753 414 717 321 q 858 557 790 507 q 1019 608 926 608 q 1176 551 1119 608 q 1234 390 1234 493 m 1556 444 q 1496 370 1522 444 q 1470 207 1470 295 q 1506 150 1470 150 q 1566 225 1541 150 q 1592 387 1592 300 q 1584 431 1592 417 q 1556 444 1575 444 m 1789 390 q 1751 185 1789 279 q 1644 39 1713 92 q 1487 -14 1575 -14 q 1326 43 1379 -14 q 1272 204 1272 99 q 1309 414 1272 321 q 1414 557 1345 507 q 1575 608 1482 608 q 1732 551 1674 608 q 1789 390 1789 493 z "},"′":{"ha":330,"x_min":123,"x_max":404,"o":"m 404 991 l 297 633 l 123 633 l 172 991 l 404 991 z "},"″":{"ha":631,"x_min":123,"x_max":704,"o":"m 404 991 l 297 633 l 123 633 l 172 991 l 404 991 m 704 991 l 597 633 l 422 633 l 472 991 l 704 991 z "},"‹":{"ha":488,"x_min":41,"x_max":497,"o":"m 41 382 l 318 733 l 497 595 l 317 368 l 392 144 l 165 52 l 41 375 l 41 382 z "},"›":{"ha":488,"x_min":-9,"x_max":446,"o":"m 446 380 l 170 29 l -9 168 l 171 395 l 96 618 l 321 711 l 446 387 l 446 380 z "},"‼":{"ha":831,"x_min":8,"x_max":888,"o":"m 307 350 l 85 350 l 191 991 l 479 991 l 307 350 m 8 86 q 52 201 8 159 q 174 244 96 244 q 264 217 233 244 q 296 139 296 189 q 253 24 296 64 q 135 -17 210 -17 q 42 9 75 -17 q 8 86 8 35 m 715 350 l 493 350 l 599 991 l 888 991 l 715 350 m 416 86 q 460 201 416 159 q 582 244 505 244 q 672 217 641 244 q 704 139 704 189 q 661 24 704 64 q 543 -17 618 -17 q 450 9 484 -17 q 416 86 416 35 z "},"⁄":{"ha":168,"x_min":-382,"x_max":554,"o":"m 554 991 l -180 0 l -382 0 l 357 991 l 554 991 z "},"ⁿ":{"ha":555,"x_min":71,"x_max":610,"o":"m 364 503 l 416 765 q 422 810 422 792 q 383 854 422 854 q 335 824 353 854 q 293 690 316 793 l 252 503 l 71 503 l 172 991 l 321 991 l 313 916 q 385 986 348 968 q 478 1004 421 1004 q 572 966 534 1004 q 610 872 610 928 q 607 825 610 844 q 545 503 605 805 l 364 503 z "},"₣":{"ha":806,"x_min":0,"x_max":850,"o":"m 376 317 l 547 317 l 518 178 l 347 178 l 313 0 l 47 0 l 85 178 l 0 178 l 29 317 l 114 317 l 257 991 l 850 991 l 804 775 l 476 775 l 447 636 l 751 636 l 704 419 l 399 419 l 376 317 z "},"₤":{"ha":806,"x_min":-12,"x_max":829,"o":"m 253 694 q 313 878 273 812 q 415 975 353 944 q 576 1006 478 1006 q 696 993 637 1006 q 829 947 756 980 l 732 745 q 587 787 651 787 q 548 771 562 787 q 525 711 534 755 l 521 694 l 692 694 l 661 555 l 492 555 l 475 472 l 643 472 l 614 334 l 443 334 q 318 224 433 279 l 728 224 l 679 0 l -12 0 l 31 212 q 133 261 102 234 q 176 334 163 288 l 46 334 l 75 472 l 205 472 l 224 555 l 96 555 l 126 694 l 253 694 z "},"₧":{"ha":1386,"x_min":16,"x_max":1349,"o":"m 811 694 q 695 426 811 524 q 376 329 578 329 l 334 329 l 265 0 l 16 0 l 225 991 l 447 991 q 717 915 623 991 q 811 694 811 838 m 379 541 l 422 541 q 521 582 481 541 q 561 686 561 623 q 536 752 561 724 q 471 781 511 781 l 431 781 l 379 541 m 1135 183 q 1190 190 1156 183 q 1258 211 1225 197 l 1258 31 q 1040 -14 1168 -14 q 882 29 930 -14 q 833 161 833 72 q 838 213 833 182 q 872 382 843 244 l 768 382 l 794 505 l 942 566 l 1039 749 l 1202 749 l 1164 574 l 1349 574 l 1304 382 l 1122 382 l 1101 292 q 1092 222 1092 245 q 1135 183 1092 183 z "},"€":{"ha":806,"x_min":36,"x_max":868,"o":"m 614 799 q 465 667 517 799 l 667 667 l 636 528 l 427 528 q 410 444 414 488 l 576 444 l 547 306 l 393 306 q 412 229 393 250 q 484 208 431 208 q 582 221 534 208 q 682 254 629 233 l 682 31 q 441 -14 597 -14 q 210 64 285 -14 q 131 306 135 141 l 36 306 l 65 444 l 139 444 l 154 528 l 82 528 l 114 667 l 193 667 q 358 920 250 831 q 614 1008 466 1008 q 751 991 692 1008 q 868 937 810 975 l 764 746 q 614 799 682 799 z "}}}
